/* XPM */
static char *frame_012_png[] = {
/* columns rows colors chars-per-pixel */
"63 40 128 2 ",
"   c #010101",
".  c #090603",
"X  c #0D0A06",
"o  c #0C0C0C",
"O  c #110D06",
"+  c #171207",
"@  c #1B1508",
"#  c #1E1809",
"$  c #0F1010",
"%  c #161616",
"&  c #1B1C1C",
"*  c #211A0A",
"=  c #2D230E",
"-  c #382613",
";  c #342910",
":  c #34271A",
">  c #3E3113",
",  c gray14",
"<  c #2C2C2C",
"1  c gray20",
"2  c gray22",
"3  c #453615",
"4  c #4A3A16",
"5  c #4B361C",
"6  c #513F19",
"7  c #463522",
"8  c #533E2A",
"9  c #52421E",
"0  c #5F4B1E",
"q  c #624D1E",
"w  c #5D4521",
"e  c #5E4730",
"r  c #654C2C",
"t  c #685220",
"y  c #70562E",
"u  c #7C572F",
"i  c #6E4F30",
"p  c #6F5338",
"a  c #7E5930",
"s  c #7E6327",
"d  c #7E6034",
"f  c #444444",
"g  c #484442",
"h  c gray30",
"j  c #535353",
"k  c #6B5642",
"l  c #6F5E47",
"z  c #715B44",
"x  c #7E5F40",
"c  c #725D48",
"v  c #766642",
"b  c #7C6046",
"n  c #626262",
"m  c #6F6C69",
"M  c #855E33",
"N  c #805F3F",
"B  c #806427",
"V  c #8A6D2A",
"C  c #8E702C",
"Z  c #94752D",
"A  c #8C6433",
"S  c #89673F",
"D  c #8B693F",
"F  c #916E3F",
"G  c #96733F",
"H  c #99753F",
"J  c #9D783E",
"K  c #A6753D",
"L  c #AD7C3F",
"P  c #846340",
"I  c #8C6640",
"U  c #8E6840",
"Y  c #926C40",
"T  c #996E40",
"R  c #977340",
"E  c #9C7140",
"W  c #8E7156",
"Q  c #87765D",
"!  c #A57541",
"~  c #A97740",
"^  c #AC7A40",
"/  c #B07F40",
"(  c #A58233",
")  c #AB8734",
"_  c #AF8936",
"`  c #A7813E",
"'  c #AC853D",
"]  c #AF883D",
"[  c #B28B36",
"{  c #B3843E",
"}  c #B58C3D",
"|  c #BA8D3E",
" . c #BD933C",
".. c #C1963C",
"X. c #C49A3C",
"o. c #CA9F3E",
"O. c #CCA03E",
"+. c #D0A33F",
"@. c #B48341",
"#. c #B98941",
"$. c #BC976F",
"%. c #C59641",
"&. c #C79841",
"*. c #CD9E42",
"=. c #CFA240",
"-. c #D3A641",
";. c #D7A942",
":. c #D8AA42",
">. c #D0A54B",
",. c #D9AD48",
"<. c #CCA653",
"1. c #C6A45C",
"2. c #C29C61",
"3. c #CAA771",
"4. c #BDBAB9",
"5. c #C8AB8B",
"6. c #CBBB98",
"7. c #EFD8A5",
"8. c #E8D8B3",
"9. c #EBDBB9",
"0. c #EFE0BD",
"q. c #EEE1CB",
"w. c #EBE7E5",
"e. c #EFE9E0",
"r. c #EDEAE8",
"t. c #F1EDE9",
"y. c #F3F0EE",
"u. c None",
/* pixels */
"u.u.u.u.u.u.u.u.u.u.u.u.u.u.u.u.u.u.u.u.u a a a u a a a a a a a a a a a i e e e r e e e e e 7 u.u.u.u.u.u.u.u.u.u.u.u.u.u.u.u.",
"u.u.u.u.u.                              . . . . . . . . . . . . . . . .   .   .   . .     . .                 u.u.u.u.u.u.u.u.",
"u.u.                                , <   % 1 o                     + 0 =     o 1 %   < ,                     u.u.u.u.u.u.u.u.",
"u.u.      u.u.u.u.^ ^ ^ ^ ^ M O     h j o 1 n &                     = ..q .   & n 1 o j h .                   u.u.u.u.u.u.u.u.",
"u.u.u.u.u.u.u.u.~ ^ ^ ^ ^ ^ K A 5   $ , h 2 % f f                   =  ._ C #   % 2 h , , j ,             u.u.u.u.u.u.u.u.u.u.",
"u.u.u.u.u.~ ~ ~ ~ ^  ...X.X. .X.B = . o h 2 % f f & o             * 6  .X. .4 #   < h o % j ,             u.u.u.u.u.u.u.u.u.u.",
"u.u.u.u.u.~ ~ ~ ` { X.X.X.X.X.X...[ ;     1 n & % n 1             Z  .| ..X...V                       u.u.u.u.u.u.u.u.u.u.u.u.",
"u.u.u.x P ! ~ ~ | X.X.X.X.X.X.X.X...s 9 . % 1 o o 1 &         = t [ ..^ } X.X.) t t t w q 0 q 0 5 :   u.u.u.u.u.u.u.u.u.u.u.u.",
"u.u.x Y E ~ ! U { X.X.X.X.X.X.X.O. .@.a O         .   .   .   w #.....| ..X.X.X.o.X.X.} @.H J E P P N u.u.u.u.u.u.u.u.u.u.u.u.",
"u.u.P E ~ ~ T x ] X.X.X.X.X.X.X. . .R P c c c e 8 8 8 8 k z p A L ..X.X.X.X.X.X.X.X.X.L E W b p p z W u.u.u.u.u.u.u.u.u.u.u.u.",
"x U ! ~ ~ ~ T N ] X.X.X.X.X.X.X.O. ...1.e.y.w.g . X X % 4.q.>.&.....X.X.X.X.X.X.X.X.X.L $.t.m . . h r.5.K u.u.u.u.u.u.u.u.u.u.",
"x U ~ ~ ~ ~ T N ] X.X.X.X.X.X.X. .O.X.<.8.0.9.v 4 4 4 9 6.7.,.O.X.X.X.X...| | | |  .X.@.2.9.Q - - l 9.3.{ u.u.u.u.u.u.u.u.u.u.",
"x U ~ ~ ~ ~ T x ' X.X.X.X.X.X.X.O. .O. .X.*.;.;.;.;.:.:.:.:.:.=...X.X.X.#.~ ~ ~ ~ } X.X.X.X.} K ~ L X.X...^ ^ ~ u.u.u.u.u.u.u.",
"x U ~ ~ ~ ~ T N ] X.X.X.X.X.X.X. .O.X.X.X...#.#.#.#.#.#.o.o.O.X.X.X.X.X...| | | | ..X.X.X.X. .| |  .X.X.X.| | | { ~ u.u.u.u.u.",
"x U ~ ~ ~ ~ T N ] X.X.X.X.X.X.X.X.X.X.X.X.} ~ ^ K ^ ~ ^  .X.X.X.X.X.X.X.X.X.X.X.X.X.X.X.X.X.X.X.X.X.......X.X.X.{ ^ u.u.u.u.u.",
"x U ~ ~ ~ ~ T N ] X.X.X.X.X.X.X.X.X.X.X.X.X.X...........X.X.X.X.X.X.X.X.X.X.X.X.X.X.X.X.X.X.X.X.X. .^ L L ..X.X.X. .^ ~ u.u.u.",
"N U ~ ~ ~ ~ G b ]  .}  .} ] ] ..X.X.X.X.X.X.X.X.X.X.X.X.X.X.X.X.X.X.X.X.X.X.X.X.X.X.X.X.X.X.X.X.X. .{ { } ..X.X.X...^ ~ u.u.u.",
"N U ~ ~ ~ K G x ]  .@.! @.I D ..X.X.X.X.X.X.X.X.X.X.X.X.X.X.X.X.X.X.X.X.X.X.X.X.X.X.X.X.X...X...X.X.X.X.X.X.X.X.X.X.^ ~ u.u.u.",
"N U ~ ~ ~ ~ T x Y J }  .] D I ..X.X.X.X.X.X.X.X.X.X.X.X.X.X.X.X.X.X.X.X.X.X.X.( 3 3 3 3 3 3 3 9 _ X.X.X.X.X.X.X.X.X. .} ~ u.u.",
"N U ~ ~ ~ ~ T S b P  .X.X.G S ..X.X.X.X.X.X. .X.X.X.X.X.X.X. . .X.X.X.X.X.X.X.Z @ .         . * ( X.X.X.X.X...X.X.X.X.| ~ u.u.",
"x U ~ ~ ~ ~ ~ ! D S  .X.X.F S  .X.X.X.X.X.} L  .X...X.X.X. .' | X.X.X.X.X.X.X. ._ 4         0 [ ..X.X.X.X.X.X.X.X.X.X.| ~ u.u.",
"x U ~ ~ ~ ~ ~ ~ D D  .X.X.F S  .X.X.X.X.O. .]  .X.X.X.X.X...{ | X.X.X.X.X.X.X.X.X.B > . O 3 Z X.X.X.X.X.X.X.X.X.X...{ ` ~ u.u.",
"x U ~ ~ ~ ~ ~ ~ D S  .X.X.G D  .X.X.X.X. .X.X.O.X.X.X.X.X.X.X.X...X.X.X.X.X.X.X.X.X. .# ;  .X.X.X.X.X.X.X.X.X.X.X. .I U ~ u.u.",
"x U ~ ~ ~ ~ ~ ~ I D  .X.X.] ) H ) X.X.X.X.X.X. .X.X.| { ..X.X.X.X.X.X.X.X.X.X.X.X.X. .r y ..X.X.X.X.X.X.X.X.X.X.X. .P G | ' ~ ",
"P Y ! ! ~ ~ ~ ! D F  .O. .O.[ D H  . . .X. .X.X.X.X.| L  .X.X.X.X.X.X. .X.X.X.X.X. .} R J  .....X.X.X.X.X.X... . .} U J X.{ ! ",
" .L P T ~ ~ T S )  .O. .X.X.X. .` S S F  .O.X.X.X.X.....X.X.X.X.O. .X.X.X.O.X.X.O.` P ] ] v ` ..X.X.X.X.X.o.] S P U } O.-.#.~ ",
"X.| G R T T T G [ O.X.X.X.X.X.O.] G H J ' ] @.` [ X.X.X.X.X.X.X.X.X.X.O.[ @.` ' ' ` J  . .G @.@.' ` ' ' @.@.` G G J X.O.:.#.~ ",
"X.X.X.G x x H X. .X.X.X.X.X. .X.O. .X.} S b d b D ..X.X.X...X.X.X.O. .O.` d v v d ` X.X.X.X.R d S x x x v d G ..X.X.:.:.:.#.~ ",
"X. .{ { ' ' | .. .O.X.X. .O.O.+.+.+.O. .] ] ' ' ` G G G H G G G R R R R ` ' ' ' ` #.-.-.=.=.#.' ' ' ' ] ` ] } -.O.-.:.*.#.@.u.",
"X.| ~ | ..X.X.X.O. .X.X.O. .O.:.+.:.O.O.X.X.X.O. .D P P S S P S v d P P ` X.O.O.X.=.-.,.:.:.+.O.X.O.X.X.X.X.O.:.:.:.:.%.~ u.u.",
"X.| ~ ^ ` ..X.X. .O.O.+.+.+.+.:.:.:.+.+.-.:.-.-.=. . . . . . . . . . . .X.-.-.-.-.:.:.:.:.:.:.-.:.-.-.-.:.-.:.:.:.:.:.&.~ u.u.",
"X. .{ L L ..X.X.O. .O.+.:.+.:.:.:.:.:.:.:.:.:.:.:.O.O.o.o.o.o.o.O.O.O.O.-.:.:.:.:.:.-.:.-.:.:.:.:.:.:.:.:.-.:.:.;.O.-.&.~ u.u.",
"X.X.X.{ L ..X.X.X.X.;.;.;.;.;.;.;.;.;.;.;.;.;.;.;.;.;.;.;.;.;.;.;.;.;.;.;.;.;.;.;.;.;.;.;.;.;.;.;.;.;.;.;.;.;.;.o.X.X.X.u.u.u.",
"X.X...{ ^ ..X.X.X.X.;.:.;.;.;.;.;.;.;.;.;.;.:.;.;.;.;.;.;.;.;.;.;.;.:.;.;.;.;.;.;.;.;.;.;.;.;.;.;.;.;.%.#.X.X.#.@.{ { { u.u.u.",
"X.X.X.{ ^  .X.X.X.X.;.;.;.;.;.;.;.:.;.;.;.;.;.;.;.;.;.;.;.;.;.;.;.;.;.;.;.;.;.;.;.;.;.-.-.*.-.-.;.;.:.#.L ..| L ^ ^ ^ ^ u.u.u.",
"X.X.X.{ ~ L { X.X.o.;.;.;.;.;.;.;.;.;.;.;.;.;.;.;.;.;.;.;.;.;.;.;.;.;.;.;.;.;.;.:.;.;.@./ / ^ / ..o.X.....X.X...........X.X.X.",
"X.X.X.} { ~ { | ..X.O.;.;.;.;.;.;.;.;.;.;.;.:.:.;.;.;.:.;.;.;.;.;.;.;.;.;.;.;.:.;.;.-.{ / / @.{ ..X.X.X.X.X.X.X.X.X.X.X.X.X.X.",
"X...X.X...L ~ ~ | X.X.o.;.;.;.;.;.:.;.;.;.;.;.:.;.;.;.;.;.;.;.;.;.;.;.;.;.;.;.;.;.o.X.X.X.X.X.X.X.X.X.X.X.X.X.X.X.X.X.X.X.X.X.",
"X.X.X.X...| | | { { / @.#.#.#.#.#.#.X.o.o.o.o.o.o.o.o.o.o.o.o.o.o.o.o.o.o.o.o.o.o.X.X.X.X.X.X.X.X.X.X.X.X.X.X.X.X.X.X.X.X.X.X.",
"X.X.X.X.X.X.X.X.{ ~ ~ ~ ~ ~ K ~ ~ ~ | X.X.X.X.X.X.X.X.X.X.X.X.X.X.X.X.X.X.X.X.X.X.X.X.X.X.X.X.X.X.X.X.X.X.X.X.X.X.X.X.X.X.X.X."
};
