/* XPM */
static char *frame_016_png[] = {
/* columns rows colors chars-per-pixel */
"63 40 100 2 ",
"   c #010000",
".  c #080703",
"X  c #0B0903",
"o  c #0B0B0C",
"O  c #120E05",
"+  c #150F08",
"@  c #151107",
"#  c #1B140C",
"$  c #0F0F10",
"%  c #0F1011",
"&  c #131314",
"*  c #171819",
"=  c #191919",
"-  c #251A0D",
";  c #281E0E",
":  c #2B220D",
">  c #31270F",
",  c #2B231B",
"<  c #392714",
"1  c #352A10",
"2  c #312519",
"3  c #3E3113",
"4  c #242425",
"5  c gray17",
"6  c #343434",
"7  c #39393A",
"8  c #453615",
"9  c #533F1C",
"0  c #4E3924",
"q  c #57441B",
"w  c #5B481C",
"e  c #614C1E",
"r  c #66501F",
"t  c #654C2C",
"y  c #6B5421",
"u  c #745B23",
"i  c #70562E",
"p  c #795B3E",
"a  c #4C4C4C",
"s  c gray32",
"d  c #5F5F5F",
"f  c #6C5B44",
"g  c #7F5F40",
"h  c gray39",
"j  c #85622F",
"k  c #8F702C",
"l  c #95752E",
"z  c #98772F",
"x  c #98782F",
"c  c #88673F",
"v  c #8B693F",
"b  c #916637",
"n  c #916E3F",
"m  c #9D6F3C",
"M  c #96733F",
"N  c #99743E",
"B  c #9D793E",
"V  c #A2723D",
"C  c #A37D3D",
"Z  c #AC7C3F",
"A  c #836240",
"S  c #8C6640",
"D  c #8E6840",
"F  c #926C40",
"G  c #996E40",
"H  c #977340",
"J  c #9D7040",
"K  c #827158",
"L  c #A57540",
"P  c #A97740",
"I  c #AB7A40",
"U  c #B07F40",
"Y  c #A58132",
"T  c #AF8A36",
"R  c #A7813E",
"E  c #AC853D",
"W  c #AF883D",
"Q  c #B28C37",
"!  c #B3843E",
"~  c #B58C3C",
"^  c #BA8D3D",
"/  c #BC933C",
"(  c #C1963D",
")  c #C49A3C",
"_  c #CA9F3E",
"`  c #CCA03E",
"'  c #D0A33F",
"]  c #B48341",
"[  c #BA8A41",
"{  c #B9945B",
"}  c #C59641",
"|  c #C79841",
" . c #CB9D41",
".. c #CFA240",
"X. c #D3A641",
"o. c #D7A942",
"O. c #D8AA42",
"+. c #C4A26C",
"@. c #DDCEAC",
"#. c None",
/* pixels */
"#.#.#.#.#.#.#.#.#.#.#.#.#.#.#.#.#.#.#.#.V P P P P P V Z Z Z V P V Z V Z D A g g g g g g g g #.#.#.#.#.#.#.#.#.#.#.#.#.#.#.#.#.",
"#.#.#.#.#.#.#.#.#.#.#.#.#.#.#.#.#.#.#.#.Z Z ! ! ! ] ! ! Z ! ! ! ! W ! ! P m N N M c g g g A g #.#.#.#.#.#.#.#.#.#.#.#.#.#.#.#.",
"#.#.#.#.#.#.#.#.#.#.#.#.#.#.#.Z V Z P P Z ! ) ) ) ( ) ) ) ) ) ) ) ) ) ) ) ) ) ) ) B g g p A g g #.#.#.#.#.#.#.#.#.#.#.#.#.#.#.",
"#.#.#.#.#.#.#.#.#.m m m m m V V Z ! Q ! W ~ / / / / / / / ^ Z ! / / / / / / / Q / E Y R N p p p #.#.#.#.#.#.#.#.#.#.#.#.#.#.#.",
"#.#.#.#.#.      # - - - - - - - ; : : : : : : : : : : : : : - ; : : : ; : : : : : : : : : # # # .             #.#.#.#.#.#.#.#.",
"#.#.#.#.#.- - - - - ; ; : : - .     & &   o & .                     . : O     . % o . & %                     #.#.#.#.#.#.#.#.",
"#.#.    + b V V C Y / / / / x X     a s   5 h =                     ; E 9     = h 5   s a                     #.#.#.#.#.#.#.#.",
"#.#.  2 0 N P P / ) ) ) ) ) Q r 1   4 6 6 6 6 6 5                   ; V j w @ o 6 6 6 6 6 6 *               #.#.#.#.#.#.#.#.#.",
"#.#.A G J P L D ! ) ) ) ) ) ) ` u .   & d 7 . a s o                 1 ! ( / >     6 d $ * h 5             #.#.#.#.#.#.#.#.#.#.",
"#.#.A G P P G g E ) ) ) ) ) ) ) T l ;   & 6 s 4 4 s 5           . u Y ) ) ) Y u   o &   . & o         O #.#.#.#.#.#.#.#.#.#.#.",
"g D L P P P G g E ) ) ) ) ) ) ) ) ) q -   4 s & o a 5         @ 1 Y _ ) ) ) _ x > : : - , 7 *     % 7 p I #.#.#.#.#.#.#.#.#.#.",
"g D P P P P G A W ) ) ) ) ) ) ) ) ) / z X                     w / ) ) ) / ^ ^ ^ Q ~ / Z { @.K < < f @.+.! #.#.#.#.#.#.#.#.#.#.",
"g D P P P P G g E ` ) ) ) ) ) ) ) ) ) Q y e y y y y y y y y y z ) ) ) ) ! P P P P ^ ) ) ) ) ! P L ! ) ) ) I I P #.#.#.#.#.#.#.",
"g D P P P P G g E ) ) ) ) ) ) ) ) ) ) ) ) } [ [ [ } [ [ _ ..` _ ) ) ) ) ( ^ ^ ^ ^ ( ) ) ) ) / ^ ^ / ) ) ) / ^ ^ ] P #.#.#.#.#.",
"g D L P P P G g E ) ) ) ) ) ) ) ) ) ) ) ) ^ P I I I I I / ) ) ) ) ) ) ) ) ) ) ) ) ) ) ) ) ) ) ) ) ) ( ( ( ) ) ) ! I #.#.#.#.#.",
"g D P P P I G A W ` ) ) ) ) ) ) ) ) ) ) ) ) ( ( ( ( ( ( ( ) ) ) ) ) ) ) ) ) ) ) ) ) ) ) ) ) ) ) ) ^ I I I ( ) ) ) / I P #.#.#.",
"g D P P P P G g W / [ / / W W ) ) ) ) ) ) ) ) ) ) ) ) ) ) ) ) ) ) ) ) ) ) ) ) ) ) ) ) ) ) ) ) ) ) / ! ! ! ( ) ) ) ( I P #.#.#.",
"g D P P P P G g W / ] L ] v g ( ) ) ) ) ) ) ) ) ) ) ) ) ) ( ) ) ) ) ) ) ) ) ) / ) ) ) / ) ) ) ) ) ) ) ) ) ) ) ) ) ) I P #.#.#.",
"g D P P P P J A F B ~ / W F D ( ) ) ) ) ) ) ) ) ) ) ) ) ) ) ) ) ( ) ) ) ) ) ) Y q 8 8 8 8 8 3 q T ) ) ) ) ) ) ) ) ) ^ ~ P #.#.",
"g D P P P P J A g A / ) ) n D / ) ) ) ) ) ( ( ) ) ) ) ) ) ) ( ( ) ) ) ) ) ) ) Y O   .       . - Y ) ) ) ) ) ) ) ) ) ) / P #.#.",
"g D P P P P P H S S / ) ) n v / ) ) ) ) ) ^ Z / ) ) ) ) ) / Z ^ ) ) ) ) ) ) ) ( T q .       e Q ) ) ) ) ) ) ) ) ) ) ) ^ P #.#.",
"g D P P P P P P S S / ) ) n c / ) ) ) ) ) / ! / ) ) ) ) ) ( ! ^ ) ) ) ) ) ) ) ) ` u 3 X O 8 k ) ) ) ) ) ) ) ) ) ) ( ! E P #.#.",
"g D P P P P I H D D / ` ) n v / ) ) ) ) ) ) ) ) ) ) ) ) ) ) ) ) ) ) ) ) ) ) ) ) / ) / # > / ) ) ) ) ) ) ) ) ) ) ) / A D P #.#.",
"g D P P P P I ] A A / ) ) Q R B R ) ) ) ) ) ) ) ) ) ^ ! ( ) ) ) ) ) ) ) ) ) ) ) ) ) / t i ) ) ) ) ) ) ) ) ) ) ) _ / A H ^ ! L ",
"c F L L L P P L v n / ` / ` Q v H / / / ) ) ) ) ) ) ^ Z / ) ) ) ) ) ) ) ) ) ) ) ) / / H H / / ) ) ) ) ) ) ) ) / / ~ D H ` ! P ",
"/ R A J P P G A E / ` / ) ) ) / E A A H / ) ) ) ) ) ) / ( ) ) ) ) ) ) ) ) ) ) ) ` R A W E c E ) ) ) ) ) ) ) ~ A A D ~ ) O.[ P ",
") ~ N H G H J N / ) ) ) ) ) ) ) ~ H H H E W E E ! ) ) ) ) ) ) ) ) ) ) ) Q ] R E E B N / / M R R E W E E E E R N M B ) ' O.[ P ",
") ) ) N g g N ) / ) ) ) ) ) ) ) ) ) ) / A g g g v ) ) ) ) ) ) ) ) ) ) ` R p g g p R ) ` / ) B g g g g g g g H ) ) ) o.O.O.[ L ",
") / ! W E E ~ ) ` ) ) ) ` / ` ` X...` / E E E E R N H H M M M M H M M M R R E R E / ..X.` X./ R E R E E R W [ ..' X.o. .[ ] #.",
") ^ P ^ ( ) ) ) / ` ) ) ` / ` o.o.o.` ` ) ` ) ` / D A A c c c c A g A S R ` ` ` ` ..O.o.o.O...` ` ` ) ` ) ) ` O.o.o.o.| L #.#.",
") ^ P I I ) ) ) ` / / ` ' ' o.o.o.o.X.X.X.o.X.X.../ / / / / ~ / / / / / ) X.X.o.X.o.o.o.o.o.O.X.' X.X.X.O.X.o.O.o.O.O.| P #.#.",
") / ! I I ( ) ) / ` ` ' O.O.o.o.o.o.o.o.O.O.O.O.X...` _ ` _ _ _ ` ` ` ` ..o.O.o.O.o.o.o.o.O.O.O.O.O.O.O.O.O.X.O.X.' X.| P #.#.",
") ) ) ] I ( ) ) ) _ o.o.o.o.o.o.o.o.o.o.o.o.o.o.o.o.o.o.o.o.o.o.o.o.o.o.o.o.o.o.o.o.o.o.o.o.o.o.o.o.o.o.o.o.o.o. .) ) ) #.#.#.",
") ) ) ] I ( ) ) ) ) o.o.o.o.o.o.o.o.o.o.o.o.o.o.o.o.o.o.o.o.o.o.o.o.o.o.o.o.o.o.o.o.o.o.o.o.o.o.o.o.o.} [ | ) [ ] ! ! ! #.#.#.",
") ) ) ! I ( ( ) ) ) o.o.o.o.o.o.o.o.o.o.o.o.o.o.o.o.o.o.o.o.o.o.o.o.o.o.o.o.o.o.o.o.o.X.X.X.X.X.o.X.o.^ Z ( ^ Z Z I I I #.#.#.",
") ) ( ! P Z ! ) ) _ o.o.o.o.o.o.o.o.o.o.o.o.o.o.o.o.o.o.o.o.o.o.o.o.o.o.o.O.o.o.o.O.o.] I I I U ) ) ) ) ( ) ) ( ( ( ( ) ) ) ) ",
") ) ) ~ U P ! ^ ( ) ' o.o.o.o.o.o.o.o.o.o.o.o.O.o.o.o.o.o.o.o.o.O.o.o.o.o.O.o.o.o.o. .^ U ] ] ] ( ) ) ) ) ) ) ) ) ) ) ) ) ) ) ",
") ) ) ) ( I P P ^ ) ) _ o.o.o.o.o.o.o.o.o.o.o.O.o.o.o.O.o.o.o.O.o.o.o.o.o.o.o.o.o.` ) ) ) ) ) ) ) ) ) ( ) ) ) ) ) ) ( ) ) ) ) ",
") ) ) ) ) ^ ^ ^ ! ! ! ] [ [ ! [ [ [ ) _ _ _ _ _  ._ _ _ _ _ _ _ _ _ _ _ _ _ _ _ _ ) ( ) ) ) ) ) ) ) ) ) ) ) ) ) ) ) ) ) ) ) ) ",
") ) ) ) ) ) ) ) ! P P P V P P P P I ^ ) ) ) ) ) ) ) ) ) ) ) ) ) ) ) ) ) ) ) ) ) ) ) ) ) ) ) ) ) ) ) ) ) ) ) ) ) ) ) ) ) ) ) ) "
};
