/* XPM */
static char *frame_003_png[] = {
/* columns rows colors chars-per-pixel */
"63 40 99 2 ",
"   c black",
".  c #080603",
"X  c #0B0805",
"o  c #120E06",
"O  c #1A1408",
"+  c #151210",
"@  c #221A0A",
"#  c #382613",
"$  c #342910",
"%  c #3E2C18",
"&  c #3E3113",
"*  c #453615",
"=  c #4A3A16",
"-  c #523A1F",
";  c #52421E",
":  c #614C1E",
">  c #70562E",
",  c #7C5D2A",
"<  c #6F5238",
"1  c #70543A",
"2  c #7E5D3E",
"3  c #464341",
"4  c #504D4A",
"5  c #6F5E47",
"6  c #765A40",
"7  c #7E5F40",
"8  c #766642",
"9  c #7C6046",
"0  c #6F6C69",
"q  c #8F702C",
"w  c #97772E",
"e  c #88673F",
"r  c #8B693F",
"t  c #916E3F",
"y  c #96733E",
"u  c #98743F",
"i  c #9D793E",
"p  c #A3743E",
"a  c #A37D3E",
"s  c #AD7C3F",
"d  c #805F40",
"f  c #846340",
"g  c #8C6640",
"h  c #8E6840",
"j  c #926B40",
"k  c #996E40",
"l  c #977340",
"z  c #9C7040",
"x  c #866A50",
"c  c #8D6F52",
"v  c #8D7156",
"b  c #87765D",
"n  c #A57541",
"m  c #A97740",
"M  c #AB7A40",
"N  c #B07F40",
"B  c #A58233",
"V  c #AF8A36",
"C  c #A7813E",
"Z  c #AC853D",
"A  c #AF883D",
"S  c #B28B36",
"D  c #B3843E",
"F  c #B58B3D",
"G  c #BA8D3D",
"H  c #BD933D",
"J  c #C1963C",
"K  c #C49A3C",
"L  c #CA9F3E",
"P  c #CCA03E",
"I  c #D0A33F",
"U  c #B48341",
"Y  c #B98941",
"T  c #BC976F",
"R  c #C59641",
"E  c #C79841",
"W  c #CD9E42",
"Q  c #CFA240",
"!  c #CEA44A",
"~  c #D3A641",
"^  c #D7A942",
"/  c #D8AA42",
"(  c #D9AD48",
")  c #CCA653",
"_  c #C5A35C",
"`  c #C29C61",
"'  c #CAA771",
"]  c #BBB8B8",
"[  c #C8AB8B",
"{  c #CBBB98",
"}  c #EFD8A5",
"|  c #E8D8B3",
" . c #EBDBB9",
".. c #EFE0BD",
"X. c #ECE0CA",
"o. c #EBE7E2",
"O. c #EDEAE8",
"+. c #F1EEEB",
"@. c None",
/* pixels */
"@.@.@.@.@.@.@.@.@.@.@.@.@.@.@.@.@.@.@.@.                      - M m m m j d d d 7 7 7 d e 2 @.@.@.@.@.@.@.@.@.@.@.@.@.@.@.@.@.",
"@.@.@.@.@.@.@.@.@.@.@.@.@.@.@.@.@.@.@.@.% * * * * * * * * * * , D D D D p y l y y g 7 7 7 7 7 @.@.@.@.@.@.@.@.@.@.@.@.@.@.@.@.",
"@.@.@.@.@.@.@.@.@.@.@.@.@.@.@.m m m m m m D K K K K K K K K K K K K K K K K K K K i 7 d 7 7 7 9 @.@.@.@.@.@.@.@.@.@.@.@.@.@.@.",
"@.@.@.@.@.@.@.@.@.m m m m m m m D G G G G H K K K K K K K H D G K K K K K K K K K G C A i 7 7 2 @.@.@.@.@.@.@.@.@.@.@.@.@.@.@.",
"@.@.@.@.@.@.@.@.m m M M s s s s F K K K K K K K K K K K K H p F K K K K K K K K K K K K F r e e @.@.@.@.@.@.@.@.@.@.@.@.@.@.@.",
"@.@.@.@.@.m m m p s J J J H K H J K K K K K K K K K K K K H m F K K K K K K K K K K K K K H H G r 9 @.@.@.@.@.@.@.@.@.@.@.@.@.",
"@.@.@.@.@.m m m s F K K K K K K K K K K K K K K K K K K J J M G K K J G J J K K K K K K K K K H r 2 @.@.@.@.@.@.@.@.@.@.@.@.@.",
"@.@.@.7 f n m m G K K K K K K K K K K K K K K K K K K J K J m U J J J s G K K K K K K K K K K H g 7 @.@.@.@.@.@.@.@.@.@.@.@.@.",
"@.@.7 j z m z j D K K K K K K K K K a y y y y l u u u u u y r p D J J G J K K K K K K D s u u y f f 2 @.@.@.@.@.@.@.@.@.@.@.@.",
"@.@.f z M m k d D K K K K K K K K K u f v v c 6 1 1 < 1 x c g y s J K K K K K K K K K s n v 9 1 < 6 v @.@.@.@.@.@.@.@.@.@.@.@.",
"7 h n m m m k d F K K K K K K K K K J _ o.+.o.3 . X X + ] X.! K J K K K K K K K K K J s T O.0 . . 4 O.[ p @.@.@.@.@.@.@.@.@.@.",
"7 h m m m m k d A K K K K K K K K K K ) | .. .8 = = = - { } ( Q K K K K J F G G G J K F `  .b # # 5  .' D @.@.@.@.@.@.@.@.@.@.",
"7 h m m m m k d A K K K K K K K K K K K K W ^ ^ ^ ^ ^ ^ ^ ^ ^ Q K K K K F m m m m F K K K K D p n D K K J M m m @.@.@.@.@.@.@.",
"7 h m m m m k d A K K K K K K K K K K K K J Y Y Y Y U Y E L P K K K K K J G G G G H K K K K H G G H K K K H G H D m @.@.@.@.@.",
"7 r m m m m k d A K K K K K K K K K K K K F s M M s M M H K K K K K K J K K K K K K K K K K K K K K J J J K K K D M @.@.@.@.@.",
"7 h m m m m k d Z K K K K K K K K K K K K J J J J J J J K K K K K K K K K K K K K K K K K K K K K G M M M J K K K J M m @.@.@.",
"d h m m m M k d A K G H G A V P K K K K K K K K K K K K K K K K K K K K K K K K K K K K K K K K K H D D D K K K K J M m @.@.@.",
"d j m m m m k d A H s a n g e H K K K K K K K K K K K K K K K K K K K K K K K K K K K K K K K K K K K K K K K K K K M m @.@.@.",
"d h m m m m k d r i F G G t e H K K K K K K K K K K K K K K K K K K K K K K K B = * & * * * * ; V K K K K K K K K K H D m @.@.",
"d h m m m m z d 9 g H P H y e H K K K K K J J K K K K K K K J J K K K K K K K w O .         . @ B K K K K K K K K K K H m @.@.",
"d j m m m m p n e e J K K y e H K K K K K G s H K K K K K H s F K K K K P H P H V ;         : S K K K K K K K K K K K G m @.@.",
"d d m m m m m m r e H K H y e H K K K K K G D H K K K K K J D G K K K K H P H H P , & X o * q K K K K K K K K K K K F C m @.@.",
"d h m m m m m s r e H K H y r H K K K K K K K K K K K K K K K K K K K K K K H P H P S @ $ H K K K K K K K K K K K H f h n @.@.",
"d h m m m m m p e e J K K F C y C K K K K K K K K K G D J K K K K K K K K K P H P H H : > K K K K K K K K K K K K H f j G D m ",
"d k n m m m m n r y H K K K H e i H H H P H K K K K F s J K K K K K K K K K K K K H F t y H K K K K K K K K K H H H g i K U m ",
"H s d k m M u f Z H K K K K K H C e 8 t H K P K K K J J J K K K K K K K K K K P K C r F Z e Z K K K K K K K A e f h F K ^ Y m ",
"K F y u k k k u F K K K K K K K A y y u Z Z Z Z F K K K K K K K K K K K F C Z Z Z C i H F y a Z A Z Z A Z Z C y y i K I ^ Y n ",
"K K K y d d u K K K K K K K K K K K P S e 2 7 2 r J K K K K K K K K K H C 2 7 7 2 C K K K K i 9 7 7 7 7 7 7 y K K K ^ ^ ^ Y p ",
"J J D A s D F K K K K K K K K P P I P H Z C Z Z C y y y y y y y u u u y i C Z C C H ~ Q P I H A Z Z Z Z Z A F Q ~ I ^ W Y U @.",
"K F m G J K K K K K K K K K P ^ / / P K P K P K G e e e e e e e e 8 e e C P P P P P ^ ^ ^ ^ Q K K P K K K K P ^ ^ ^ ^ E m @.@.",
"K G p s s J K K K K K P ^ ^ ^ ^ ^ ^ I ^ ^ ~ ^ ^ P H H H H H G H H H H H P I ^ ~ ^ ^ ^ ^ ^ ^ ^ ^ ^ ^ ^ ~ ^ ^ ^ ^ ^ ^ ^ E m @.@.",
"J J D s s K K K K K P I ^ ^ ^ ^ ^ / / / ^ ^ ^ ^ ^ P L L L L L L P P P P I ^ ^ ^ ^ ^ ^ ^ ^ ^ ^ ^ ^ ^ ^ ^ ^ ^ ^ ^ ~ I ~ E m @.@.",
"K K K D M J K K K K ^ ^ ^ ^ ^ ^ ^ ^ ^ ^ ^ / ^ ^ ^ ^ ^ ^ ^ ^ ^ ^ ^ ^ ^ ^ ^ ^ ^ ^ ^ ^ / ^ ^ ^ ^ ^ / ^ ^ ^ ^ ^ ~ / W L K K @.@.@.",
"K K J D M J K K K L ^ ^ ^ ^ ^ ^ ^ ^ ^ ^ ^ ^ ^ ^ ^ ^ ^ ^ ^ ^ ^ ^ ^ ^ ^ ^ ^ ^ ^ ^ / ^ / / / ^ ^ / / / / R U L L U D s D D @.@.@.",
"K K K D M J J K K K ^ ^ ^ ^ ^ ^ ^ ^ ^ ^ ^ ^ ^ ^ ^ ^ ^ ^ ^ ^ ^ / ^ ^ ^ ^ ^ ^ / ^ ^ ^ ^ ~ W ~ ~ ~ ~ ~ ~ J s J J s s s s s @.@.@.",
"K K J D m m G J K K ^ ^ ^ ^ ^ ^ ^ ^ ^ ^ ^ ^ ^ ^ ^ ^ ^ / ^ ^ ^ ^ ^ ^ / ^ ^ ^ ^ ^ ^ ^ ~ U N N M M J L K J J K J J J J J J K K K ",
"K K K G s M s J J K I ~ ^ ^ ^ ^ ~ / / ^ ^ ^ ^ ^ ^ ^ ^ ^ ^ ^ ^ ^ ^ ^ ^ ^ ^ ^ ^ ^ / ~ W G N N D D J K K K K K K K K K K K K K K ",
"K K K K J s m m J K K P ^ ^ ^ ^ / / / / ^ ^ ^ / ^ ^ ^ ^ ^ ^ ^ ^ ^ ^ ^ ^ ^ ^ ^ ^ / P J K K K K L K K K K K K K K K K K K K K K ",
"K K K K J J G G D s s Y Y Y Y Y U Y K L L L P L W P L L L L L L L L L L L L L L L L K K K K K K K K K K K K K K J K K K K K K ",
"K K K K K K J K D m m m p n s n m m J K K K K K J K K K K K K K K K K K K K K K K J K K K K K K K K K K J K K K K K K K K K K "
};
