/* XPM */
static char *frame_009_png[] = {
/* columns rows colors chars-per-pixel */
"63 40 122 2 ",
"   c black",
".  c #080603",
"X  c #0B0905",
"o  c #0A0A0C",
"O  c #110D05",
"+  c #110D08",
"@  c #161106",
"#  c #1B1608",
"$  c gray7",
"%  c #1B1B1B",
"&  c #221B0B",
"*  c #291D0F",
"=  c #2F250E",
"-  c #382613",
";  c #342910",
":  c #3B2A16",
">  c #3F3113",
",  c gray14",
"<  c #2C2C2C",
"1  c #323232",
"2  c #3C3C3C",
"3  c #453615",
"4  c #4A3A16",
"5  c #4F371E",
"6  c #4E3D18",
"7  c #53421C",
"8  c #5D491C",
"9  c #614C1E",
"0  c #614425",
"q  c #654C2C",
"w  c #70562E",
"e  c #7A5B29",
"r  c #6A4F36",
"t  c #6F5238",
"y  c #70543A",
"u  c #7C5D3B",
"i  c #7B6126",
"p  c #434342",
"a  c #4E4E4E",
"s  c gray33",
"d  c gray35",
"f  c #6F5E47",
"g  c #765A40",
"h  c #7E5F40",
"j  c #766642",
"k  c #7C6046",
"l  c gray39",
"z  c #6A6968",
"x  c #81632A",
"c  c #8C6E2B",
"v  c #8E702C",
"b  c #94742D",
"n  c #9A792F",
"m  c #88673F",
"M  c #8B693F",
"N  c #976F35",
"B  c #916E3F",
"V  c #96733E",
"C  c #99743F",
"Z  c #9D783E",
"A  c #A17F31",
"S  c #A3743E",
"D  c #A37E3E",
"F  c #AD7C3F",
"G  c #846340",
"H  c #8C6640",
"J  c #8E6840",
"K  c #926C40",
"L  c #996E40",
"P  c #977340",
"I  c #9C7040",
"U  c #866A50",
"Y  c #8D6F52",
"T  c #8D7156",
"R  c #87765D",
"E  c #A57541",
"W  c #A97740",
"Q  c #AC7A40",
"!  c #B07F40",
"~  c #A58233",
"^  c #A88335",
"/  c #AD8835",
"(  c #A7813E",
")  c #AC853D",
"_  c #AF883D",
"`  c #B28C37",
"'  c #B3843E",
"]  c #B58B3D",
"[  c #BA8D3D",
"{  c #BD933C",
"}  c #C1963C",
"|  c #C49A3C",
" . c #CA9F3E",
".. c #CCA03E",
"X. c #D0A33F",
"o. c #B48341",
"O. c #B98941",
"+. c #BC976F",
"@. c #C59641",
"#. c #C79841",
"$. c #CD9E42",
"%. c #CFA240",
"&. c #CEA44A",
"*. c #D3A641",
"=. c #D7A942",
"-. c #D8AA42",
";. c #D9AD48",
":. c #C5A35C",
">. c #C29C61",
",. c #CAA771",
"<. c #BBB8B8",
"1. c #C8AB8B",
"2. c #CBBB98",
"3. c #EFD8A5",
"4. c #E8D8B3",
"5. c #EBDBB9",
"6. c #EFE0BD",
"7. c #ECE0CA",
"8. c #EBE7E2",
"9. c #EDEAE8",
"0. c #F1EEEB",
"q. c None",
/* pixels */
"q.q.      q.q.q.q.q.q.q.q.q.q.      a d   1 z %                     * S 5     % z <   d a                     q.q.q.q.q.q.q.q.",
"q.q.      q.q.q.q.q.q.q.q.q.q.: &   1 p , 1 p < %                   * F e > X $ p 1 , 2 2 , o               q.q.q.q.q.q.q.q.q.",
"q.q.q.q.q.q.q.q.q.q.q.q.q.q.q.Q 0     $ l 2 . a s .                 = } | ` =     2 z $ % z <             q.q.q.q.q.q.q.q.q.q.",
"q.q.q.q.q.q.q.q.q.W W W W W W W N i &   , 1 p < < p ,           . 9 v } | } v 8   $ ,   o , o           q.q.q.q.q.q.q.q.q.q.q.",
"q.q.q.q.q.q.q.q.W W F Q F F F F O.| 4 X   < d $ $ d 1         X & A | | | |  .n # @ @ @ @ @ @ @ + X   q.q.q.q.q.q.q.q.q.q.q.q.",
"q.q.q.q.q.W W W S F } } { } } { | | ` c .   o     o           7 ` } | | | | | } / / / / / / / ^ u r q.q.q.q.q.q.q.q.q.q.q.q.q.",
"q.q.q.q.q.W W W F ] | | | | | | | | | / 6 3 3 3 3 3 3 3 3 3 : x  .} } [ } } | | | | | | | | | { M h q.q.q.q.q.q.q.q.q.q.q.q.q.",
"q.q.q.h G E W W [ | | | | | | | | | | | | | | | | | | | } { F ' | } } F ] | | | | | | | | | | | M h q.q.q.q.q.q.q.q.q.q.q.q.q.",
"q.q.h K L W I H ' | | | | | | | | | D V V P V P V C P P C V J I ' } } [ } | | | | | | ] Q V C C G G u q.q.q.q.q.q.q.q.q.q.q.q.",
"q.q.G I W W L G _ | | | | | | | | | V H Y T Y g t t t y U Y H I F } | | | | | | | | } Q E T h t t g T q.q.q.q.q.q.q.q.q.q.q.q.",
"h J E W W W L h ' | | | | | | | | | { :.8.0.8.p . X X $ <.7.&.| } | | | | | | | | | { F +.9.z X . a 9.1.S q.q.q.q.q.q.q.q.q.q.",
"h J W W W W L h _ | | | | | | | | | | &.4.7.5.j 4 4 4 7 2.3.;.%.| | | | } ] [ [ [ } | ] >.6.R - - f 5.,.' q.q.q.q.q.q.q.q.q.q.",
"h J W W W W L G _ | | | | | | | | | | | | %.=.=.=.=.=.=.-.=.=.%.| | | | [ W W W W ] | | | | ' S W F | | } Q W W q.q.q.q.q.q.q.",
"h J W W W W L h _ | | | | | | | | | | | | } O.O.O.O.O.O.#.....| | | | | } [ [ [ [ } | | | | { [ [ { | | | { [ [ ' W q.q.q.q.q.",
"h J W W W W L G _ | | | | | | | | | | | | ] F W W F W Q { | | | | } | | } | | | | | | | | | | | | | } } } } | | [ W q.q.q.q.q.",
"h M W W W W L G _ | | | | | | | | | | | | | } } } } | { | | | | | | | | | | | | | | | | | | | | | { Q Q ! } | | } } Q W q.q.q.",
"G J W W W W L h _ | { [ { _ ` | | | | | | | | | | | | | | | | | | | | | | | { ..{ ..{ ..| | | | | { ' ' ' } | | | } Q W q.q.q.",
"h H W W W W L G _ } W D E G M { | | { | | | | | | | | | | | | | | | | | | | ..{ ..{ | { | | | | | | | | | | | | | } Q W q.q.q.",
"u H W W W W L G M Z [ { [ K M { | | | | | | | | | | | | | | | | | | | | | | | ~ 4 3 3 3 3 3 3 6 / | | | | | | | | | { ] W q.q.",
"G H W W W W L G k H { { ..B M { | | | | | | { | | | | | | | } { | | | | | | ..b @ .         X & ^ | | | | | | | | | | [ W q.q.",
"h H W W W W W W m m { | ..B M { | | | | | [ F { | | | | | { F ] | | | | | | | { / 7         9 ` } | | | | | | | | |  .[ W q.q.",
"h H W W W W W W M m { | { B M { | | | | | { ' { | | | | | } ' [ | | | | | | | | | i > . O 3 v | | | | | | | | | | } ' ) W q.q.",
"G H W W W W W W M m } | ..B M { | | | | | | | | | | | | | | | | | | | | | | | | | | ` = ; { | | | | | | | | | | | { m M W q.q.",
"h H W W W W W S M m { | { ] ( C ) | | | | | | | | | [ ' } | | | | | | | | | | | | | { q w | | | | | | | | | | | | { m B [ ' Q ",
"G J E E W W W E M V { | | | { M Z { { { | | | | | | ] F } | | | | | | | | | | | { { [ B V { } | | | | | | | | { { { M Z | o.S ",
"{ Q G I W W L G ( { | | | | | { ( G G P | | | | | | } } } | | | | { | | | | | | ..( m ] ) m ) | | | | } | | ] G G J ] | =.O.E ",
"| ] C P L L V C ] | | | | | | | _ V P P ) ) _ ) ] | | | | | | | | | | | { ( ) ) ) ( Z { [ V D _ _ ) ) ) ) ) ( V C Z } X.=.O.E ",
"| | | V h G Z } | | | | | | | | | | | { G u u k M } | | | | | | | | | ..( u j k u ( | | | | Z k u G h G h h V | | | *.-.=.O.W ",
"} } ' ' ) _ ] | | | | | | | | ..%.%...{ _ ) ) ) ( C V V V V V V P P P Z ( ( ( ( ( { %.%.*.%.{ ) ) _ ) _ ) _ ] *.X.*.-.$.O.o.q.",
"| [ W ] } } | | | | | | | | ..=.-.=...| | | | ..{ J G G m m m G G u G G ( ..........-.-.-.=.%.| | | | | | | ..=.-.-.-.#.W q.q.",
"| [ W Q F } | | | | | ..=.=.=.=.=.=.=.=.=.*.=.=.%.{ { { { { { { { { { { ..%.*.-.*.*.-.-.=.=.*.=.=.=.*.=.=.*.=.=.-.-.-.#.W q.q.",
"| } ' F F } | | | | ....=.=.=.=.=.=.=.=.=.=.=.=.=... . . . . . .........*.*.-.-.-.-.-.-.=.=.=.=.=.=.=.=.=.=.=.=.*.X.*.#.W q.q.",
"} | | ' F } } | | | *.-.-.*.-.-.=.=.=.=.=.=.=.=.=.=.=.=.=.=.=.-.-.=.=.=.-.*.-.-.*.-.-.=.=.=.=.=.=.=.=.=.=.=.-.-. .} | | q.q.q.",
"| | } ' W } | | |  .-.-.-.-.-.-.-.=.=.=.=.=.=.=.=.=.=.=.-.-.-.*.-.=.=.=.-.-.-.-.-.-.-.-.-.-.-.=.=.=.-.@.O.| #.O.o.' ' ' q.q.q.",
"| | | ' ! } } | | | -.-.*.-.-.*.=.=.=.=.=.=.=.=.=.=.=.=.*.-.-.-.=.=.-.=.-.-.-.-.-.*.-.*.*.%.$.*.=.=.=.} ! } } W Q Q F F q.q.q.",
"| | | ' W W [ } | | -.-.-.-.-.-.=.=.=.=.=.=.=.-.-.=.=.=.-.-.-.-.=.=.=.=.*.-.-.-.-.-.*.o.Q Q ! ! } | | } } } } } } } } } | | | ",
"| | | ] ' W F } } | X.*.-.=.=.-.=.=.=.=.-.-.-.-.=.=.-.-.-.-.-.-.=.=.-.-.-.-.-.-.-.-.$.[ ! o.' ' } | | | | | | | | | | | | | | ",
"| | | | } Q W W } | | ..-.=.=.=.=.-.=.=.-.-.-.-.=.=.-.-.-.-.-.-.=.=.-.-.-.-.-.-.-...| } | | | | | | | | | | | | | | | | | | | ",
"} | | | } } [ [ ' ' F o.O.O.o.O.o.O.|  .|  . . .$. . . .| .. . . . . . . . . . . .| | | | | | | | | | } | | | | | | | | | | } ",
"| | | | | | } | F W W W W W W W W W } | | | | | } | | | | } | | } } | | } } | | | } | | | | | | | | | | | | | | | | | | | | | "
};
