/* XPM */
static char *frame_019_png[] = {
/* columns rows colors chars-per-pixel */
"63 40 105 2 ",
"   c #010100",
".  c #090703",
"X  c #0C0904",
"o  c #070708",
"O  c #070808",
"+  c #0B0B0B",
"@  c #120E06",
"#  c #140E08",
"$  c #161206",
"%  c #1C1609",
"&  c #0F0F10",
"*  c gray7",
"=  c #1B1B1B",
"-  c #231B0B",
";  c #2B1E10",
":  c #2C230D",
">  c #352A10",
",  c #3C2F12",
"<  c #352719",
"1  c #3E3113",
"2  c #232424",
"3  c #2C2C2C",
"4  c gray20",
"5  c #3A3A3A",
"6  c #443615",
"7  c #4A3A17",
"8  c #4E3D18",
"9  c #563F1F",
"0  c #493624",
"q  c #523E29",
"w  c #624D1E",
"e  c #66501F",
"r  c #5A4429",
"t  c #674827",
"y  c #634729",
"u  c #654C2C",
"i  c #6E4D2A",
"p  c #6B5421",
"a  c #6F5822",
"s  c #745B24",
"d  c #7B5F27",
"f  c #70542A",
"g  c #6E5237",
"h  c #7E5830",
"j  c #7E6327",
"k  c gray26",
"l  c gray29",
"z  c #505050",
"x  c #5B5B5B",
"c  c #7F5F40",
"v  c #646464",
"b  c #806527",
"n  c #846828",
"m  c #8F702C",
"M  c #95752E",
"N  c #99782F",
"B  c #87633D",
"V  c #88673F",
"C  c #8B693F",
"Z  c #926C3D",
"A  c #9A6C3A",
"S  c #96733F",
"D  c #99743F",
"F  c #9D793E",
"G  c #A8763F",
"H  c #A37D3E",
"J  c #AD7C3F",
"K  c #805F40",
"L  c #846340",
"P  c #8C6640",
"I  c #8E6840",
"U  c #916B40",
"Y  c #996E40",
"T  c #977340",
"R  c #9B7040",
"E  c #A57540",
"W  c #A97740",
"Q  c #AC7A40",
"!  c #B07E40",
"~  c #A48132",
"^  c #AA8534",
"/  c #AD8835",
"(  c #A7813E",
")  c #AC853D",
"_  c #AF883D",
"`  c #B38C37",
"'  c #B3843F",
"]  c #B58B3D",
"[  c #BA8D3E",
"{  c #BD933C",
"}  c #C1963D",
"|  c #C49A3C",
" . c #CA9E3E",
".. c #CCA03E",
"X. c #D0A33F",
"o. c #B48341",
"O. c #BA8941",
"+. c #C59641",
"@. c #C79841",
"#. c #CD9E42",
"$. c #CFA240",
"%. c #D3A641",
"&. c #D7A942",
"*. c #D8AA42",
"=. c None",
/* pixels */
"=.=.=.=.=.=.=.=.=.=.=.=.=.=.=.=.=.=.=.=.W W W W W W G E W W E W G W W W U c c c c K K K c c =.=.=.=.=.=.=.=.=.=.=.=.=.=.=.=.=.",
"=.=.=.=.=.=.=.=.=.=.=.=.=.=.=.=.=.=.=.=.Q J ' ' ' ' ' ' ' ' ' ' ' ' ' ' H S S S S V c c c c c =.=.=.=.=.=.=.=.=.=.=.=.=.=.=.=.",
"=.=.=.=.=.=.=.=.=.=.=.=.=.=.=.W W Q W W W ' | | | | | | | | | | | | | | | | | | | F c K L c c c =.=.=.=.=.=.=.=.=.=.=.=.=.=.=.",
"=.=.=.=.=.=.=.=.=.W W W W W W W ' [ [ [ [ { | | | | | | | } ' [ | | | | | | | | | ] ) ) F c c L =.=.=.=.=.=.=.=.=.=.=.=.=.=.=.",
"=.=.=.=.=.=.=.=.W Q Q Q Q Q J Q ' | | | | | | | | | | | | } W ' | | | | | | | | | | | | [ V L L =.=.=.=.=.=.=.=.=.=.=.=.=.=.=.",
"=.=.=.=.=.Q Q Q Q ! +.| | | | | |  .|  . . . .|  .|  .| | } ! O.|  . .|  .|  .|  .| |  .| { { { I L =.=.=.=.=.=.=.=.=.=.=.=.=.",
"=.=.=.=.=.i i i i i j b j j j b j j j j j j j j b b b b b d i f b j j j j j j j b b b j b b b j r 0 =.=.=.=.=.=.=.=.=.=.=.=.=.",
"=.=.=.K g @                                                                                                   =.=.=.=.=.=.=.=.",
"=.=.  = < t y q f j j j b b p X     4 5 o = k *                     % j ,     * k =   5 4                     =.=.=.=.=.=.=.=.",
"=.=.# @ ; Y Y L O. . .| | | ^ - X   k z & 4 x 2 O                   : | a @   = x 4 * l l + o                 =.=.=.=.=.=.=.=.",
"h B A Z A W Y K _ | | | | | | / w   O = x 4 + l l o                 : { [ ~ %   + 5 x = 2 x 3             =.=.=.=.=.=.=.=.=.=.",
"K Z G G W W Y K _ | | | | | | | m 6 $ + 5 5 2 5 q 3 *             > e } { ` 9 ;   2 k O * k =         : 7 =.=.=.=.=.=.=.=.=.=.",
"c P W W W W Y K _ | | | | | | | | { >     3 v = * v 4           X N | | ' Q Q h .                     s | Q W W =.=.=.=.=.=.=.",
"K I W W W W Y K _ | | | | | | | | | M e . & 2 O o 2 *         1 n ` | | } [ O./ b j j j j j j j j j j ^ | [ [ [ ' W =.=.=.=.=.",
"c I W W W W Y K _ | | | | | | | | | | ^ - $ $ $ $ $ $ $ $ $ $ a  .| | | | | | | |  . .| | | ..| | | | | } | | | ' Q =.=.=.=.=.",
"c P W W W W Y K _ | | | | | | | | | | { / / / / / / / / / / ^ [ | | | | | | | | | | | | | | | | | { Q Q ! } | | | { Q W =.=.=.",
"c I W W W W Y c _ | O.O.{ { _ | | | | | | | | | | | | | | | | | | | { | | | | | | | | | | | | | | { ' _ ' | | | | } Q W =.=.=.",
"c I W W W W Y L _ { o.( ( c c | | | | | | | | | | | | | | | | | | | | | | | | { { | | | | | | | | | | | | | { | | | Q Q =.=.=.",
"c I W Q W W T c U ( ` O.O.T c | | | | | | | | | | | | | | | | | | | | | | | | ~ 7 1 6 6 6 6 6 8 / | | | | | | | | | { ' Q =.=.",
"c I W W W W T L c c { | { T c | | | | | | } } | | | | | | | } | | | | | | | | ~ % o   o     . % ^ | | | | | | | | | | [ W =.=.",
"c I E W W W E E c U { | | S c | | | | | | [ J { | | | | | { J [ | | | | | | | { ` 7         w ` { | | | | | | | | | | [ W =.=.",
"c I W W W W o.R U c | | | c c  .| | | | | { ' { | | | | | } ' [ | | | | | | | | ..j 1 . $ 6 m ..| | | | | | | | | } ' ( W =.=.",
"c I W W W W E ( L U { | | ( c { | | | | | | | | | | | | | | | | | | | | | | | | | | ` - > { ..{ | | | | | | | | | { V C W =.=.",
"c I W W W W E ( U c { |  ._ ) ( ( | | | | | | } | | [ ' { | | | | | | | | | | | | | { u f { { ..| | | | | | | | | { P Z [ ) W ",
"L U E E Q W E E c ( { | | | ` c ( | { { | | | | | | [ J { | | } | | | | | | | | | | { C ( { { | | | | | | | | { { [ C F ..' E ",
"{ o.L R Q W Y L ( { | | | | | { ( c c P { | | | | | } } | | | | | | | | | | | | | ( c O.( c ( | | | | { | | ` c L P ] | %.O.W ",
"| ] S T R R R S O.| | | | | | | ) ( ~ T o.) o.o.' } | | | | | | | | | | _ / _ o.) ( ( _ ` ( ( ( ( o.o.o.( ( ( ( S F | X.*.O.W ",
"| | { D c h D | | | | | | | | | | O.| { c c c h C } | | } | | | | | | | ( x j c c ( | | { { ( c B h c c c c ( O.| | &.&.*.O.W ",
"| { ' ) o.) ] | | | | | | | | ...... .{ ) ) ( ) ( S S S D S S S ( ( C ( ( _ ) _ ( { X.X.X.%.{ ) ) ) ) o.( ) O.%.%.X.&.#.O.o.=.",
"| { W [ O.$.| | | | | | | |  .&.&.&. . .......| { V V V V B V V c c c c (  .| | | X.*.*.&.&.X.| |  .| | | | ..*.&.&.&.@.W =.=.",
"| [ W Q o.| | | | | |  .&.&.&.&.&.&.&.&.%.%.%.&...{ { { { ` { { { { { { | %.X.*.X.*.*.*.&.&.&.%.&.&.%.&.%.%.&.*.&.&.&.@.W =.=.",
"| { ' T o.{ | | | |  .X.&.&.&.&.&.&.&.&.*.*.*.*.%................. . . .X.*.*.*.*.*.*.*.&.&.&.&.&.&.*.*.*.&.&.&.%.X.%.@.W =.=.",
"| | | o.J } | | | | &.&.&.&.&.&.&.&.&.&.&.&.&.&.&.&.&.&.*.%.*.*.%.&.&.&.%.*.*.%.&.&.&.&.&.&.&.&.*.*.*.*.*.*.&.&.#.| | | =.=.=.",
"| | } ) Q } | | |  .%.&.&.&.&.&.&.&.&.&.&.&.&.&.&.&.&.&.*.*.*.*.&.&.&.&.*.*.*.*.&.&.&.&.*.&.&.*.*.*.%.+.O.| | O.o.' ' J =.=.=.",
"| | | ' J { | | |  .%.&.&.&.&.&.&.&.&.&.&.&.&.&.&.&.&.&.*.*.*.*.&.&.&.&.*.*.*.*.&.&.&.%.%.%.%.%.%.*.%.[ ! } [ Q J G J J =.=.=.",
"| | } ' G J ' | | | &.&.&.&.&.&.&.&.&.&.&.&.&.&.&.&.&.&.%.*.*.%.&.&.&.&.*.%.*.*.&.&.%.o.W ! Q ! | | | | } | | } } } } | | | | ",
"| | } [ ' G J [ } | %.%.&.&.&.&.*.*.*.%.&.&.&.&.&.&.*.*.*.%.*.*.&.&.*.%.*.*.*.*.&.%.X.' ! o.' ' } | } | | | | | | | | | | | | ",
"| | | | } G W Q [ | |  .&.&.&.&.*.*.*.*.&.&.&.&.&.&.*.*.*.*.*.*.&.&.*.*.*.*.*.*.&. .| | @.| | | | | | | | | | | | | | | } | | ",
"| | | | | [ [ [ ' ' ' ' O.O.O.O.O.O.|  . . . . .#. . . . . . . .#. . . .|  . . . . .| | | | | | | | | | | | | | | | | | | | | ",
"| | | | | | | | ' W W W E W W W E E } | | | | | | | | | | | | | | | | | | | | | | | | | | | | | | | | } | | | | | | | | | | | "
};
