/* XPM */
static char *frame_020_png[] = {
/* columns rows colors chars-per-pixel */
"63 40 120 2 ",
"   c #010100",
".  c #090703",
"X  c #0C0904",
"o  c #070708",
"O  c #070808",
"+  c #0B0B0B",
"@  c #120E06",
"#  c #140E08",
"$  c #161206",
"%  c #1B1509",
"&  c #0F0F10",
"*  c gray7",
"=  c #1B1B1B",
"-  c #231B0B",
";  c #201810",
":  c #2B1E10",
">  c #2D230E",
",  c #352A10",
"<  c #3A2D12",
"1  c #352719",
"2  c #3E3113",
"3  c #232424",
"4  c #2C2C2C",
"5  c gray20",
"6  c #3A3A3A",
"7  c #443515",
"8  c #473816",
"9  c #4B3B17",
"0  c #48341A",
"q  c #563F1F",
"w  c #493624",
"e  c #523E29",
"r  c #56431A",
"t  c #59461B",
"y  c #5D491C",
"u  c #634D1E",
"i  c #66501F",
"p  c #5A4429",
"a  c #674827",
"s  c #634729",
"d  c #654C2C",
"f  c #6D4C29",
"g  c #6B5421",
"h  c #6F5822",
"j  c #735B23",
"k  c #795E26",
"l  c #72552B",
"z  c #78562D",
"x  c #765828",
"c  c #7C5E29",
"v  c #6E5237",
"b  c #7E5830",
"n  c #7E6327",
"m  c gray26",
"M  c gray29",
"N  c #505050",
"B  c #5B5B5B",
"V  c #7F5F40",
"C  c #646464",
"Z  c #806527",
"A  c #836728",
"S  c #88662E",
"D  c #866929",
"F  c #8A6C2B",
"G  c #8F702C",
"H  c #93742D",
"J  c #9A792F",
"K  c #87633D",
"L  c #88673F",
"P  c #8B693F",
"I  c #936A35",
"U  c #926C3D",
"Y  c #9A6C3A",
"T  c #9A7631",
"R  c #9D7B30",
"E  c #96733F",
"W  c #9E793E",
"Q  c #A17F31",
"!  c #A8763F",
"~  c #A37D3D",
"^  c #AD7D3F",
"/  c #805F40",
"(  c #846340",
")  c #8C6640",
"_  c #8E6840",
"`  c #916B40",
"'  c #996E40",
"]  c #977340",
"[  c #9B7040",
"{  c #A57540",
"}  c #A97740",
"|  c #AC7A40",
" . c #B07E41",
".. c #A58132",
"X. c #AA8634",
"o. c #AD8835",
"O. c #A7813E",
"+. c #AC853D",
"@. c #AF883D",
"#. c #B38C37",
"$. c #B3843F",
"%. c #B58B3D",
"&. c #BA8D3D",
"*. c #B79038",
"=. c #BD933C",
"-. c #C1963C",
";. c #C49A3C",
":. c #C99E3D",
">. c #CCA13F",
",. c #D0A33F",
"<. c #B38240",
"1. c #B98941",
"2. c #C79841",
"3. c #CD9E42",
"4. c #CFA340",
"5. c #D3A641",
"6. c #D7A942",
"7. c #D9AA43",
"8. c #E2B245",
"9. c None",
/* pixels */
"9.9.9.9.9.9.9.9.9.9.9.9.9.9.9.9.9.9.9.9.} } } } } } } } } } } } ! ! ! ! ` V / / V V / / V V 9.9.9.9.9.9.9.9.9.9.9.9.9.9.9.9.9.",
"9.9.9.9.9.9.9.9.9.9.9.9.9.9.9.9.9.9.9.9.} | $.$.$.^ $.$.$.$.$.$.$.$.$.$.~ E E E E P V V V V V 9.9.9.9.9.9.9.9.9.9.9.9.9.9.9.9.",
"9.9.9.9.9.9.9.9.9.9.9.9.9.9.9.} } | } } } %.;.;.;.;.;.-.;.;.-.;.-.;.;.;.;.;.-.;.;.W V / V ( V V 9.9.9.9.9.9.9.9.9.9.9.9.9.9.9.",
"9.9.9.9.9.9.9.9.9.} } } } } } } <.&.&.&.&.=.;.;.;.;.;.;.;.-.$.&.;.;.;.;.;.;.;.;.;.%.+.+.W V V V 9.9.9.9.9.9.9.9.9.9.9.9.9.9.9.",
"9.9.9.9.9.9.9.9.} } |  .| | ^ | %.;.;.;.;.;.;.;.;.;.;.;.;.-.} $.;.;.;.;.;.;.;.;.;.;.;.;.%.L ( ) 9.9.9.9.9.9.9.9.9.9.9.9.9.9.9.",
"9.9.9.9.9.| | | }  .-.;.;.-.;.;.;.;.:.:.:.;.:.:.:.;.:.;.;.-. .1.:.:.:.:.:.;.:.:.:.:.:.:.;.-.=.=._ ( 9.9.9.9.9.9.9.9.9.9.9.9.9.",
"9.9.9.9.9.f f f f l n Z Z n n n Z Z Z n n Z n n Z Z Z Z Z c f x n n n n n n n n n n n Z n Z Z n p w 9.9.9.9.9.9.9.9.9.9.9.9.9.",
"9.9.9./ v #                                                                                                   9.9.9.9.9.9.9.9.",
"9.9.  ; 1 a s e l n n n n Z i .     5 6 o = m *                     % n <     * m =   6 5                     9.9.9.9.9.9.9.9.",
"9.9.# # : Y ' ( %.:.:.:.;.;.o.> X   m N * 5 B 3 O                   > ;.h @   = B 5 * M M + o                 9.9.9.9.9.9.9.9.",
"/ K U I Y } ' / +.;.;.;.;.;.;.#.u   O = B 5 + M M o                 > =.*.Q -   + 6 B = 3 B 4             9.9.9.9.9.9.9.9.9.9.",
"/ _ } } } } ' / +.;.;.;.;.;.;.;.G 7 @ + m 5 3 6 e 4 *             , u -.-.%.q :   3 m O * m =         > 9 9.9.9.9.9.9.9.9.9.9.",
"V _ } } } } ' / @.;.;.;.;.;.;.;.;.=.,     4 C = * C 5           X J ;.;.%.| } b .                     j ;.| } } 9.9.9.9.9.9.9.",
"V _ } } } } ' / @.;.;.;.;.;.;.;.;.;.H i . & 3 O o 3 *         2 D #.;.;.-.&.1.X.Z n n Z n n n n n n n X.;.=.&.&.$.} 9.9.9.9.9.",
"V _ } } } } ' / @.;.;.;.;.;.;.;.;.;.:...- $ $ $ # $ $ $ % # # j :.;.;.;.-.;.;.;.:.;.:.:.>.;.;.>.:.;.-.;.-.;.;.;.%.} 9.9.9.9.9.",
"V _ } } } } ' / +.;.;.;.;.;.;.;.;.;.;.;.o.o.o.o.o.o.o.o.o.o.X.*.;.;.;.;.;.;.;.;.;.;.;.;.;.;.;.;.;.=.| | | -.;.;.-.=.| } 9.9.9.",
"V _ } } } } [ V <.;.*.1.=.+.+.;.;.;.;.;.;.;.;.;.:.;.;.;.;.;.;.;.;.;.;.;.;.;.;.;.;.;.;.;.;.;.;.;.;.=.$.+.$.=.;.;.;.-.^ } 9.9.9.",
"V _ } } } } ] V <.-.O.O.O.] V ;.;.;.;.;.;.;.;.;.;.;.;.;.;.;.;.;.;.;.;.;.;.;.;.*.=.;.;.;.;.;.;.=.;.;.;.;.;.;.;.;.;.-.| } 9.9.9.",
"V _ } } } } [ V V O.1.1.1.` P ;.;.;.-.;.;.;.;.;.;.;.;.;.;.;.;.;.;.;.;.;.;.;.;...8 7 2 8 8 7 2 r o.;.;.;.;.;.;.;.;.;.&.%.} 9.9.",
"V _ } } } } ] ( V V =.;.-.] V =.;.;.;.;.;.-.-.-.;.;.;.;.;.;.-.;.=.;.;.;.;.;.;...$ . . .     . - ..:.;.;.;.;.;.;.;.;.:.&.} 9.9.",
"V _ } } } | } [ ] V ;.:.;.O.V =.;.;.;.;.;.%.^ =.;.;.;.;.;.=.^ %.;.;.;.;.;.;.;.=.#.r         u o.-.;.;.;.;.;.;.;.;.;.;.&.| 9.9.",
"V _ } } } } } } V ` -.;.;.V V =.;.;.;.;.;.&.$.=.;.;.;.;.;.=.$.&.;.;.;.;.;.;.;.;.;.n 2 X $ 7 G >.;.;.;.;.=.;.;.;.;.-.%.O.} 9.9.",
"V _ } } } } ] <.V ` -.;.;.O.V =.;.;.;.;.;.;.;.;.;.;.;.;.;.;.;.;.;.;.;.;.;.;.;.;.;.;.#.- , =.>.=.;.;.;.;.;.;.;.;.:.=.K _ { 9.9.",
"V _ } } } } | O.` n =.;.;.*.+.O.O.;.;.;.;.;.;.;.;.-.&.$.-.;.;.;.;.;.;.;.;.;.;.;.;.;.*.d l =.=.>.;.;.;.;.;.;.;.;.:.=.( ` &.$.} ",
") ` { { | { { { ` ` =.;.;.;.*.V O.;.=.*.;.;.;.;.;.;.%.^ -.;.;.;.;.;.;.;.;.;.;.;.;.;.*.] ] =.=.;.;.;.;.;.;.=.;.=.=.*._ ] >.%.{ ",
"1.<.V ] | | ] V O.=.;.;.;.;.;.=.O.V V ` =.;.;.;.;.;.;.-.-.;.;.;.;.;.;.;.;.;.;.;.;.O.V <.@.V +.=.;.;.;.;.;.>.@.L ( ) %.2.5.1.| ",
";.1.] ] [ [ ] ] 1.;.;.;.;.;.;.;.+.] O.] +.+.<.<.#.-.;.;.;.;.;.;.;.;.;.;.1.O.O.+.<.O.O.*.=.] O.O.+.<.<.+.+.O.O.E E W ;.,.6.1.{ ",
";.;.;.] V ( ] 2.;.;.;.;.;.;.;.;.;.;.;.=.V V V b P -.;.;.;.-.;.;.;.;.;.;.O.V V V V O.;.;.;.;.O.V b V V V V V E ;.;.:.5.6.6.1.{ ",
";.=.<.+.<.+.*.;.;.;.;.;.;.;.;.4.4.4.;.-.+.+.O.O.O.E E E Y E E E O.O.V O.O.+.+.<.O.=.4.4.,.4.=.+.+.O.+.+.+.+.*.4.5.>.6.3.1.<.9.",
";.&.| %.=.;.;.;.;.;.;.;.;.;.>.6.6.6.>.;.;.>.>.>.*.L L L K ( ( ) V V V V O.:.:.;.;.4.6.7.7.6.4.;.>.;.>.>.>.;.4.6.7.6.7.2.} 9.9.",
";.&.} | <.=.;.;.;.;.;.>.5.6.6.6.6.6.6.5.5.6.5.6.4.1.=.=.=.=.=.=.=.=.=.=.;.5.6.5.5.6.7.6.6.6.6.5.5.5.6.5.6.5.5.6.7.6.6.2.} 9.9.",
";.=.+.| <.=.>.=.;.;.>.5.6.6.6.6.6.6.6.6.6.7.6.7.4...=.>.>.>.>.>.>.>.:.>.5.6.6.6.7.;.o.6.6.6.7.6.7.7.6.6.6.6.6.6.5.>.5.2.| 9.9.",
";.;.;.<. .-.-.;.o.g g c >.7.6.7.7.7.6.6.6.6.7.7.>.9 *.7.7.7.,.,.7.7.7.>.G ,.,.,.8.J y 7.7.7.7.7.7.H ;.6.6.6.6.6.:.-.;.;.9.9.9.",
";.;.;.$.} -.;.;.G 9 F Z n >.7.5.,.,.7.6.7.:.,.7.,.9 *.7.,.8.,.8.7.,.,.>...>.G ..,.J t >.,.7.6.6.,.J :.Q c -.-.&.$.$.$.$.9.9.9.",
";.;.;.$. .-.-.;.G j 8.5.D k 7.=.u i :.7.:.u h ;.,.9 *.7.,.,.i =.>.A Q ;.i ..- > i G > 8 T 5.5.5.,.h Q < $ 7 S ^ | ^ | ^ 9.9.9.",
"-.;.-.+.} } &.;.G j 6.7.J y ,.t j i i 7.,.J u h 5.9 *.7.,.>.9 F i i F =.9 ;.r n ;.J 9 I 0 I  .^ =.8 Q k q X.*.-.-.-.-.-.;.;.;.",
";.;.;.&.^ ! ^ -.F j ,.:.n F ,.7 8 q F 7.J u < u ,.9 *.7.7.,.j j i i #.=.9 ,.i H 8.J t %.7 I $.$.=.7 ..D y :.;.;.;.;.;.;.;.;.;.",
";.;.;.;.-.^ !  .S 7 i a F ,.,.F g g J ,.F i 8 u 5.9 *.7.7.7.*.q n j ,.*.9 ,...i Z F r =.8 R ;.;.=.8 ....u u Q ;.;.-.;.;.;.;.;.",
";.;.;.;.-.&.&.&.! f f z %.1.&.$.z a J >.:.D n Q :.J -.:.:.:.;.J X.X.>.=.J ;.>.H F o.R ;.R #.;.;.;.J *.;...n X.;.;.;.;.;.;.;.;.",
";.;.;.;.;.;.;.;.$.^ | } } } } | } ^ -.;.;.:.;.;.;.;.;.;.;.;.;.;.;.;.;.;.>.;.;.;.;.;.:.;.;.;.;.;.;.:.;.;.;.:.;.;.;.;.;.;.;.;.;."
};
