/* XPM */
static char *frame_010_png[] = {
/* columns rows colors chars-per-pixel */
"63 40 122 2 ",
"   c #010100",
".  c #090603",
"X  c #0B0805",
"o  c #070809",
"O  c #0C0C0D",
"+  c #120E05",
"@  c #140E08",
"#  c #151107",
"$  c #1A1408",
"%  c #1F180E",
"&  c gray8",
"*  c #191919",
"=  c #211A0A",
"-  c #281E0D",
";  c #2C220D",
":  c #302212",
">  c #382613",
",  c #342910",
"<  c #3E3113",
"1  c #242425",
"2  c gray17",
"3  c #343434",
"4  c #393939",
"5  c #453615",
"6  c #4A3A16",
"7  c #4E3D18",
"8  c #523B1E",
"9  c #563D21",
"0  c #54431C",
"q  c #5B471C",
"w  c #624D1E",
"e  c #664826",
"r  c #654C2C",
"t  c #695220",
"y  c #735A23",
"u  c #70562E",
"i  c #6F5238",
"p  c #76583C",
"a  c #7E5D3E",
"s  c #464341",
"d  c #4C4C4C",
"f  c gray32",
"g  c #5F5F5F",
"h  c #6F5E47",
"j  c #765A40",
"k  c #7E5F40",
"l  c #766642",
"z  c #7C6046",
"x  c #626262",
"c  c #6F6C69",
"v  c #8C6B2E",
"b  c #8F702C",
"n  c #94752D",
"m  c #98782F",
"M  c #84643C",
"N  c #88673F",
"B  c #8B693F",
"V  c #916E3F",
"C  c #9F7D31",
"Z  c #96733F",
"A  c #99753F",
"S  c #9D783E",
"D  c #A7743C",
"F  c #A37D3D",
"G  c #AD7C3F",
"H  c #846340",
"J  c #8C6640",
"K  c #8D6840",
"L  c #916B40",
"P  c #996E40",
"I  c #977340",
"U  c #9C7340",
"Y  c #866A50",
"T  c #8D7156",
"R  c #87765D",
"E  c #A57541",
"W  c #A97740",
"Q  c #AC7A40",
"!  c #B07F40",
"~  c #A58132",
"^  c #AF8A36",
"/  c #A7813E",
"(  c #AC853D",
")  c #AF883D",
"_  c #B28C37",
"`  c #B3843E",
"'  c #B58C3D",
"]  c #BA8D3D",
"[  c #BD933C",
"{  c #C1963C",
"}  c #C49A3C",
"|  c #CA9F3E",
" . c #CCA03E",
".. c #D0A33F",
"X. c #B48341",
"o. c #B98941",
"O. c #BC976F",
"+. c #C59641",
"@. c #C79841",
"#. c #CD9E42",
"$. c #CFA240",
"%. c #CEA44A",
"&. c #D3A641",
"*. c #D7A942",
"=. c #D8AA42",
"-. c #D9AD48",
";. c #CCA653",
":. c #C5A35C",
">. c #C29C61",
",. c #CAA771",
"<. c #BBB8B8",
"1. c #C8AB8B",
"2. c #CBBB98",
"3. c #EFD8A5",
"4. c #E8D8B3",
"5. c #EBDBB9",
"6. c #EFE0BD",
"7. c #ECE0CA",
"8. c #EBE7E2",
"9. c #EDEAE8",
"0. c #F1EEEB",
"q. c None",
/* pixels */
"q.q.q.q.q.                          & &   O * o                     . - @     o * O   & &                     q.q.q.q.q.q.q.q.",
"q.q.      q.q.q.q.q.q.q.q.q.q.      d f   2 x *                     - F 8     * x 2 o f d                     q.q.q.q.q.q.q.q.",
"q.q.    q.q.q.q.q.q.q.q.q.q.q.9 :   1 4 4 3 3 4 2                   ; { n q + O 3 3 3 3 4 3 &               q.q.q.q.q.q.q.q.q.",
"q.q.q.q.q.q.q.q.q.W W W W W W Q e .   & g 4   d f o .               , [ } [ ;     4 g @ * x 2             q.q.q.q.q.q.q.q.q.q.",
"q.q.q.q.q.q.q.q.W W Q Q G G G G F n -   & 3 f 1 1 f 2           . y F } } { ~ t   o &   . & o           q.q.q.q.q.q.q.q.q.q.q.",
"q.q.q.q.q.W W W D G { { { { { [ } { q =   1 f & O d 2         # , C | } } } | F , ; ; ; ; ; ; ; % @   q.q.q.q.q.q.q.q.q.q.q.q.",
"q.q.q.q.q.W W W G ' } } } } } } } } [ m .                     q { } { ] { } } { [ [ _ [ [ [ [ [ N p q.q.q.q.q.q.q.q.q.q.q.q.q.",
"q.q.q.k H E W W ] } } } } } } } } } } _ t w w w w w w w w w 8 v } } { G _ } } } } } } } [  .[ [ B a q.q.q.q.q.q.q.q.q.q.q.q.q.",
"q.q.k L P W E J ` } } } } } } } } } / A U I I I U U U U S Z K S ` { } ] { } } } } } { ] G A A I H k a q.q.q.q.q.q.q.q.q.q.q.q.",
"q.q.H U W W P H ( } } } } } } } } [ Z K T T T j i i i i Y T J U G [ } } } } } } } } { Q U T z i i j T q.q.q.q.q.q.q.q.q.q.q.q.",
"H K E W W W L k ` } } } } } } } } } [ :.8.0.8.s X X X & <.7.%.} { } } } } } } } } } { G O.0.c . . d 9.1.D q.q.q.q.q.q.q.q.q.q.",
"k K W W W W P H ) } } } } } } } } } } ;.4.6.5.l 6 6 6 0 2.3.-.$.{ } } } { ] ] ] ] { } ' >.5.R > > h 5.,.` q.q.q.q.q.q.q.q.q.q.",
"k J W W W W P a ) } } } } } } } } } } } } $.*.*.*.*.*.*.*.*.*.$.} } } } ' W W W W ] { } } } ` D W ` } } { Q W W q.q.q.q.q.q.q.",
"k J W W W W P k ) } } } } } } } } } } } } [ o.o.o.o.o.o.@. . .} } } } } { ] ] ] ] { } } } } [ ] ] [ } } } [ ] ] ` W q.q.q.q.q.",
"k K W W W W P H ) } } } } } } } } } } } } ] Q Q Q Q W Q [ } } } } } } } } } } } } } } } } } } } } } { { { } } } ` Q q.q.q.q.q.",
"k J W W W W P H ) } } } } } } } } } } } } } [ } [ [ } [ } } } } } } } } } } } } } } } } } } } } } ] Q Q ! { } } } [ Q W q.q.q.",
"H K W W W W P k ) } [ ] ' ) ) } } } } } } } } } } } } } } } } } } } } } } } } } } } } } } } } } } [ ` ` ` } } } } { Q W q.q.q.",
"k K W W W W P k ) [ W W X.K K [ } } } } } } } } } } } } } } } } } } } } } } } } } } [ } } } } } } } } } } } } } } } Q W q.q.q.",
"k K W W W W P H L S ' [ ) B K [ } } } } } } } } } } } } } } } } } } } } [ }  .~ 6 5 5 5 5 5 5 7 ^ } } } } } } } } } [ X.W q.q.",
"k K W W W W P H l H [  .[ Z L [ } } } } } } [ } } } } } } } [ } } } } } } } } n $ .         . = ~ } } } } } } } } } } [ W q.q.",
"k K W W W Q W E B N [ } } I l [ } }  .[  ._ G [ } } } } } [ G ] } } } } } } } [ ^ 6         w _ } } } } } } } } } } } ] W q.q.",
"k J W W W W W W L N [ } [ I K [ } } [  .} [ ` [ } } } } } [ ` ] } } } } } } } }  .y < X + 5 b } } } } } } } } } } } ' / W q.q.",
"k K W W W W W W H B [ } } I B [ } [  .[ } } } } } } } } } } } } } } } } } } } }  .} _ = , [ } } } } } } } } } } } [ H K W q.q.",
"k K W W W W W W K N { } } _ / Z ( } } } } } } } } } [ ` [ } } } } } } } } } } } } } [ r u } } } } } } } } } } } } [ H L ' X.W ",
"M L E W W W W E B V [  .[  .[ v S [ [ [ } } } } } } ' Q [ } } } [  .[ } [ } } } } [ ' Z Z [ } } } } } } } } } [ [ ] B U  .' W ",
"[ G H P W W P H / [  .[  .[ [ [ / J M B } } } } } } } { } } } }  .[  .} }  .} }  ./ M ' ( N ( } } } } } } } _ N H K ' } *.o.D ",
"} ' A I P P Z A _  .} } [ } } } ) Z A S ( ( ( ( ' } } } } } } } [  .[  ._ ( ( ( ( S A [ ' A F ( ( ( ( ( ( ( F A I S } ..*.o.E ",
"} } } Z H k A } } } } }  .} } }  .[ } ] M k k z B [ } } } } } }  .[  .[ ~ l k k k / } } } } S z H k k z k k Z } } } &.*.*.o.E ",
"} [ ` ` / ( ' } } } [ } [  . . . ... .[ ) ( ( ( / A A I Z A A A S Z Z S S / ( ( ( [ *. . ...[ ( ( ( ( ( / / ]  .&...*.#.o.X.q.",
"} ] W ] } } } } } }  .}  .[  .*.*.*. . .} } }  .[ K H H H H N H H M H H /  . .} } ..*.*.*.*. . .} } | } | |  .=.=.=.*.@.W q.q.",
"} ] W Q G { } } } }  . .....*.*.*.*.&.&.&.*.*.&.$.[ [ [ [ [ [ [ [ [ [ [  ...*.*.*.*.*.*.*.*.*.*.*.*.&.*.*.*.*.*.=.=.=.@.W q.q.",
"} [ ` Q Q { } } } [  ...=.=.*.*.*.*.*.*.*.*.*.*.*.$.| | | | | |  . . . ...*.*.*.*.*.*.*.*.*.*.*.*.*.*.*.*.*.=.*.&. .&.@.W q.q.",
"} } } ` Q } } } } } *.=.*.*.*.*.*.=.*.*.*.*.*.*.*.*.*.*.*.*.*.*.*.*.*.*.*.*.=.*.*.*.=.=.=.*.*.*.*.*.*.*.*.*.*.*.#.} } } q.q.q.",
"} } } G Q { } } } | &.*.*.*.*.*.*.*.*.*.*.*.*.*.=.*.*.*.*.*.*.*.*.*.*.*.*.*.*.*.*.*.=.=.=.=.=.*.=.=.=.+.o.} } o.` ` ` ` q.q.q.",
"} } } ` Q { { } } | &.*.*.*.*.*.*.*.*.*.*.*.*.*.*.*.*.*.*.*.*.=.*.*.*.*.*.*.*.*.*.*.*.&.#.&.#.&.&.*.*.o.Q { ] Q Q Q Q Q q.q.q.",
"} } } ` D G ` | } } *.*.*.*.=.*.*.*.*.*.*.*.*.*.*.*.*.*.*.*.*.*.=.*.*.*.*.*.*.*.*.=.&.X.! Q ! ! { } | { } } } { { { { { } } } ",
"} } } ] G W G ] { } ..&.*.*.*.*.*.*.*.*.=.=.=.=.*.*.*.*.*.*.*.*.*.*.*.*.*.*.*.*.=.&.&.` ! X.X.` { } } } } } } } } } } } } } } ",
"} } } } { G W Q ] } } | *.*.*.*.=.=.*.*.=.=.&.=.*.*.*.=.*.*.*.*.*.*.*.*.*.*.*.=.=.| } } } } } } } } } } } } } } } } } } } } } ",
"} } } } { ] ] ] ` ` ` X.o.o.o.o.o.o.} | | | | | | | | | | | | | | | | | | | | | | } } } } } } } } } } } } } } } } } } } } } } ",
"} } } } } } } } ` W W W W E W W W W ] } } } } } } } } } } } } } } } } } } } } } } } } } } } } } } } } } } } } } } } } } } } } "
};
