/* XPM */
static char *frame_018_png[] = {
/* columns rows colors chars-per-pixel */
"63 40 103 2 ",
"   c #010101",
".  c #090702",
"X  c #0C0C0C",
"o  c #130E06",
"O  c #160F09",
"+  c #181307",
"@  c #1B1509",
"#  c #1F1809",
"$  c #0F1010",
"%  c #161617",
"&  c #1B1C1C",
"*  c #221A0B",
"=  c #281C0F",
"-  c #2B220E",
";  c #31260F",
":  c #342910",
">  c #322519",
",  c #3E3113",
"<  c gray14",
"1  c #2C2C2C",
"2  c gray20",
"3  c gray22",
"4  c #453615",
"5  c #4B3B17",
"6  c #513C1C",
"7  c #423120",
"8  c #543B20",
"9  c #534119",
"0  c #5B441F",
"q  c #5F481F",
"w  c #624D1E",
"e  c #58412B",
"r  c #644A23",
"t  c #654C2C",
"y  c #685220",
"u  c #70562E",
"i  c #684E31",
"p  c #795732",
"a  c #7E5930",
"s  c #7E6327",
"d  c #444444",
"f  c gray30",
"g  c #535353",
"h  c #7F5F40",
"j  c #626262",
"k  c #835C31",
"l  c #83642B",
"z  c #846828",
"x  c #8C6E2F",
"c  c #8E702C",
"v  c #94732F",
"b  c #98772E",
"n  c #98782F",
"m  c #866131",
"M  c #896034",
"N  c #8E6A30",
"B  c #88673F",
"V  c #8B693F",
"C  c #906D30",
"Z  c #926D3E",
"A  c #9A6D3A",
"S  c #9D7C30",
"D  c #96733F",
"F  c #99743F",
"G  c #9E793E",
"H  c #A6753E",
"J  c #AD7D3F",
"K  c #805F40",
"L  c #846340",
"P  c #8C6640",
"I  c #8D6840",
"U  c #916B40",
"Y  c #996E40",
"T  c #977340",
"R  c #9B7040",
"E  c #A57540",
"W  c #A97740",
"Q  c #AC7A40",
"!  c #B07F40",
"~  c #A68233",
"^  c #AF8935",
"/  c #A7813E",
"(  c #AC853D",
")  c #AF883D",
"_  c #B28B36",
"`  c #B3843F",
"'  c #B58C3D",
"]  c #BA8D3E",
"[  c #BD933C",
"{  c #C1963D",
"}  c #C49A3C",
"|  c #CA9F3E",
" . c #CCA03E",
".. c #D0A33F",
"X. c #B48341",
"o. c #BA8941",
"O. c #C79841",
"+. c #CD9E42",
"@. c #CFA240",
"#. c #D3A641",
"$. c #D7A942",
"%. c #D8AA42",
"&. c None",
/* pixels */
"&.&.&.&.&.&.&.&.&.&.&.&.&.&.&.&.&.&.&.&.W W W W W W E W W W W W E W W W U h h h h h h h h h &.&.&.&.&.&.&.&.&.&.&.&.&.&.&.&.&.",
"&.&.&.&.&.&.&.&.&.&.&.&.&.&.&.&.&.&.&.&.W Q ` ` ` ` ` ` ` ` ` ` ` ` ` ` H F D D D B h h h h h &.&.&.&.&.&.&.&.&.&.&.&.&.&.&.&.",
"&.&.&.&.&.&.&.&.&.&.&.&.&.&.&.W W W W W E ` } } } } } } } } { } } } } } } } } } | G h h L h h h &.&.&.&.&.&.&.&.&.&.&.&.&.&.&.",
"&.&.&.&.&.&.&.&.&.W W W W W W W ` ] ] ] ] [ } } } } } } } { ` ] } } } } } } } } { ' ( ) T h h h &.&.&.&.&.&.&.&.&.&.&.&.&.&.&.",
"&.&.&.&.&.&.&.&.J W Q ! ! ! ( J ] } | } | } } | } | } | | { W ] | } | } } | } | } | }  .' V I I &.&.&.&.&.&.&.&.&.&.&.&.&.&.&.",
"&.&.&.&.&.a a a k k v v v v v v n n n b n b b S b b b b b v k N b b b b b b b b b b b b b v c x i e &.&.&.&.&.&.&.&.&.&.&.&.&.",
"&.&.&.&.&.. . .   . . . . . . . . . . . . . . . . . . . . . . . . . . . . . . . . . . . . . . . . .           &.&.&.&.&.&.&.&.",
"&.&.  > 7 8 8 8 q q q w w w 9 .     < 1   % 2 X                     o 6 =     X 2 %   1 <                     &.&.&.&.&.&.&.&.",
"&.&..   * A E I o.| } | | | ~ @ .   f g X 1 j &                     - _ r .   & j 1 X g f .                   &.&.&.&.&.&.&.&.",
"&.&.i p k E Y h ) } } } } } [ n 9   X < f 3 & d d                   - [ ^ x @   % 3 f < < g <             &.&.&.&.&.&.&.&.&.&.",
"K I E W Q W Y K ) } } } { } } | z - . X f 3 % d d & X             # 9 [ } [ 5 *   1 f $ % f <         O = &.&.&.&.&.&.&.&.&.&.",
"h I W W W W Y K ) } } } { } } } } _ ;     2 j & % j 3           . v [ } { ] ' l                       r ` &.&.&.&.&.&.&.&.&.&.",
"h I W W W W Y K ) } } } } } } } } } s 5 . % 2 X X 1 &         - y ^ } } ` H J C 8 e y w q w 0 6 6 8 w n } Q W W &.&.&.&.&.&.&.",
"h I W W W W Y K ) } } } { } } } } } | ~ O .   . . . . . . . . y | } } } { ] ] ] o.O. .}  .} [ [ o.{ | } } [ ] ] ` W &.&.&.&.&.",
"h I W W W W Y K ) } } } } } } } } } } [ S N m M k m M m v n b ^ } } } } } } } } } } } } } } } } | } { { { } } } ` Q &.&.&.&.&.",
"h I W W W Q Y K ) } } } } } } } } } { { | } { { } { { } } } | } } } } } } } } } } } } } } } } } } [ J W Q { } } } [ Q W &.&.&.",
"h I W W W W Y h ( [ ' ' [ ' ) } } } } } } } } } } } } } } } } } } } } } } } } } } } } } } } } } } [ ` ` ' [ } } } { Q W &.&.&.",
"h I W W W W Y L ) [ X.X./ I h [ } } } } } } } } } } } } } } } } } } } } } } } _ } } } } } } { } } } } } } } } } } { Q W &.&.&.",
"h I W W W W R h U / ' ' o.I I } } } } } } } } } } } { } } } } } } } } } } } } ~ 4 4 , 4 4 4 , 9 ^ } } } } } } } } } ] ' W &.&.",
"h I W W W W T P h h [ } } T h } } } } } } { { { } } } } } } [ } } } } } } } } ~ + . . .     . # ~ } } } } { } { } } } [ W &.&.",
"h I W W W W W T L I [ } } T h } } } } } } ] J [ } } } } } [ J ] } } } } } } } [ _ 9         q ^ { } } } } } } } } } } ] W &.&.",
"h I W W W W W W U L } } [ T h } } { } } { [ ` [ } } } } } [ ` ] } } } } } } } } } s , . o 4 c  .} } } } } } } } } { ` ( W &.&.",
"h I W W W W W T U L [ } } T h [ } } } } } } } } } } } } } } } } } } } } } } } } } } _ # : [  .} } } } } } } } { } [ B V E &.&.",
"h U W W W W W X.I L [ } } _ ( / ( } } } } } } } } } [ ` [ } } } } } } } } } } } } } } t u [ } } } } } } } } } { | [ P Z ] ` W ",
"L U E W W W W E T I [ } } } [ h / } [ [ } } } } } } ] J [ } } } } } } } } } } } } [ o.T / [ [ } } } } } } } } [ [ ' V G | ` W ",
"[ / L R W W Y L ( o.} } } } } [ / h h I [ } } } } } { { } } } } } } } } } } } } } / h ) / a ( [ } } } } } } ' h L I ' | $.o.E ",
"| ' D F Y Y A T _ } } } } } } } ( T T / ( ( X.X.^ { } } } } } { } } } } ) / ( ( ) / / o.o./ / / ) X.X.( ( ( / D D G } ..$.o.E ",
"{ } } D h L T } } } } } } } } } } } } [ h h L p V { } } } } } } } } } } / h h h h / } } { [ / h p L h h h h D } } } $.$.$.o.H ",
"} [ ` ) ( ( ' } } } } } } } } @.@.@.| } ( ( / ( / D D D D D D D / / h / / ( ) ) / [ ........[ ( ( ( ( ( ( / ' #.#...$.+.o.X.&.",
"} ] E ] } } } } } } } } } }  .$.#.$.@.} | } }  .[ B B B B B B B h h h h / } } } } ..%.%.$.$. . . .}  .}  .}  .%.$.$.$.O.W &.&.",
"} ] W Q Q { } } } } } @.$.#.#.%.$.$.#.#.#.$.$.$. .[ [ [ [ [ ] [ [ [ [ [ | #.#.%.#.#.%.%.$.$.$.#.#.$.$.#.$.#.$.$.$.$.$.O.W &.&.",
"} [ ` Q Q { } } } } | @.%.%.$.$.$.$.$.$.$.$.$.$.$. . . .}  .| |  . .|  ...%.%.%.%.$.%.%.$.$.$.$.$.$.$.$.$.$.$.$.#...#.O.W &.&.",
"} } } ` J { } } { | $.$.$.$.$.$.$.$.$.$.$.$.$.$.$.$.$.$.$.$.$.$.$.$.$.$.$.$.$.$.$.$.%.%.$.$.$.$.$.$.$.$.$.$.$.$.| } } } &.&.&.",
"} } } ` J { } } } } #.$.$.$.$.$.$.$.$.$.$.$.$.$.$.$.$.$.$.$.$.$.$.$.$.$.$.$.$.$.$.$.%.%.%.$.$.%.$.$.$.O.o.| { o.X.` ` ` &.&.&.",
"} } { ` J { { } } | #.$.$.$.$.$.$.$.$.$.$.$.$.$.$.$.$.$.$.$.$.$.$.$.$.$.$.$.$.$.%.$.$.#.+.#.#.#.#.#.$.[ Q { ] J Q J Q J &.&.&.",
"} } } ` H J ` | } } $.$.$.$.$.$.$.$.$.$.$.$.$.$.$.$.$.$.$.$.$.$.$.$.$.$.$.$.$.$.$.%.#.X.! Q Q ! } } } { { } } { { { { { } } } ",
"} } { ] ` H J ] { } ..#.$.$.$.$.$.$.$.$.$.$.$.$.$.$.$.$.$.$.$.$.$.$.$.$.$.$.$.$.$.#.+.] X.X.X.` { } } } } } } } } } } } { } { ",
"{ } } } { J H J ] } } | $.$.$.$.$.$.$.$.$.$.$.$.$.$.$.$.$.$.$.$.$.$.$.$.$.$.$.$.$. .{ { { } } } } } } } { } } } } } } } } } } ",
"} } } } { ] ] ] ` ` ` X.o.o.o.o.o.o.}  .| | |  . .| | | | |  .| | |  .| | | | |  .| } } } } } } } { } } } } } } } } } } } } } ",
"} } } } } } } } ` W W W W W W H W W ] } } } } } } } } } } } } } } } } } } } } } { } } } } } } } } } } } } } } } } } } } } } } "
};
