/* XPM */
static char *frame_001_png[] = {
/* columns rows colors chars-per-pixel */
"63 40 97 2 ",
"   c #010100",
".  c #080603",
"X  c #0B0805",
"o  c #120E06",
"O  c #1A1408",
"+  c #151210",
"@  c #221A0A",
"#  c #382613",
"$  c #342910",
"%  c #3E3113",
"&  c #453615",
"*  c #4A3A16",
"=  c #4E3D18",
"-  c #52421E",
";  c #614C1E",
":  c #70562E",
">  c #6F5238",
",  c #70543A",
"<  c #7E5D3E",
"1  c #464341",
"2  c #504D4A",
"3  c #6F5E47",
"4  c #765A40",
"5  c #7E5F40",
"6  c #766642",
"7  c #7C6046",
"8  c #6F6C69",
"9  c #8F702C",
"0  c #97772E",
"q  c #88673F",
"w  c #8B693F",
"e  c #916E3F",
"r  c #96733E",
"t  c #98743F",
"y  c #9D793E",
"u  c #A3743E",
"i  c #A37D3E",
"p  c #AD7C3F",
"a  c #805F40",
"s  c #846340",
"d  c #8C6640",
"f  c #8E6840",
"g  c #926B40",
"h  c #996E40",
"j  c #977340",
"k  c #9C7040",
"l  c #866A50",
"z  c #8D6F52",
"x  c #8D7156",
"c  c #87765D",
"v  c #A57541",
"b  c #A97740",
"n  c #AB7A40",
"m  c #B07F40",
"M  c #A58233",
"N  c #AF8A36",
"B  c #A7813E",
"V  c #AC853D",
"C  c #AF883D",
"Z  c #B28B36",
"A  c #B3843E",
"S  c #B58B3D",
"D  c #BA8D3D",
"F  c #BD933D",
"G  c #C1963C",
"H  c #C49A3C",
"J  c #CA9F3E",
"K  c #CCA03E",
"L  c #D0A33F",
"P  c #B48341",
"I  c #B98941",
"U  c #BC976F",
"Y  c #C59641",
"T  c #C79841",
"R  c #CD9E42",
"E  c #CFA240",
"W  c #CEA44A",
"Q  c #D3A641",
"!  c #D7A942",
"~  c #D8AA42",
"^  c #D9AD48",
"/  c #CCA653",
"(  c #C5A35C",
")  c #C29C61",
"_  c #CAA771",
"`  c #BBB8B8",
"'  c #C8AB8B",
"]  c #CBBB98",
"[  c #EFD8A5",
"{  c #E8D8B3",
"}  c #EBDBB9",
"|  c #EFE0BD",
" . c #ECE0CA",
".. c #EBE7E2",
"X. c #EDEAE8",
"o. c #F1EEEB",
"O. c None",
/* pixels */
"O.O.O.O.O.O.O.O.O.O.O.O.O.O.O.O.O.O.O.O.b b b b b b b b b b b b u u b b h 5 5 5 5 5 5 5 5 5 O.O.O.O.O.O.O.O.O.O.O.O.O.O.O.O.O.",
"O.O.O.O.O.O.O.O.O.O.O.O.O.O.O.O.O.O.O.O.b p A A A A A A A A A A A A A A u r r t r d 5 5 5 5 5 O.O.O.O.O.O.O.O.O.O.O.O.O.O.O.O.",
"O.O.O.O.O.O.O.O.O.O.O.O.O.O.O.b b b b b b A H H H H H G H H G H H H H H H H H H H y 5 5 5 5 5 < O.O.O.O.O.O.O.O.O.O.O.O.O.O.O.",
"O.O.O.O.O.O.O.O.O.b b b b b b b A D D D S G H H H H H H H G A D H H H H H H H H H S V V y 5 5 4 O.O.O.O.O.O.O.O.O.O.O.O.O.O.O.",
"O.O.O.O.O.O.O.O.b b p n p p p p S H H H H H H H H H H H H G b A H H H H H H H H H H H H D w q q O.O.O.O.O.O.O.O.O.O.O.O.O.O.O.",
"O.O.O.O.O.b b b u p G G G G F G G H H H H H H H H H H G H G n A H H H J H H H H H H H H F F F F w 7 O.O.O.O.O.O.O.O.O.O.O.O.O.",
"O.O.O.O.O.b b b p S H H H H H H H H H H H H H H H H H H G G n A H H H D G H H H H H H H H H K F w 5 O.O.O.O.O.O.O.O.O.O.O.O.O.",
"O.O.O.5 s v b b D H H H H H H H H H H H H H H H H H H H H G b D H H D p A H H H H H H H H H H F w 5 O.O.O.O.O.O.O.O.O.O.O.O.O.",
"O.O.5 g k b v w A H H H H H H H H H i j r j r j t t k k t r w y A G G D G H H H H H H A p t t t s 5 < O.O.O.O.O.O.O.O.O.O.O.O.",
"O.O.s k n b h 5 A H H H H H H H H H j d z x z 4 > , , , l x d r p G H H H G H H H H H p v x 7 > > 7 x O.O.O.O.O.O.O.O.O.O.O.O.",
"5 f v b b b h a C H H H H H H H H H F ( ..o...1 . X X + `  .W H G H H H H H H H H H G p U X.8 . . 2 X.' u O.O.O.O.O.O.O.O.O.O.",
"5 f b b b b h a C H H H H H H H H H H / { | } 6 * * * = ] [ ^ R H H H H G D D D D G H S ) } c # # 3 } _ A O.O.O.O.O.O.O.O.O.O.",
"5 f b b b b h a C H H H H H H H H H H H H E ! ! ! ! ! ! ~ ~ ~ K H H H H S b b b b S H H H H A u u A H H G n b b O.O.O.O.O.O.O.",
"5 f b b b b h a C H H H H H H H H H H H G G I I P I I I H R J J H H H H G D D D D F H H H H F D D F H H H F D F A b O.O.O.O.O.",
"5 w b b b b h a C H H H H H H H H F H H H D n p p b p p F H H H H H H H G H H H H H H H H H H H H H G G G H H H A n O.O.O.O.O.",
"5 f b b b b h a C H H H H H H H H H H H H G G G G G G G G H H H H H H H H H H H H H H H H H H H H F n n n G H H H G n b O.O.O.",
"a f b b b b h a C H F D F C C H H H H H H H H H H H H H H H H H H H H H H H H H H H H H H H H H H F A A A G H H H G n b O.O.O.",
"a f b b b b h a C G i v v d q F H H H H H H H H H H H H H H H H H H H H H H H H H H F H H H H H H H H H H H H H H G n b O.O.O.",
"a f b b b b h a f y C F S e q F H H H H H H H H H H H H H H H H H H K F H H H M & & - % & & & - N H H H H H H H H H F S b O.O.",
"a f b b b b r s 7 d F K H r q H H H H H H H G H H H H H H H G G F K F K H H K 9 O .         X @ M H H H H H H H H H H D b O.O.",
"a f b b b b b v q q F H H e s F H H H H H S n F H H H H H F p S H H H F H H H F N -         - Z H H H H H H H H H H J D b O.O.",
"a d b b b b b b w q F H H e w F H H H H H F A F H H H H H F A D H H F K H H H H K : & X o & 0 H H H H H H H H H H G C p b O.O.",
"a f b b b b b p q w F H H r w F H H H H H H H H H H H H H H H H H H H H H H H H K H Z @ $ F H H H H H H H H H H H F q w b O.O.",
"a f b b b b b u q w G H H C M r V H H H H H H H H H D A G H H H H H H H H H H H H H F ; : G H H H H H H H H H H H F q e S A b ",
"s e b b b b b v e e F H H H F q y F F F H H H H H H S p G H H H H H H H H H H H F F D r r F H H H H H H H H H F F S w y H P p ",
"D p a t b b h a V F F K H H H F B 5 q e F H H H H H G G G H H H H H H H H H K H K B q S V q V H H H H H H J C q s w S H ! I v ",
"H S t r h h t t Z H H H H H H H N r t y V V V V S H H H H H H H H H H H S V V V V y t F S t i V V B V V V V i r t y H L ! I b ",
"H H H r a a t H H H H H H H H H H H H S q 5 7 < w G H H H H H H H H H H y 5 5 5 < B H H H H y 5 < q < 7 5 < r H G H ! ~ ! I b ",
"H D A A p V S H F K H H K F K K E E K F C C B C B r r r r r r r r r r r y B V B V F E E L L F V V V V V V V S L L L ! R I P O.",
"H D b D H H H H H H H H K F K ! ~ ~ K K H K K H D q q q q q q q q 6 q q B K K K K K ~ ~ ! ~ K J H J H J H J K ~ ~ ! ~ T b O.O.",
"H D p u p G H H K H F K L L ! ! ! ! E ! Q Q ! Q E F F F F F D F F F F F K L Q ! ! ! ~ ~ ~ ~ ~ L L ~ L ! ! ! L ~ ! ~ ~ T b O.O.",
"H G A p p H H H F K K L ~ ~ ! ! ! ! ! ! ! ~ ~ ~ Q K J J J J J J K K K K L ~ ! ! ! ! ~ ~ ~ ~ ~ ~ ~ ~ ! ! ! ~ ~ ~ Q L ! T b O.O.",
"G H H A p G G H H H Q ~ ~ ! ! ! ! ! ! ! ! ! ! ! ! ! ! ! ! ! ! ! ! ! ! ! ! ! ! ! ! ! Q ~ ~ ~ Q ~ ~ ~ ~ Q ~ ~ ~ ~ J H H H O.O.O.",
"H H H A m G H H H H ! ~ ~ ! ! ! ! ! ! ! ! ! ! ! ! ! ! ! ! ! ! ! ! ! ! ! ! ! ~ ! ! ! ~ ~ ~ ~ ~ ~ ~ ~ ~ Y I H T I I p A A O.O.O.",
"H H H A p G G G H H ~ ~ ! ! ! ! ! ! ! ! ! ! ! ! ! ! ! ! ! ! ~ ! ! ! ! ! ! ! ! ! ! ! ! Q Q Q R Q ~ Q ! D m G G b p p p p O.O.O.",
"H H H p b p A H H J ~ ~ ! ! ~ ! ! ! ! ! ! ! ! ! ! ! ! ! ! ! ! ! ! ~ ! ! ! ! ! ! ! ~ Q P n n m m G H H H G G G G G G G G H H H ",
"H H H D p p p G G H L Q ! ! ! ! ! ! ! ! ~ ~ ~ ~ ! ! ~ ~ ! ! ~ ~ ! ! ~ ~ ~ ~ ~ ~ ~ ! R D m m A A G H H H H H H H G H H H H H H ",
"H H H H G n b b G H G J ! ! ! ! ! ! ! ! ~ ~ ~ ~ ! ! ~ ~ ! ! ~ ~ ! ! ~ ~ ! ~ ~ ~ ~ L G H H H H H H H H H H H H H G H H H H H H ",
"H H H H G G D D A A p I I I I I I I H J H J J J R L J J H L J J H J J J H J L J J H H H H H H H H H H H H H H H H H H H H H H ",
"H H H H H H G H p b b b b b b u b b G H H H H H G G H H H G H H H H H H G H H H H G H H H H H H H H H H H H H H H H H H H H H "
};
