/* XPM */
static char *frame_008_png[] = {
/* columns rows colors chars-per-pixel */
"63 40 120 2 ",
"   c #010101",
".  c #080602",
"X  c #0C0905",
"o  c #070809",
"O  c #0A0B0B",
"+  c #120E06",
"@  c #160F08",
"#  c #1A140B",
"$  c #151515",
"%  c #1D1D1D",
"&  c #221A0B",
"*  c #281D0F",
"=  c #2B220D",
"-  c #322313",
";  c #382613",
":  c #352A10",
">  c #3B2D13",
",  c gray17",
"<  c gray20",
"1  c #393939",
"2  c #453615",
"3  c #473816",
"4  c #4A3A16",
"5  c #4E3D18",
"6  c #523A1F",
"7  c #52421E",
"8  c #614C1E",
"9  c #614527",
"0  c #654C2C",
"q  c #775C25",
"w  c #70562E",
"e  c #6B5131",
"r  c #6F5238",
"t  c #7E5D3E",
"y  c #7B6126",
"u  c #444343",
"i  c #4C4C4C",
"p  c #515151",
"a  c #5F5F5F",
"s  c #6F5E47",
"d  c #765A40",
"f  c #7E5F40",
"g  c #766642",
"h  c #7C6046",
"j  c #626262",
"k  c #6F6C69",
"l  c #855E32",
"z  c #8C6D2F",
"x  c #8F702C",
"c  c #97762E",
"v  c #99782F",
"b  c #88673F",
"n  c #876838",
"m  c #8B693F",
"M  c #916E3F",
"N  c #96733E",
"B  c #99743F",
"V  c #9D783E",
"C  c #A3733E",
"Z  c #A37D3E",
"A  c #AD7C3F",
"S  c #846340",
"D  c #8C6640",
"F  c #8E6840",
"G  c #926C40",
"H  c #996E40",
"J  c #977340",
"K  c #9C7040",
"L  c #866A50",
"P  c #8D6F52",
"I  c #8D7156",
"U  c #87765D",
"Y  c #A57541",
"T  c #A97740",
"R  c #AC7A40",
"E  c #B07F40",
"W  c #A58233",
"Q  c #AB8634",
"!  c #AF8A36",
"~  c #A7813E",
"^  c #AC853D",
"/  c #AF883D",
"(  c #B28B36",
")  c #B3843E",
"_  c #B58B3D",
"`  c #BA8D3D",
"'  c #BD933C",
"]  c #C1963C",
"[  c #C49A3C",
"{  c #CA9F3E",
"}  c #CCA03E",
"|  c #D0A33F",
" . c #B48341",
".. c #B98941",
"X. c #BC976F",
"o. c #C59641",
"O. c #C79841",
"+. c #CD9E42",
"@. c #CFA240",
"#. c #CEA44A",
"$. c #D3A641",
"%. c #D7A942",
"&. c #D8AA42",
"*. c #D9AD48",
"=. c #CCA653",
"-. c #C5A35C",
";. c #C29C61",
":. c #CAA771",
">. c #BBB8B8",
",. c #C8AB8B",
"<. c #CBBB98",
"1. c #EFD8A5",
"2. c #E8D8B3",
"3. c #EBDBB9",
"4. c #EFE0BD",
"5. c #ECE0CA",
"6. c #EBE7E2",
"7. c #EDEAE8",
"8. c #F1EEEB",
"9. c None",
/* pixels */
"9.9.      9.9.9.9.9.9.9.9.9.9.      1 u % < i , $                   * C 9 #   $ i < % u 1 % O                 9.9.9.9.9.9.9.9.",
"9.9.9.9.9.9.9.9.9.9.9.9.9.9.9.9.-   . $ a 1 . i p                   * A Z n #   . 1 a $ , j ,             9.9.9.9.9.9.9.9.9.9.",
"9.9.9.9.9.9.9.9.9.9.9.9.9.9.9.R n 6 @ o < < < < < < %           . 5 q [ [ ' q 3   % < o O < $           9.9.9.9.9.9.9.9.9.9.9.",
"9.9.9.9.9.9.9.9.9.T T T T T T T ) ..>     < j $ $ a <           + v { [ [ [ { c X . . . .   .         9.9.9.9.9.9.9.9.9.9.9.9.",
"9.9.9.9.9.9.9.9.A Y A T A A A A ) [ W y . o $     $ o         4 v ' [ [ [ [ [ ' v v v v z e e e 9.9.9.9.9.9.9.9.9.9.9.9.9.9.9.",
"9.9.9.9.9.T T T T A ] ] ' [ ' ' ] [ [ Q : = = = = = = = = = & q { [ [ [ [ [ [ [ { [ [ [ [ ' ' ' F S 9.9.9.9.9.9.9.9.9.9.9.9.9.",
"9.9.9.9.9.T T T ^ ) [ [ [ [ [ [ [ [ [ [ ' ' ' ' ' ' ' ' ' _ C ) [ [ ] ` ' [ [ [ [ [ [ [ [ [ [ ' D h 9.9.9.9.9.9.9.9.9.9.9.9.9.",
"9.9.9.f S Y T T ` [ [ [ [ [ [ [ [ [ [ [ [ [ [ [ [ [ [ [ [ ' T _ [ [ ` A ` [ [ [ [ [ [ [ [ [ [ [ m t 9.9.9.9.9.9.9.9.9.9.9.9.9.",
"9.9.f G H T Y F ) [ [ [ [ [ [ [ [ [ Z J B N N B B B B B N N m C ) ] ] ` ] [ [ [ [ [ [ ) R J B N b h t 9.9.9.9.9.9.9.9.9.9.9.9.",
"9.9.S K T T H f / [ [ [ [ [ [ [ [ [ B D P I P d r r r r L P D N R ' [ [ [ [ [ [ [ [ [ A K I f r r d I 9.9.9.9.9.9.9.9.9.9.9.9.",
"f F Y T T T H f ) [ [ [ [ [ [ [ [ [ ' -.6.8.6.u . X X $ >.5.#.[ ] [ [ [ [ [ [ [ [ [ [ A X.8.k . . i 7.,.C 9.9.9.9.9.9.9.9.9.9.",
"f F T T T Y H S / [ [ [ [ [ [ [ [ [ [ =.2.4.3.g 3 4 4 7 <.1.*.} [ [ [ [ ] ` ` ` ` ' [ ..;.3.U - ; s 3.:.) 9.9.9.9.9.9.9.9.9.9.",
"f F T T T T H f / [ [ [ [ [ [ [ [ [ ' [ [ +.%.%.%.%.%.%.%.%.%.} [ [ [ [ _ T T T T ` [ [ [ [ ) A A A ] [ ] E T R 9.9.9.9.9.9.9.",
"f F T T T T H f / [ [ [ [ [ [ [ [ [ [ [ [ ' ............O.} { { [ ] [ [ ] ` ` ` ` ' [ [ [ [ ' ` ` ' [ [ [ ` ` ` ) T 9.9.9.9.9.",
"f F T T T T H S / [ [ [ [ [ [ [ [ [ [ [ [ ` T A A T T A ' [ [ [ [ [ [ [ [ [ [ [ [ [ [ [ [ [ [ [ [ ] ] ] ] [ [ [ ) R 9.9.9.9.9.",
"t F T T T T H S / [ [ [ [ [ [ [ [ [ [ [ [ ] ] ] ] ] ] ] [ [ [ [ [ [ [ [ [ [ [ [ [ [ [ [ [ [ [ [ [ ' A A A ] [ [ [ ] R T 9.9.9.",
"l F T T A Y H f / [ ' ` ' / / [ [ [ [ [ [ [ [ [ [ [ [ [ [ [ [ [ [ [ [ [ [ [ [ [ [ [ [ [ [ [ [ [ [ ' ) ) ) [ [ [ [ ] R T 9.9.9.",
"S F T T Y Y H S / ' T Z Y m m ' [ [ [ [ [ [ [ [ [ [ [ [ [ [ [ [ [ [ [ [ [ [ [ [ [ [ [ ' [ [ [ [ [ [ [ [ [ [ [ [ [ ] R T 9.9.9.",
"f D T T T T H S F V _ ` ` M m ' [ [ [ [ [ [ [ [ [ [ [ [ [ [ [ [ [ [ [ [ [ [ [ W 3 2 3 2 2 2 2 5 ! [ [ [ [ [ [ [ [ [ ' ` T 9.9.",
"S D T T T T H S h D ' } [ M m ' [ [ [ [ [ ] ] [ [ [ [ [ [ [ ] ] [ [ [ [ [ [ [ c # .         . & W [ [ [ [ [ [ [ [ [ [ ` T 9.9.",
"d D T T T T T Y m b ' [ [ M m ' [ [ [ [ [ ` R ' [ [ [ [ [ ] A ` [ [ [ [ [ [ [ ' ! 4         8 ( ] [ [ [ [ [ [ [ [ [ [ ` T 9.9.",
"S D T T T T T T m b ] [ [ M m ' [ [ [ [ [ ' ) ' [ [ [ [ [ ' ) ` [ [ [ [ [ [ [ [ { y 2 X + 2 x { [ [ [ [ [ [ [ [ [ ] ) ^ T 9.9.",
"S D T T T T Y C m b ' [ } M D ' [ [ [ [ [ [ [ [ [ [ [ [ [ [ [ [ [ [ [ [ [ [ [ [ [ [ ( & : ' [ [ [ [ [ [ [ [ [ [ [ ' S F T 9.9.",
"d D T T T T T A m m ' [ ' _ ~ B ~ [ [ [ [ [ [ [ [ [ ` ) ' [ [ [ [ [ [ [ [ [ [ [ [ [ ' 0 w ' [ [ [ [ [ [ [ [ [ [ [ ' S N ` ^ T ",
"D G Y Y T T T Y F N ' [ [ [ ' m B ' ' ' [ [ [ [ [ [ _ A ' [ [ [ [ [ [ [ [ [ [ [ ' ' ` N N ' [ [ [ [ [ [ [ [ [ ' ' ` m J } ) T ",
"..R S K T R H S ~ ' [ [ [ [ [ ' ~ b S N [ [ [ [ [ [ [ ' [ [ [ [ [ [ [ [ [ [ [ [ } ~ b _ ~ b ~ { [ [ [ [ [ [ ( b S F _ [ $...T ",
"{ _ J J H H H B _ [ [ [ [ [ [ [ / B B B ~ / / ~ ) [ [ [ [ [ [ [ [ [ [ [ ` / ^ ~ ^ V B ' ' B Z ~ / ~ / ~ / ~ Z B N V [ | &...T ",
"[ [ [ J f f B [ [ [ [ [ [ [ [ [ [ [ [ _ b f g t m [ [ [ [ [ [ [ [ [ [ ' V t g b t ~ [ [ [ [ V S f f h b S f N [ [ [ %.%.&...T ",
"[ ` ) / / / ) [ [ [ [ [ [ [ [ @.@.@.[ [ / ^ ^ ^ ~ B N B N N N M B B N N ~ / ^ ^ ^ ' $.$.| | ' ~ ~ / ~ / ~ ~ ` $.| | %.+... .9.",
"[ ` T ` ] [ [ [ [ [ [ [ [ [ } %.%.%.} [ [ } [ } ' D S S b b b D b g b b ~ ' } } } } %.%.%.%.} { { [ { [ [ { } %.%.%.%.O.T 9.9.",
"[ ` Y T ) ' [ [ [ [ [ } %.$.%.%.%.%.%.$.$.%.%.$.@.' ' ' ' ' ' ' ' ' ' ' } @.%.$.$.%.%.%.%.%.%.%.%.| $.%.%.$.%.%.%.%.%.O.T 9.9.",
"[ ] ) A A [ [ [ [ [ } @.&.%.%.%.%.%.%.%.%.%.%.%.$.@.} @.[ } { { } } } } @.%.%.%.%.%.%.%.%.%.%.%.%.%.%.%.%.%.%.%.%.| $.O.T 9.9.",
"[ [ [ ) R ] [ [ [ { %.%.%.%.%.%.%.%.%.%.%.%.%.%.%.%.%.%.%.%.%.%.%.%.%.%.%.%.%.%.%.%.%.%.%.%.%.%.%.%.%.%.%.%.&.%.+.] [ [ 9.9.9.",
"[ [ ] ) R ] [ [ [ [ %.%.%.%.%.%.%.%.%.%.%.%.&.%.%.%.%.%.%.%.%.%.%.%.%.%.%.%.%.%.%.%.%.%.%.%.&.%.%.%.%.o...O.] ..) ) ) ) 9.9.9.",
"[ [ [ ) R ' [ [ [ [ %.%.%.%.%.%.%.%.%.%.%.%.%.%.%.%.%.%.%.%.%.%.%.%.%.%.&.%.%.%.%.%.%.$.$.+.$.$.%.%.$.` A ] ] A E T E A 9.9.9.",
"[ [ ] ) T T ` [ [ { %.%.%.%.%.%.%.%.%.%.%.%.%.%.%.%.%.%.%.%.%.%.%.%.%.%.%.%.%.%.%.&.%. .E E R E ] [ [ [ ] [ ] ] ] ] ] ] [ [ [ ",
"[ [ [ ` A A A ` ] [ | %.%.%.%.%.%.%.%.%.%.%.%.%.%.%.%.%.%.%.%.%.%.%.%.%.%.%.%.%.%.%.+.` E E ) ) [ [ [ [ [ [ [ [ ] [ [ [ [ [ [ ",
"[ [ [ [ ] T T A ` [ ] { %.%.%.%.%.%.%.%.%.%.%.%.%.%.%.%.%.%.%.%.%.%.%.&.%.%.%.&.%.| ] [ [ [ [ [ [ [ [ [ [ [ [ [ [ [ [ [ [ [ [ ",
"[ [ [ [ ] ` ` ` ) ) ) ) ....) ......[ { } { { { { { +.{ { { { { { { { { { { { { { [ [ [ [ [ [ [ [ [ [ [ [ [ [ [ [ [ [ [ [ [ [ ",
"[ [ [ [ [ [ [ [ ) T T Y T T T T T Y ] [ [ [ [ [ [ [ [ [ [ [ [ [ [ [ [ [ [ [ [ [ [ [ [ [ [ [ [ [ [ [ [ [ [ [ [ ] [ [ [ [ [ [ [ "
};
