/* XPM */
static char *frame_004_png[] = {
/* columns rows colors chars-per-pixel */
"63 40 112 2 ",
"   c #000001",
".  c #080603",
"X  c #0C0906",
"o  c #0E0E0E",
"O  c #120E06",
"+  c #150E08",
"@  c #1A1408",
"#  c #141211",
"$  c #1F1710",
"%  c #221A0A",
"&  c #211811",
"*  c #312213",
"=  c #382613",
"-  c #342910",
";  c #3E3113",
":  c #232323",
">  c gray16",
",  c #453615",
"<  c #4A3A16",
"1  c #533D1D",
"2  c #5A3F22",
"3  c #52421E",
"4  c #5A431F",
"5  c #624D1E",
"6  c #5E4223",
"7  c #654C2C",
"8  c #70562E",
"9  c #654C34",
"0  c #6F5238",
"q  c #72563A",
"w  c #795A3D",
"e  c #464341",
"r  c #4B4B4B",
"t  c #504D4A",
"y  c #6F5E47",
"u  c #765A40",
"i  c #7E5F40",
"p  c #766642",
"a  c #7C6046",
"s  c #6F6C69",
"d  c #95752E",
"f  c #8D6336",
"g  c #83633C",
"h  c #88673F",
"j  c #8B693F",
"k  c #916E3E",
"l  c #9A6D3A",
"z  c #96733E",
"x  c #99743F",
"c  c #9D793E",
"v  c #A3743E",
"b  c #A37D3E",
"n  c #AD7C3F",
"m  c #805F40",
"M  c #846340",
"N  c #8C6640",
"B  c #8E6840",
"V  c #926B40",
"C  c #996E40",
"Z  c #977340",
"A  c #9C7040",
"S  c #866A50",
"D  c #8D6F52",
"F  c #8D7156",
"G  c #87765D",
"H  c #A57541",
"J  c #A97740",
"K  c #AB7A40",
"L  c #B07F40",
"P  c #A58233",
"I  c #AF8A36",
"U  c #A7813E",
"Y  c #AC853D",
"T  c #AF883D",
"R  c #B28B36",
"E  c #B3843E",
"W  c #B58B3D",
"Q  c #BA8D3D",
"!  c #BD933D",
"~  c #C1963D",
"^  c #C49A3C",
"/  c #CA9F3E",
"(  c #CCA03E",
")  c #D0A33F",
"_  c #B48341",
"`  c #B98941",
"'  c #BC976F",
"]  c #C59641",
"[  c #C79841",
"{  c #CD9E42",
"}  c #CFA240",
"|  c #CEA44A",
" . c #D3A641",
".. c #D7A942",
"X. c #D8AA42",
"o. c #D9AD48",
"O. c #CCA653",
"+. c #C5A35C",
"@. c #C29C61",
"#. c #CAA771",
"$. c #BBB8B8",
"%. c #C8AB8B",
"&. c #CBBB98",
"*. c #EFD8A5",
"=. c #E8D8B3",
"-. c #EBDBB9",
";. c #EFE0BD",
":. c #ECE0CA",
">. c #EBE7E2",
",. c #EDEAE8",
"<. c #F1EEEB",
"1. c None",
/* pixels */
"1.1.1.1.1.1.1.1.1.1.1.1.1.1.1.1.1.1.      : r # o r >         + * f n v l i i 9 & $ & $ $ $ X         1.1.1.1.1.1.1.1.1.1.1.1.",
"1.1.1.1.1.1.1.1.1.1.1.1.1.1.1.1.1.1.1.6     .                 1 n n E E H Z z z k g w w w w w 1.1.1.1.1.1.1.1.1.1.1.1.1.1.1.1.",
"1.1.1.1.1.1.1.1.1.1.1.1.1.1.1.J J J J l 2 4 5 5 7 5 5 5 5 5 5 d ^ ^ ^ ^ ^ ^ ^ ^ ^ c i i i i g i 1.1.1.1.1.1.1.1.1.1.1.1.1.1.1.",
"1.1.1.1.1.1.1.1.1.J J J J J J J E Q Q Q Q ~ / ^ ^ ^ / ^ / ^ E Q ^ ^ ^ ^ ^ ^ ^ ^ ^ W Y Y b i a a 1.1.1.1.1.1.1.1.1.1.1.1.1.1.1.",
"1.1.1.1.1.1.1.1.J J n K n n n n W ^ ^ ^ ^ ^ ^ ^ ^ ^ ^ ^ ^ ! J E ^ ^ ^ ^ ^ ^ ^ ^ ^ ^ ^ ^ ! h h g 1.1.1.1.1.1.1.1.1.1.1.1.1.1.1.",
"1.1.1.1.1.J J J J n ~ ~ ! ^ ! ! ~ ^ ^ ^ ^ ^ ^ ^ ^ ^ ~ ^ ^ ! K W ^ ^ ^ ^ ^ ^ ^ ^ ^ ^ ^ ^ ! ! ! ! h i 1.1.1.1.1.1.1.1.1.1.1.1.1.",
"1.1.1.1.1.J J J Y E ^ ^ ^ ^ ^ ^ ^ ^ ^ ^ ^ ^ ^ ^ ^ ^ ^ ^ ~ ~ K E ^ ^ ^ Q ~ ^ ^ ^ ^ ^ ^ ^ ^ ^ ^ ! h m 1.1.1.1.1.1.1.1.1.1.1.1.1.",
"1.1.1.i M H J J Q ^ ^ ^ ^ ^ ^ ^ ^ ^ ^ ^ ^ ^ ^ ^ ^ ^ ^ ^ ~ ~ K W ^ ^ ~ n E ^ ^ ^ ^ ^ ^ ^ ^ ^ ^ ! h i 1.1.1.1.1.1.1.1.1.1.1.1.1.",
"1.1.i V C J A B W ^ ^ ^ ^ ^ ^ ^ ^ ^ b z z z Z Z x x x x x l N A E ~ ~ Q ~ ^ ^ ^ ^ ^ ^ E n x x x N a w 1.1.1.1.1.1.1.1.1.1.1.1.",
"1.1.M A J K C m E ^ ^ ^ ^ ^ ^ ^ ^ ^ z N F F F u 0 q 0 q S D N A n ! ^ ^ ^ ^ ^ ^ ^ ^ ^ n H F a 0 0 u F 1.1.1.1.1.1.1.1.1.1.1.1.",
"i B H J J J C m E ^ ^ ^ ^ ^ ^ ^ ^ ^ ! +.>.<.>.e . X X # $.:.| ^ ~ ^ ^ ^ ^ ^ ^ ^ ^ ^ ~ n ' ,.s . . t <.%.v 1.1.1.1.1.1.1.1.1.1.",
"i B J J J J C m T ^ ^ ^ ^ ^ ^ ^ ^ ^ ^ O.=.;.-.p , < < 3 &.*.o.} ^ ^ ^ ^ ~ W Q Q Q ! ^ W @.-.G = = y -.#.E 1.1.1.1.1.1.1.1.1.1.",
"i B J J J K C m T ^ ^ ^ ^ ^ ^ ^ ^ ^ ^ ^ ^ } X. .........X.....} ^ ^ ^ ^ W J J J J W ^ ^ ^ ^ E v v E ^ ^ ~ n K J 1.1.1.1.1.1.1.",
"w B J J J J C m T ^ ^ ^ ^ ^ ^ ^ ^ ^ ^ ^ ^ ! ` ` ` ` ` ` [ ( ( ^ ^ ^ ^ ^ ~ Q Q Q Q ~ ^ ^ ^ ^ ! Q Q ! ^ ^ ^ Q Q Q E J 1.1.1.1.1.",
"m B J J J J C m T ^ ^ ^ ^ ^ ^ ^ ^ ! ^ ^ ^ W K J K n J K ! ^ ^ ^ ^ ^ ^ ^ ~ ^ ^ ^ ^ ^ ^ ^ ^ ^ ^ ^ ^ ^ ~ ~ ~ ^ ^ ^ E K 1.1.1.1.1.",
"m B J J J K C m T ^ ^ ^ ^ ^ ^ ^ ^ ^ ^ ^ ^ ^ ^ ^ ! ! ^ ! ^ ^ ^ ^ ^ ^ ^ ^ ^ ^ ^ ^ ^ ^ ^ ^ ^ ^ ^ ^ ^ Q n n n ~ ^ ^ ^ ~ K J 1.1.1.",
"m B J J J J l m T ^ Q Q ! T T ( ^ ^ ^ ^ ^ ^ ^ ^ ^ ^ ^ ^ ^ ^ ^ ^ ^ ^ ^ ^ ^ ! ^ ^ ^ ^ ^ ^ ^ ^ ^ ^ ^ ! E T E ^ ^ ^ ^ ~ K J 1.1.1.",
"m B J J J J C m T ~ K H b h h ! ^ ^ ^ ^ ^ ^ ^ ^ ^ ^ ^ ^ ^ ^ ^ ^ ^ ^ ^ ^ ^ ^ ^ ^ ^ ^ ^ ^ ^ ^ ^ ^ ^ ^ ^ ^ ^ ^ ^ ^ ^ ^ K J 1.1.1.",
"i N J K J J C m B c W ! W V j ! ^ ^ ^ ^ ^ ^ ^ ^ ^ ^ ^ ^ ^ ^ ^ ^ ^ ^ ^ ^ ^ ^ ^ P , , ; 3 , , , 3 I ^ ^ ^ ^ ^ ^ ! ^ ^ ! E J 1.1.",
"m B J J J J C M a h ! ^ ^ z j ! ^ ^ ^ ^ ^ ~ ~ ^ ^ ^ ^ ^ ^ ^ ~ ~ ^ ^ ^ ^ ^ ^ / d @ .         . % P ^ ^ ^ ^ ^ ^ ^ ^ ^ ^ ! J 1.1.",
"m B J J J J J H j h ~ ^ ^ Z p ! ^ ^ ^ ^ ^ W n ! ^ ^ ^ ^ ^ ! n W ^ ^ ^ ^ ( ! ( ! I <         4 R ^ ^ ^ ^ ^ ^ ^ ^ ^ ^ ^ ! J 1.1.",
"i N J J J J J J j h ! ^ ! Z B ! ^ ^ ^ ^ ^ ! E ! ^ ^ ^ ^ ^ ! E Q ^ ^ ^ ^ ! ( ! ^ ) 8 , X O , d ^ ^ ^ ^ ^ ^ ^ ^ ^ ^ ~ T n J 1.1.",
"m B J J J J J n j h ! ^ ^ Z h ! ^ ^ ^ ^ ^ ^ ^ ^ ^ ^ ^ ^ ^ ^ ^ ^ ^ ^ ^ ^ ( ! ^ ^ ( ^ R % - ! ^ ^ ^ ^ ^ ^ ^ ^ ^ ^ ^ ! h N H 1.1.",
"i B J J J J J v j h ! ^ ^ R U z Y ^ ^ ^ ^ ^ ^ ^ ^ ^ Q E ~ ^ ^ ^ ^ ^ ^ ^ ! ( ^ ^ ^ ^ ! 5 8 ~ ^ ^ ^ ^ ^ ^ ^ ^ ^ ^ ^ ! N k Q _ J ",
"M V H H J J J H V k ! ^ ^ ^ ! h U ! ! ! ^ ^ ^ ^ ^ ^ W n ! ^ ^ ^ ^ ^ ^ ^ ^ ^ ^ ^ ( ! ! k z Q ^ ^ ^ ^ ^ ^ ^ ^ ^ ! ! W j c ( T J ",
"! n M C J K C M Y ! ^ ^ ^ ^ ^ ! U M M k ! ^ ^ ^ ^ ^ ~ ~ ^ ^ ^ ^ ^ ^ ^ ^ ^ ^ ^ ^ ^ c h W Y h Y ^ ^ ^ ^ ^ ^ ^ T N N B W ^ } ` H ",
"^ W z A A l l Z R ^ ^ ^ ^ ^ ^ ^ Y z z x Y Y Y Y W ^ ^ ^ ^ ^ ^ ^ ^ ^ ^ ^ Q Y Y Y Y c x ! ! z b Y Y T Y Y Y Y U z Z c ^ ( ..` H ",
"^ ^ ^ z i a Z ^ ^ ^ ^ ^ ^ ^ ^ ^ ( ! ^ ! g i i i j ~ ^ ^ ^ ^ ^ ^ ^ ^ ^ ^ c i i i i U ^ ^ ^ ^ x p w M i i i i z ^ ^ ^ ......` J ",
"^ ! E T T T W ^ ^ ^ ^ ^ ^ ^ ( ) ) ) ( ! Y Y Y U U z z z z z x z z z z z c Y Y Y Y ! ) ) ) ) ! Y Y T Y _ Y Y ! } )  ...{ ` _ 1.",
"^ Q J Q ~ ^ ^ ^ ^ ^ ! ( ( ! ( ......( ^ ^ ( ( ( ! N M N g h M g h p h h U ( ^ ( ( ( ........( ( ( ! ( ^ ^ ^ } X.......[ J 1.1.",
"^ Q J J _ ~ ^ ^ ^ ^ ^ ( ) )  .X..... . . ..... .} ! ! ! ! ! ! ! ! ! ! ! ( ) .. ................. . . ... . . .X.....X.[ J 1.1.",
"^ ! E J J ~ ^ ^ ^ ^ ( ) X.X.......X.X.X......... .( / ( / ( / / ( ( ( ( ) ..........................X.X.X.....X...(  .[ J 1.1.",
"^ ^ ^ E K ~ ^ ^ ^ /  .......................................................................................X.X./ ~ ^ ^ 1.1.1.",
"^ ^ ^ E K ~ ^ ^ ^ ^ ..................................................X...............................] ` ^ ~ ` ` E E E 1.1.1.",
"^ ^ ^ E K ~ ^ ^ ^ ^ .................................................................. . .{  . .......` n ~ Q n n K K n 1.1.1.",
"^ ^ ~ _ J n E ^ ^ / ..............................................................X..._ L L K L ~ / ^ ~ ~ ^ ^ ~ ~ ~ ~ ~ ^ ^ ^ ",
"^ ^ ^ W n n n Q ~ ^ ( ........................X.....X.........................X..... .E L _ _ E ~ ^ ^ ^ ^ ^ ^ ^ ^ ^ ^ ^ ^ ^ ^ ",
"^ ^ ^ ^ ! n J n Q ^ ^ / ......................X.................................../ ^ ^ ~ ^ ^ ^ ^ ^ ^ ^ ^ ^ ^ ^ ^ ^ ^ ^ ^ ^ ^ ",
"^ ^ ^ ^ ~ Q Q Q E E E _ ` ` ` ` ` ` ^ / / / / / / / / / / / / / / / / / / / / / / ^ ^ ^ ^ ^ ^ ^ ^ ^ ^ ^ ^ ^ ^ ^ ^ ^ ^ ^ ^ ^ ^ ",
"^ ^ ^ ^ ^ ^ ^ ^ E J J J J J J v J K Q ^ ^ ^ ^ ^ ^ ^ ^ ^ ^ ^ ^ ^ ^ ^ ^ ^ ^ ^ ^ ^ ^ ^ ^ ^ ^ ^ ^ ^ ^ ^ ^ ^ ^ ^ ^ ^ ~ ^ ^ ^ ^ ^ ^ "
};
