/* XPM */
static char *frame_017_png[] = {
/* columns rows colors chars-per-pixel */
"63 40 104 2 ",
"   c #010000",
".  c #0A0704",
"X  c #0D0A05",
"o  c #070709",
"O  c #0B0B0B",
"+  c #110C06",
"@  c #140E08",
"#  c #171207",
"$  c #171009",
"%  c #1A1409",
"&  c #0F0F10",
"*  c #131313",
"=  c gray11",
"-  c #221B0A",
";  c #281C0F",
":  c #2C220E",
">  c #352A10",
",  c #3B2B15",
"<  c #3E3113",
"1  c #232323",
"2  c #2C2C2C",
"3  c #343434",
"4  c #3A3A3A",
"5  c #402F16",
"6  c #443515",
"7  c #473816",
"8  c #4B3B17",
"9  c #51391F",
"0  c #573D21",
"q  c #523D29",
"w  c #614D1E",
"e  c #634729",
"r  c #654C2C",
"t  c #6D4D29",
"y  c #6A5320",
"u  c #765D24",
"i  c #7A5E27",
"p  c #73542D",
"a  c #765928",
"s  c #715438",
"d  c #7D6326",
"f  c gray26",
"g  c #4C4C4C",
"h  c #565656",
"j  c #5A5A5A",
"k  c #7F5F40",
"l  c #656565",
"z  c #806427",
"x  c #87652E",
"c  c #856929",
"v  c #8F702C",
"b  c #97772E",
"n  c #8D6436",
"m  c #88673F",
"M  c #8B693F",
"N  c #946B3A",
"B  c #9D7635",
"V  c #9C7934",
"C  c #96733F",
"Z  c #99743F",
"A  c #9D793E",
"S  c #A17C33",
"D  c #A4733E",
"F  c #A37D3E",
"G  c #AD7C3F",
"H  c #805F40",
"J  c #836340",
"K  c #8C6640",
"L  c #8E6840",
"P  c #916B40",
"I  c #996E40",
"U  c #977340",
"Y  c #9D7140",
"T  c #A57540",
"R  c #A97740",
"E  c #AC7A40",
"W  c #B07F40",
"Q  c #A58133",
"!  c #A98534",
"~  c #AD8835",
"^  c #A7813E",
"/  c #AC853D",
"(  c #AF883D",
")  c #B38D37",
"_  c #B3843F",
"`  c #B58B3D",
"'  c #BA8E3E",
"]  c #B79038",
"[  c #BD933C",
"{  c #C1963D",
"}  c #C49A3C",
"|  c #CA9F3E",
" . c #CCA03E",
".. c #D0A33F",
"X. c #B58440",
"o. c #BA8941",
"O. c #C59641",
"+. c #C79841",
"@. c #CD9E42",
"#. c #CFA240",
"$. c #D3A641",
"%. c #D7A942",
"&. c #D8AA42",
"*. c None",
/* pixels */
"*.*.*.*.*.*.*.*.*.*.*.*.*.*.*.*.*.*.*.*.T R R R T R R R R T E T R R R R P k k k k k k k k k *.*.*.*.*.*.*.*.*.*.*.*.*.*.*.*.*.",
"*.*.*.*.*.*.*.*.*.*.*.*.*.*.*.*.*.*.*.*.G G _ _ _ _ _ _ _ _ _ _ _ _ _ _ F U Y U Z K k k k k k *.*.*.*.*.*.*.*.*.*.*.*.*.*.*.*.",
"*.*.*.*.*.*.*.*.*.*.*.*.*.*.*.R R E R R G _ } } } } } } } } } } } } } } } } } }  .Y k k k k k k *.*.*.*.*.*.*.*.*.*.*.*.*.*.*.",
"*.*.*.*.*.*.*.*.*.E E G E E E R X.o.[ ' ' [ } } } } } } } } X.' } } } } } } } } } ] / ( T k J k *.*.*.*.*.*.*.*.*.*.*.*.*.*.*.",
"*.*.*.*.*.*.*.*.n N N N N N N N S ~ ~ ~ ~ ~ ~ ~ ~ ~ ~ ~ ~ S N S ~ ~ ~ ~ ~ ~ ~ ~ ~ ~ ~ ~ V s s s *.*.*.*.*.*.*.*.*.*.*.*.*.*.*.",
"*.*.*.*.*.      . + + + + + + + @ @ # $ # # # # # # # # $ $ $ $ # # # # # # # # # # # # $ $ + X               *.*.*.*.*.*.*.*.",
"*.*.*.*.*., , , 5 6 6 6 6 6 > .     = =   * 1 o                     . , %     o 1 &   = =                     *.*.*.*.*.*.*.*.",
"*.*.    $ N R R ] } } } } } Q +     g h o 2 l =                     ; D 9     = l 2 o h g                     *.*.*.*.*.*.*.*.",
"*.*.q e p D T K _ } } } } } ] c 7   = 2 f 3 1 4 3 o                 : ` b u # . 1 3 f 2 2 f =             *.*.*.*.*.*.*.*.*.*.",
"*.*.J Y E R I k ( } } } } } }  .d #   O j 4 O g g * o             + 6 [ | [ < +   3 h O = j 2         X $ *.*.*.*.*.*.*.*.*.*.",
"k K T R R R I k ( } } } } } } } ] ~ :   O 3 j 1 = j 3             c ) } } { ) z   o O     O           0 N *.*.*.*.*.*.*.*.*.*.",
"k P R R R R I J ( } } } } } } } } } y >   = f & O f 1         - 9 ! } } { ' ' B , 6 6 6 6 6 6 , , , 6 x X.*.*.*.*.*.*.*.*.*.*.",
"k K R R R R I H ( } } } } } } } } } } V X                     w } } } } ` R R R R ` } } } } _ D R _ } } { G G D *.*.*.*.*.*.*.",
"H K R R R R I H ( } } } } } } } } } } ] c a t t t t t t i d d S } } } } { ' ' ' ' [ } } } } [ [ ' ' } } } ' ' ' _ R *.*.*.*.*.",
"k P R R R R I H ( } } } } } } } } } } } | ' E W W W E W { | | } } } } } } } } } } } } } } } } } } } { { { } } } _ E *.*.*.*.*.",
"k K R R R E I H / } } } } } } } } } } } } } { { { { { { } } } } } } } } } } } } } } } } } } } } } [ E E G { } } } [ E R *.*.*.",
"k L R R R R I J X.} ] ( ] ( ( } } } } } } } } } } } } } } } } } } } } } } } } } } } } } } } } } } [ _ _ _ [ } } } { E R *.*.*.",
"k L R R R R I k ( o.X.X.X.P k { } } } } } } } } } } } } } } } { } } } } } } } ] } } } } } } } } } } } } } } } } } { E R *.*.*.",
"k L R R R R U k P ^ ] o.o.J K { } } } } } } } } } } } } } } } } } } } } } } } Q 7 7 < 6 6 6 < 8 ~  .} } } } } } } } [ ` R *.*.",
"k L R R R R U J k k [ } } U J } } } } } } { { } } } } } } } { { } } } } } } } Q # .         . : Q } } } } } } } } } } ' R *.*.",
"k L R R R R R Y J K { } } U k [ } } } } } ` G [ } } } } } { G ` } } } } } } } [ ) 8         w ~ [  .[  .} } } } } } } ' R *.*.",
"k L R R R R R R K J { } [ U J } } } } } } [ _ [ } } } } } { _ ' } } } } } } } }  .d < X # 6 v }  .[  .[ } } } } } { _ / R *.*.",
"k L R R E R E U K K [ } } U J } } } } } } } } } } } } } } } } } } } } } } } } } } } ) - > [ }  .[  .[  .} } } } } [ m K R *.*.",
"k L R R R R R X.K d { } } ) / Z / } } } } } } } } } ' G { } } } } } } } } } } } } } [ r p [  .[  .[  .[ } } } } } [ K N ' _ R ",
"J P Y X.T E T Y P P [ } } } [ J ^ [ [ [ } } } } } } ` G { } } } } } } } } } } } } } ] M ^ [ ] } } } } } } } } ] [ [ K Y  ._ R ",
"o.X.k U T E U J / [ } } } } } [ ^ m J M } } } } } } } { { } } } } } } } } } } } | ^ k ( ^ k / } } } } { } } o.k J L ` } %.o.T ",
"#.o.C U I U U Z ) } } } } } } } / C Z A / / / / ) } } } } } } } } } } } [ ~ ! ( / ^ ^ o.] ^ ^ ^ ! X.X.X.^ ^ ^ ^ U A } ..%.o.F ",
"o.#.} C H k Z } } } } } } } } }  .[  .o.K s k k M { } } } } } } } } [ [ ^ l k k k ^ } } [ [ ^ k d k k k k k U [ } } $.&.%.o.T ",
"} { _ / / / ` } } } } } } }  ....... .[ ( / ^ / ^ C C C N Z Z Z ^ ^ M ^ ^ ^ / / ^ [ .... .#.[ / / / / X.^ ^ ] $...$.$.@.o.X.*.",
"} ' R ' } } } } } } } }  .[  .%.%.%. .}  .} }  .[ m m m J J J J k k k k ^ | | } } ..&.&.%.%. .| } | } } | |  .&.%.&.&.+.E *.*.",
"} ` R R W { } } } } }  .....$.&.%.%.$.%.$.%.$.%.#.[ [ [ [ [ { [ [ [ [ [ } &.$.&.$.$.&.&.%.%.%.%.%.%.$.%.$.$.%.%.&.&.&.+.R *.*.",
"} { _ G E { } } } }  ...&.&.%.%.%.%.%.%.%.%.%.%.$. .|  . . . . .|  .| | ..&.&.&.&.&.&.&.%.%.%.%.%.%.&.&.&.%.%.%.$...$.+.R *.*.",
"} } } G G { { } } | %.%.%.%.%.%.%.%.%.%.%.%.%.%.%.%.%.%.%.%.%.%.%.%.%.%.%.%.%.%.%.%.%.%.%.%.%.%.%.%.%.%.%.%.&.%. .} } } *.*.*.",
"} } } _ R { } } } } %.%.%.%.%.%.%.%.%.%.%.%.%.%.%.%.%.%.%.%.%.&.%.%.%.%.&.%.%.%.%.%.%.&.&.&.&.%.%.%.%.O.o.| } _ W _ G _ *.*.*.",
"} } } _ G { { { } } %.%.%.%.%.%.%.%.%.%.%.%.%.%.%.%.%.%.%.%.%.%.%.%.%.%.%.%.%.%.%.%.%.$.@.$.@.%.%.%.%.' G { ' G G E W G *.*.*.",
"} } } _ R E ` } } | %.%.%.%.%.%.%.%.%.%.%.%.%.%.%.%.%.%.%.%.%.%.%.%.%.%.%.%.%.%.%.&.%.W W E E W { } } { { } } { { { { } } } } ",
"} } } ` G E G { { |  .%.%.%.%.%.%.%.%.%.%.%.%.&.&.%.%.%.%.%.%.%.%.%.%.%.%.%.%.%.&....._ G G _ _ { } } } } } } } } } } } } } } ",
"} } } } { G T G ' } {  .%.%.%.%.%.%.%.%.%.%.%.&.%.%.%.%.%.%.%.%.%.%.%.&.%.%.%.&.&. .} } | } } | } } } } } } } } } } } } } } } ",
"} } } } { ' ' ' _ _ G o.W O._ o.o.o.} | | |  . . . . .|  . . .| | | | | | | | |  .| } } } } } } } } } } } } } } } } } } } } } ",
"} } } } } } } } G D R R R D R R R D { } } } } | { } } } { } } } } } } } } } } } } } } } } } } } } } } } } } } } } } } } } { } "
};
