/* XPM */
static char *frame_011_png[] = {
/* columns rows colors chars-per-pixel */
"63 40 123 2 ",
"   c black",
".  c #080603",
"X  c #0C0A05",
"o  c #070709",
"O  c #0B0B0C",
"+  c #110D05",
"@  c #161207",
"#  c #1A1408",
"$  c gray7",
"%  c gray11",
"&  c #221A0A",
"*  c #231A12",
"=  c #2D240E",
"-  c #312517",
";  c #382613",
":  c #352A10",
">  c #3C2D15",
",  c #3E3113",
"<  c #232323",
"1  c #2C2C2C",
"2  c #343434",
"3  c #3A3A3A",
"4  c #443615",
"5  c #4A3A16",
"6  c #523D29",
"7  c #52421E",
"8  c #5E4A1D",
"9  c #614C1E",
"0  c #654C2C",
"q  c #6E4F28",
"w  c #6A5320",
"e  c #765D24",
"r  c #71532D",
"t  c #6F5338",
"y  c #72563A",
"u  c #7E5D3E",
"i  c #7F6427",
"p  c #434242",
"a  c #4C4C4C",
"s  c #565656",
"d  c #5A5A5A",
"f  c #6F5E47",
"g  c #7E5F40",
"h  c #766642",
"j  c #7C6046",
"k  c #656565",
"l  c #6F6C69",
"z  c #806427",
"x  c #866929",
"c  c #8F702C",
"v  c #97772E",
"b  c #826034",
"n  c #88673F",
"m  c #8B693F",
"M  c #916E3F",
"N  c #9B6D3B",
"B  c #96733F",
"V  c #99743F",
"C  c #9D783E",
"Z  c #A07E31",
"A  c #A7743C",
"S  c #A37E3E",
"D  c #AD7C3F",
"F  c #846340",
"G  c #8C6640",
"H  c #8E6840",
"J  c #926C40",
"K  c #996E40",
"L  c #977340",
"P  c #9C7040",
"I  c #896D51",
"U  c #8E7156",
"Y  c #87765D",
"T  c #907356",
"R  c #917458",
"E  c #A57541",
"W  c #A97740",
"Q  c #AC7A40",
"!  c #B17F41",
"~  c #A58233",
"^  c #A98534",
"/  c #AF8A36",
"(  c #A7813E",
")  c #AC853D",
"_  c #AF883D",
"`  c #B38D37",
"'  c #B3843E",
"]  c #B58B3D",
"[  c #BA8D3D",
"{  c #BD933C",
"}  c #C1963C",
"|  c #C49A3C",
" . c #CA9F3E",
".. c #CCA03E",
"X. c #D0A33F",
"o. c #B48341",
"O. c #B98941",
"+. c #BC976F",
"@. c #C59641",
"#. c #C79841",
"$. c #CD9E42",
"%. c #CFA240",
"&. c #CEA44A",
"*. c #D3A641",
"=. c #D7A942",
"-. c #D8AA42",
";. c #D9AD48",
":. c #CCA653",
">. c #C5A35C",
",. c #C29C61",
"<. c #CAA771",
"1. c #BBB8B8",
"2. c #C8AB8B",
"3. c #CBBB98",
"4. c #EFD8A5",
"5. c #E8D8B3",
"6. c #EBDBB9",
"7. c #EFE0BD",
"8. c #ECE0CA",
"9. c #EBE7E2",
"0. c #EDEAE8",
"q. c #F1EEEB",
"w. c None",
/* pixels */
"w.w.w.w.w.                                                                                                    w.w.w.w.w.w.w.w.",
"w.w.w.w.w.                          % %   $ < O                     + 4 &     O < $   % %                     w.w.w.w.w.w.w.w.",
"w.w.      w.w.w.w.w.w.w.w.w.w.      a s o 1 k %                     = } 8     % k 2 o s a o                   w.w.w.w.w.w.w.w.",
"w.w.w.w.w.w.w.w.w.W W W W W N r >   % 1 p 2 < 3 2 o                 = { Z e @ o < 2 p 1 1 p %             w.w.w.w.w.w.w.w.w.w.",
"w.w.w.w.w.w.w.w.W W Q Q D D D ' q @   $ s 3 O a a $ o             + 4 {  .{ > +   2 d O % d 1             w.w.w.w.w.w.w.w.w.w.",
"w.w.w.w.w.W W W A D } } } } } { [ ^ =   o 2 d < % s 2             x ` | | } ` z     o     o           w.w.w.w.w.w.w.w.w.w.w.w.",
"w.w.w.w.w.W W W D ] | | | | | | | | w >   % p $ O p <         & 5 ^ | [ { | | ~ 5 4 4 4 4 4 4 4 - *   w.w.w.w.w.w.w.w.w.w.w.w.",
"w.w.w.g F E W W [ | | | | | | | | | | v +                     9  .| { A [ | | | | | | | | | | { G u w.w.w.w.w.w.w.w.w.w.w.w.w.",
"w.w.g J P W P G ' | | | | | | | | | S n 6 6 6 6 6 6 6 6 6 6 6 b ' } | [ } | | | | | | ] ) B V L F g u w.w.w.w.w.w.w.w.w.w.w.w.",
"w.w.F P W W K F ' | | | | | | | | | B G R R U g y y y y I T J V D { | | | | | | | | } D E U j y t g U w.w.w.w.w.w.w.w.w.w.w.w.",
"g H E W W W J F ' | | | | | | | | | { >.9.q.9.p . o X $ 1.8.&.| } | | | | | | | | | } D +.0.l   . a 0.2.A w.w.w.w.w.w.w.w.w.w.",
"g H W W W W K g _ | | | | | | | | | | :.5.7.6.h 5 5 5 7 3.4.;.%.| | | | } [ [ [ [ } | o.,.6.Y ; ; f 6.<.' w.w.w.w.w.w.w.w.w.w.",
"g m W W W W K g _ | | | | | | | | | | | | $.=.=.=.=.=.=.=.=.=.*.| | | | ' W W W W [ | } | | ' A W ' | | } Q W W w.w.w.w.w.w.w.",
"F H W W W W K g _ | | | | | | | | | | | | } O.O.O.O.O.O.| $. .| | | | | } [ [ [ [ } | | | | { [ [ { | | | { [ [ ' W w.w.w.w.w.",
"g G W W W W K F _ | | | | | | | | | } | | [ Q Q A Q W D { | | | | | | | | | | | | | | | | | | | | | } } } | | | ' Q w.w.w.w.w.",
"g G W W W W K F _ | | | | | | | | | | | | | } } } } } } | | | | | | | | | | | | | | | | | | | | | [ Q Q Q } | | | { Q W w.w.w.",
"g H W W W W K j _ | [ [ { _ _ ..| | | | | | | | | | | | | | | | | | | | | | | | | | | | | | | | | { ' ' ' } | | | } D W w.w.w.",
"g J W W W W K b _ } D W S n n { | | | | | | | | | | | } | | | | | | | | | | | | | | | | | | | | | | | | | | | | | } Q W w.w.w.",
"g H W W W W K j M C ] [ [ m m { | | | | | | | | | | | | | | | | | | | | | | | ~ 5 5 4 4 4 5 4 7 / | | | | | | | | | [ ] W w.w.",
"g H W W W W P F g G { | | B m { | | | | | | } } | | | | | | } } | | | | | | | v #             & ^ | | | | | | | | |  .[ W w.w.",
"g m W W W W W E G n { | ..M n { | | | | | [ D { | | | | | { D [ | | | | | | | { / 5         8 / } | | | | | | | | | | [ W w.w.",
"g H W W W W W W G n { | { B n { | | | | | { ' { | | | | | } ' [ | | | | | | | |  .i , X + 4 c  .| | | | | | | | | } ' ) W w.w.",
"F H W W W W W W G F { | { B m { | | | | | | | | | | | | | | | | | | | | | | | | | | ` & : { | | | | | | | | | | | { n m W w.w.",
"g H W W W W W W G m { | | ] ( B ( | | | | | | | | | [ ' } | | | | | | | | | | | | | { 0 r | | | | | | | | | | | | { n M [ _ W ",
"n H E W W W W E m B { | | | { m V { { { | | | | | | [ D { | | | | | | | | | | | ..{ { M B { { | | | | | | | | { { [ m C | o.W ",
"{ S F P W W N F ) { | | | | | { ( n n M | | | | | | } } | | | | | | | | | | | | | C m ] ) n )  .| | | | | | _ n F m [ | *.O.W ",
"| ] V B K K K P ] | | | | | | | _ B B C ) ) _ ) ` } | | | | | | | | | | ` ) ) ) ) C V { [ B S ) ) o.o.) ) ) ( B B V | ..-.O.W ",
"| | | B g g L | | | | | | | | | | | | ] n u j u m } | | | | | } | | | | ( h j u u ( | | | | C u u b h j j u B | |  .=.=.-.O.W ",
"| } ' ) _ ) ] | | | | | | |  .........{ ) ) ) _ ( B B B B B B B B B B C ~ ( ) ( ) { *.*.X.X.{ ) ) ) ) _ ) _ ] X.X.*.=.$.O.o.w.",
"| [ W [ | | | | | | | | | | ..=.-.-..... . .| | { n n n n n n n n n n u ( ..........=.=.=.=... .|  .|  .| | ..-.=.=.=.#.W w.w.",
"| [ W W ) } | | | | | ..*.*.*.-.=.=.*.*.*.=.=.*.%.{ { { { { [ { { ` { { O.;.*.=.=.=.=.=.=.=.=.=.=.X.=.X.-.X.=.=.=.=.-.#.W w.w.",
"| [ o.Q Q } | | | | ....-.-.-.=.=.=.-.-.=.=.=.=.*..... . . . . .........X.;.=.=.=.=.=.=.=.=.=.-.-.-.-.-.-.=.=.=.=...*.#.W w.w.",
"| | | ' Q } | | | | =.=.=.=.=.=.=.=.=.=.=.-.=.=.=.=.=.=.=.=.=.=.=.=.=.=.=.=.=.=.=.=.=.=.=.=.=.=.=.=.=.=.=.=.=.=. .| | | w.w.w.",
"| | | ' Q } | | | | =.=.=.=.=.=.=.=.=.=.=.=.=.=.=.=.=.=.=.=.=.=.=.=.=.=.=.=.=.=.=.=.=.=.=.=.=.=.=.=.=.@.O.| | O.o.' ' ' w.w.w.",
"| | | D D } | | | | =.=.=.=.=.=.=.=.=.=.=.=.=.=.=.=.=.=.=.=.=.=.=.=.=.=.=.=.=.=.=.=.=.*.$.*.*.*.=.=.-.O.D } [ D Q W Q Q w.w.w.",
"| | | ' W D ' | |  .=.=.=.=.=.=.=.=.=.=.=.=.=.=.=.=.=.-.=.=.=.-.-.=.=.=.-.=.=.=.=.-.=.o.! ! W ! }  .| } } | | } } } } | | | | ",
"| | | [ D D D [ } | ..=.=.=.=.=.-.=.=.=.=.=.=.-.=.=.=.=.=.=.=.=.=.=.=.=.=.=.=.=.=.=.X.' ! ' o.' } | | | | | | | | | | | | | | ",
"| | | | } D W W [ | |  .=.=.=.=.=.-.=.=.=.=.=.-.=.=.=.=.=.=.=.=.=.=.=.=.=.=.=.=.=. .| | | | | | | | | | | | | | | | | | | | | ",
"| | | | | [ [ [ ' ' o.o.O.O.O.O.O.O.|  . . . . . . . . . . . . . . . . . . . . . .| | | | | | | | | | | | | | | | | | | | | | ",
"| | | | | | | | ' W W A E W W W W W [ | | | | | | | | | | | | | | | | | | | | | | | | | | | | | | | | | | | | | | | | | | | | "
};
