/* XPM */
static char *frame_015_png[] = {
/* columns rows colors chars-per-pixel */
"63 40 107 2 ",
"   c black",
".  c #080703",
"X  c #0B0904",
"o  c #070708",
"O  c #070809",
"+  c #0A0A0B",
"@  c #130E06",
"#  c #140E08",
"$  c #171207",
"%  c #16120D",
"&  c #1B1608",
"*  c #121213",
"=  c gray11",
"-  c #231C0B",
";  c #281D0F",
":  c #201810",
">  c #2B210E",
",  c #2C2116",
"<  c #392714",
"1  c #342910",
"2  c #3B2A16",
"3  c #3E2D1C",
"4  c #3F3113",
"5  c gray14",
"6  c gray17",
"7  c #323232",
"8  c #3C3C3C",
"9  c #453615",
"0  c #4B3B17",
"q  c #4E3D18",
"w  c #524119",
"e  c #5D491C",
"r  c #614D1E",
"t  c #654C2C",
"y  c #705822",
"u  c #70562E",
"i  c #7B6126",
"p  c #7F6129",
"a  c #434343",
"s  c #4E4E4E",
"d  c gray33",
"f  c #5B5B5B",
"g  c #7F5F40",
"h  c #705F48",
"j  c gray39",
"k  c #875F33",
"l  c #8C6D2B",
"z  c #8E702C",
"x  c #9A792F",
"c  c #88673F",
"v  c #8B693F",
"b  c #986C35",
"n  c #936C3C",
"m  c #9A6E3A",
"M  c #96733F",
"N  c #99743F",
"B  c #9D783E",
"V  c #A17F31",
"C  c #A5733D",
"Z  c #A37D3E",
"A  c #AD7C3F",
"S  c #805F40",
"D  c #846340",
"F  c #8C6640",
"G  c #8E6840",
"H  c #926B40",
"J  c #996E40",
"K  c #977340",
"L  c #9C7040",
"P  c #88775E",
"I  c #A57540",
"U  c #A97740",
"Y  c #AC7A40",
"T  c #B07F40",
"R  c #A68233",
"E  c #AA8535",
"W  c #AE8935",
"Q  c #A7813E",
"!  c #AC853D",
"~  c #AF883D",
"^  c #B28C36",
"/  c #B3843F",
"(  c #B48B3D",
")  c #BA8D3D",
"_  c #BD933C",
"`  c #C1963C",
"'  c #C49A3C",
"]  c #CA9F3E",
"[  c #CCA03E",
"{  c #D0A33F",
"}  c #B38240",
"|  c #B98941",
" . c #A98A68",
".. c #C59641",
"X. c #C79841",
"o. c #CD9E42",
"O. c #CFA240",
"+. c #D3A641",
"@. c #D7A942",
"#. c #D8AA42",
"$. c #C39D62",
"%. c #CAA871",
"&. c #C2A688",
"*. c #EBDCBA",
"=. c #DEDFE1",
"-. c #E2E1E2",
";. c None",
/* pixels */
";.;.;.;.;.;.;.;.;.;.;.;.;.;.;.;.;.;.;.;.U U U I U U I I U U U U C U U U H S g g g g g g S S ;.;.;.;.;.;.;.;.;.;.;.;.;.;.;.;.;.",
";.;.;.;.;.;.;.;.;.;.;.;.;.;.;.;.;.;.;.;.U Y / / / } / / / / / / / ! / / Z N K m K F g g S S S ;.;.;.;.;.;.;.;.;.;.;.;.;.;.;.;.",
";.;.;.;.;.;.;.;.;.;.;.;.;.;.;.U U U U U U | ' X.' ' ' ' ' ' ' ' ' ' ' ' ' ' ' ' X.K g g S S g p ;.;.;.;.;.;.;.;.;.;.;.;.;.;.;.",
";.;.;.;.;.                  X < 2 2 2 < 2 4 9 9 9 9 9 9 9 9 9 9 9 9 9 9 9 9 9 9 9 2 , ; , , 5 , +           ;.;.;.;.;.;.;.;.;.",
";.;.;.;.;.# # # # # $ $ $ $ @       + +     +                         @ .       + o   + o                     ;.;.;.;.;.;.;.;.",
";.;.    # k b b n b E E W W z X     a s   6 f *                     > E q     * f 6   s a                     ;.;.;.;.;.;.;.;.",
";.;.  : 3 J U U } | ' ' ' ' ^ w ;   7 8 6 7 a 6 =                   > ( p 9 X % a 7 5 8 8 5 *               ;.;.;.;.;.;.;.;.;.",
";.;.;.S D I U U _ ' ' ' ' ' ' ' y     * j 8   s d +                 ; C ) ^ ;     8 j * = j 6             ;.;.;.;.;.;.;.;.;.;.",
";.;.g H L U I G ( ' ' ' ' ' ' ' R i -   5 7 a 6 6 a 5             r z ) ` _ l e   * 5 o O 5 +           ;.;.;.;.;.;.;.;.;.;.;.",
";.;.D L U U J g ! ' ' ' ' ' ' ' ' ' 9 @   6 f * + f 7         X - V ] ' ' ' ] x & # @ # * , +     + = ;.;.;.;.;.;.;.;.;.;.;.;.",
"g G I U U U J S ~ ' ' ' ' ' ' ' ' ' ( z .   +     +           w ^ ` ' ' ' ' ' ` ^ E E b  .-.j     a =.&.C ;.;.;.;.;.;.;.;.;.;.",
"g G U U U U J g ! ' ' ' ' ' ' ' ' ' ' W q 0 0 0 q 0 q 0 0 0 0 l ' ' ' ' ` ) ) ) ) ` ' ( $.*.P < < h *.%./ ;.;.;.;.;.;.;.;.;.;.",
"g G U U U U J g ~ ' ' ' ' ' ' ' ' ' ' ' ' ] @.@.@.@.@.@.@.@.@.O.' ' ' ' ) U Y C U ) ' ' ' ' / C I / ' ' ` Y U U ;.;.;.;.;.;.;.",
"g G U U U U J D ~ ' ' ' ' ' ' ' ' ' ' ' ' _ | | | | | | ' [ ] ' ' ' ' ' _ ) ) ) ) ` ' ' ' ' _ ) ) _ ' ' ' _ ) ) / U ;.;.;.;.;.",
"g G I U U U J S ~ ' ' ' ' ' ' ' ' ' ' ' ' ) U A U Y Y Y _ ' ' ' ' ' ' ' ' ' ' ' ' ' ' ' ' ' ' ' ' ' ` ` ` ' ' ' ( Y ;.;.;.;.;.",
"g G U U U Y J S ~ ' ' ' ' ' ' ' ' ' ' ' ' ' ` ` ` ` ` ` ' ' ' ' ' ' ' ' ' ' ' ' ' ' ' ' ' ' ' ' ' ) Y Y T ` ' ' ` ` Y U ;.;.;.",
"g G U U U U J g ! ' ) _ _ ~ W ' ' ' ' ' ' ' ' ' ' ' ' ' ' ' ' ' ' ' ' ' ' ' ' ' ' ' ' ' ' ' ' ' ' _ / ! } ' ' ' ' ` Y U ;.;.;.",
"g G U U U U J D ~ ' U C Z v c _ ' ' ' ' ' ' ' ' ' ' ' ' ' ' ' ' ' ' ' ' ' ' _ _ ' ' ' ' ' ' ' ' ' ' ' ' ' ' ' ' ' ' Y U ;.;.;.",
"g G U U U U K g G B ( _ ) v P ' ' ' ' ' ' ' ' ' ' ' ' ' ' ' ' ' ' ' ' ' ' ' ' R w 4 4 9 9 9 9 w ^ ' ' ' ' ' ' ' ' ' _ ( U ;.;.",
"g G U U U U K D g F _ [ _ M g ` ' ' ' ' ' ' ` ' ' ' ' ' ' ' ` _ ' ' ' ' ' ' ' R $ .   .     . - E ' ' ' ' ' ' ' ' ' ' ) U ;.;.",
"g G U U U U U I F c _ ' ' Q h _ ' ' ' ' ' ) U _ ' ' ' ' ' ` A ) ' ' ' ' ' ' ] | W w         r ^ ` ' ' ' ' ' ' ' ' ' ' ) U ;.;.",
"g G U U U U U U F c _ ' ' g p ` ' ' ' ' ' _ } _ ' ' ' ' ' _ / ) ' ' ' ' ' ' ' ' [ i 4 . @ 9 z [ ' ' ' ' ' ' ' ' ' ` / ! U ;.;.",
"g G U U U U U U F c _ ' ' Q g _ ' ' ' ' ' ' ' ' ' ' ' ' ' ' ' ' ' ' ' ' ' ' ' ' _ ' ^ - 1 _ ' ' ' ' ' ' ' ' ' ' ' _ F G U ;.;.",
"g G U U U U U U F c _ ' ' | ! Q ! ' ' ' ' ' ' ' ' ' ) / _ ' ' ' ' ' ' ' ' ' ' ' ' [ _ t u _ ' ' ' ' ' ' ' ' ' ' ' _ D n ) / U ",
"D H I I U U U I H H _ ' ' ' _ g Q ' _ _ ' ' ' ] ' ' ) A _ ' ' ' ' ' ' ' ' ' ' ' ' _ ( K M _ _ ' ' ' ' _ [ [ _ _ _ ) v B [ ! U ",
"_ ! D J U U J D ! _ ' ' ' ' ' _ Q g g F ' ' ' | ' ' ' _ ' ' ' ' ' ' ' ' ' ' ' ] [ Q D ^ ! c ! ' ' ' ' ' [ _ ~ c D G ( ' @.| U ",
"' ( N K J J K N ^ ' ' ' ' ' ' ' } K M R } ! } } ( ' ' ' ' ' ' ' ' ' [ _ _ } } } ! Q N _ _ M Q Q ! } } } } } Q M M B ' { @.| I ",
"' ' ' N S g N ' ' ' ' ' ' ' ' ' ' _ ' _ c h g p v ` ' ' ' ` ' ' ' ' _ [ Q u h p h Q ' ' ' ' Q h p g h D h p M _ ' ' @.@.@.| I ",
"' ) / ! ! ! ( ' ' ' ' ' ' ' ' O.O.O.' ' ! ! Q Q Q M M M M M M M M M N M R Q Q Q Q _ { { O.+._ ! ! ! ! ~ } ! ( +.+.{ @.o.| } ;.",
"' ) U ) ' ' ' ' ' ' ' ' ] ' ' #.#.#.O.' [ ' [ [ ) c c c c c c c D D c D Q [ [ [ [ [ #.#.+.#.O.' ' [ ' ' [ ' O.#.@.@.@.X.U ;.;.",
"' ) U Y T ` ' ' ' ' ' ] #.+.+.#.+.#.#.+.@.{ @.@.[ _ _ _ _ _ ( _ ( _ _ _ O.O.#.#.{ #.@.@.#.#.+.+.#.#.+.+.+.+.+.#.@.@.@.X.U ;.;.",
"' ` / Y A ` ' ' ' ' ] O.#.#.#.#.#.#.#.#.@.@.@.@.@.[ [ [ ] ] [ [ [ [ [ O.O.@.#.#.#.@.@.@.#.#.#.#.#.#.#.#.#.#.#.#.+.{ +.X.U ;.;.",
"' ' ' / Y ` ' ' ' ' @.@.@.@.@.@.@.@.@.@.@.@.@.@.@.@.@.@.@.@.@.@.@.@.@.@.@.@.@.@.@.@.@.@.@.@.@.@.@.@.@.@.@.@.@.@.o.' ' ' ;.;.;.",
"' ' ' / Y ` ' ' ' ] @.@.@.@.@.@.@.@.@.@.@.@.@.@.@.@.@.@.@.@.@.@.@.@.@.@.@.#.@.@.@.@.@.@.#.@.@.#.@.@.@...| X.' | / / / / ;.;.;.",
"' ' ' A Y ` ' ' ' ] @.@.@.@.@.@.@.@.@.@.@.@.@.@.@.@.@.@.@.@.@.@.@.@.@.@.@.@.@.@.@.@.@.+.+.+.+.+.@.+.@.) A ` ) A Y Y Y Y ;.;.;.",
"' ' ' / Y Y / ' ' ' @.@.@.@.@.@.@.@.@.@.@.@.@.@.@.@.@.@.@.@.@.@.@.@.@.@.@.@.@.@.@.#.@.} Y Y T T ' ' ' ` ' ' ' ` ` ` ` ' ' ' ' ",
"' ' ' ) A A T ) ` ' [ @.@.@.@.@.@.@.@.@.@.@.@.@.@.@.@.@.@.@.@.@.@.@.@.@.@.@.@.@.@.@.+./ T } / / ` ' ' ' ' ' ' ' ' ' ' ' ' ' ' ",
"' ' ' ' ` A C A ) ' ' ] @.@.@.@.@.@.@.@.@.@.@.#.@.@.@.@.@.@.@.@.@.@.@.@.@.@.@.@.@.] ' ' ..' ' ' ' ' ' ' ' ' ' ' ' ' ' ' ' ' ' ",
"' ' ' ' ` ) ) ) ( / A | | | | | | | ' [ ] ] ] ] o.] ] ] ] ] ] ] ] ] ] ] ] ] ] ] ] ' ' ' ' ' ' ' ' ' ' ' ' ' ' ' ' ' ' ' ' ` ' ",
"' ' ' ' ' ' ' ' A U U U U I U C U U ` ' ' ' ' ' ' ' ' ' ' ' ' ' ' ' ' ' ' ' ' ' ' ' ' ' ' ' ' ' ' ' ' ' ' ' ' ' ' ' ' ' ' ' ' "
};
