/* XPM */
static char *frame_007_png[] = {
/* columns rows colors chars-per-pixel */
"63 40 118 2 ",
"   c #010100",
".  c #080603",
"X  c #0B0805",
"o  c #070808",
"O  c #0B0B0C",
"+  c #110C06",
"@  c #171206",
"#  c #1A1408",
"$  c #131212",
"%  c #1B1B1C",
"&  c #231B0B",
"*  c #32270F",
"=  c #2F2112",
"-  c #382613",
";  c #342910",
":  c #3A2916",
">  c #3E3113",
",  c #242425",
"<  c gray18",
"1  c gray21",
"2  c #3C3C3C",
"3  c #453615",
"4  c #4A3A16",
"5  c #4E3D18",
"6  c #4F3B28",
"7  c #54431E",
"8  c #604B1E",
"9  c #66501F",
"0  c #5F4324",
"q  c #654C2C",
"w  c #6E5522",
"e  c #70562E",
"r  c #6F5238",
"t  c #70543A",
"y  c #7E5D3E",
"u  c #7F6427",
"i  c #434241",
"p  c #504D4A",
"a  c #535353",
"s  c #6F5E47",
"d  c #765A40",
"f  c #7E5F40",
"g  c #766642",
"h  c #7C6046",
"j  c #646464",
"k  c #6B6A69",
"l  c #846828",
"z  c #8F702C",
"x  c #93732D",
"c  c #99782F",
"v  c #88673F",
"b  c #8B693F",
"n  c #926D3E",
"m  c #96733E",
"M  c #99743F",
"N  c #9D783E",
"B  c #A3743E",
"V  c #A37D3E",
"C  c #AD7C3F",
"Z  c #846340",
"A  c #8C6640",
"S  c #8D6840",
"D  c #926B40",
"F  c #996E40",
"G  c #977340",
"H  c #9C7040",
"J  c #866A50",
"K  c #8D6F52",
"L  c #8D7156",
"P  c #87765D",
"I  c #A57541",
"U  c #A97740",
"Y  c #AC7A40",
"T  c #B07F40",
"R  c #A68134",
"E  c #A88433",
"W  c #AD8835",
"Q  c #A7813E",
"!  c #AC853D",
"~  c #AF883D",
"^  c #B38D37",
"/  c #B3843E",
"(  c #B58B3D",
")  c #BA8D3D",
"_  c #BD933D",
"`  c #C1963C",
"'  c #C49A3C",
"]  c #CA9F3E",
"[  c #CCA03E",
"{  c #D0A33F",
"}  c #B48341",
"|  c #B98941",
" . c #BC976F",
".. c #C59641",
"X. c #C79841",
"o. c #CD9E42",
"O. c #CFA240",
"+. c #CEA44A",
"@. c #D3A641",
"#. c #D7A942",
"$. c #D8AA42",
"%. c #D9AD48",
"&. c #CCA653",
"*. c #C5A35C",
"=. c #C29C61",
"-. c #CAA771",
";. c #BBB8B8",
":. c #C8AB8B",
">. c #CBBB98",
",. c #EFD8A5",
"<. c #E8D8B3",
"1. c #EBDBB9",
"2. c #EFE0BD",
"3. c #ECE0CA",
"4. c #EBE7E2",
"5. c #EDEAE8",
"6. c #F1EEEB",
"7. c None",
/* pixels */
"7.7.7.7.7.7.7.7.7.7.7.7.7.7.7.7.7.    $ j 1   a a .                 & B n t @     2 j $ % k <             7.7.7.7.7.7.7.7.7.7.",
"7.7.7.7.7.7.7.7.7.7.7.7.7.7.7.7.0 : + O i 1 , 2 2 , $           . ; q C V n 7 *   , 6 O $ i %             7.7.7.7.7.7.7.7.7.7.",
"7.7.7.7.7.7.7.7.7.7.7.7.7.7.7.U U B =     < j % $ j 1           . c ' ' ' ' ' x o   o                 7.7.7.7.7.7.7.7.7.7.7.7.",
"7.7.7.7.7.7.7.7.7.U U U U U U U / ( x 9 . O , o o , $         > l ) ' ' ' ' ' ^ u u u u e 6 0 7 7.7.7.7.7.7.7.7.7.7.7.7.7.7.7.",
"7.7.7.7.7.7.7.7.C B T Y C C C C / ' ] R & @ @ @ @ @ @ # @ @ + w ] ' ' ' ' ' ' ' X.] [ ] ( S v v 7.7.7.7.7.7.7.7.7.7.7.7.7.7.7.",
"7.7.7.7.7.U U U B C ` ` ` ` _ _ ' ' ' ` W W W W W W W W W R n ! ' ' ' ' ' ' ' ' ' ` ` ' _ _ _ _ b f 7.7.7.7.7.7.7.7.7.7.7.7.7.",
"7.7.7.7.7.U U U / / ` ' ' ' ' ' ' ' ' ' ' ' ' ' ' ' ' ' ' ` C / ' ' ' ) ) ' ' ' ' ' ' ' [ _ [ _ b f 7.7.7.7.7.7.7.7.7.7.7.7.7.",
"7.7.7.f Z I U U ) ' ' ' ' ' ' ' ' ' ' ' ' ' ' ' ' ' ' ' ' ` B ) ' ' ` B ) ' ' ' ' ' ' ' _ [ _ _ v f 7.7.7.7.7.7.7.7.7.7.7.7.7.",
"7.7.f D F U H A / ' ' ' ' ' ' ' ] ' V m m G M G M M H H M n D I / ` ' ) ` ' ' ' ' ' ' / C m M M Z Z y 7.7.7.7.7.7.7.7.7.7.7.7.",
"7.7.Z H U U F Z ~ ' ' ' ' ' ' ' ' ` m A L L K d r r t t J K Z F C _ ' ' ' ' ' ' ' ' ' ! H L f r r d L 7.7.7.7.7.7.7.7.7.7.7.7.",
"f S I U U U F f / ' ' ' ' ' ' ' ' ' _ *.4.6.4.i . X X $ ;.3.+.] ` ' ' ` ' ' ' ' ' ' ` C  .6.k X . p 5.:.B 7.7.7.7.7.7.7.7.7.7.",
"f S U U U U F Z ~ ' ' ' ' ' ' ' ' ' ' &.<.2.1.g 4 4 4 5 >.,.%.O.' ' ' ' ` ) ) ) ) ` ` | =.1.P - - s 1.-./ 7.7.7.7.7.7.7.7.7.7.",
"f S U U U U F f ~ ' ' ' ' ' ' ' ' ' ' ' ' [ #.#.#.#.#.#.#.#.#.[ ' ' ' ' ( U U U U ) ' ` ' ' / B I / ' ' ` Y Y U 7.7.7.7.7.7.7.",
"Z b U U U U F f ~ ' ' ' ' ' ' ' ' ' ' ' ' _ | | | | | | ' o.[ ] ' ' ' ' ` ) ) ) ) ` ' ' ' ' _ ) ) _ ' ' ' _ ) ) / U 7.7.7.7.7.",
"f A U U U U F Z ~ ' ' ' ' ' ' ' ' _ ' ' ' ( U C C C C C _ ' ` ' ' ' ' ' ' ' ' ' ' ' ' ' ' ' ' ' ' ' ` ` ` ' ' ' / Y 7.7.7.7.7.",
"f A U U U U F Z ~ ' ' ' ' ' ' ' ' ' ' ' ] ` ` ` _ _ ` ` ` ' ' ' ' ' ' ' ' ' ' ' ' ' ' ' ' ' ' ' ' ) Y Y Y ` ' ' ' ` Y U 7.7.7.",
"Z b U U U U F f ~ _ ( _ _ ~ ~ ' ' ' ' ' ' ' ' ' ' ' ' ' ' ' ' ' ' ' ' ' ' ' ' _ [ _ [ _ ' ' ' ' ' _ / / / _ ' ' ] ` Y U 7.7.7.",
"f S U U U U F f ~ _ } Y I Z v ' ' ' ' ' ' ' ' ' ' ' ' ' ' ' ' ' ' ' ' ' ' ' ' ' _ [ _ [ ' ' ' ' ' ' ' ' ' ' ' ' ' ` Y U 7.7.7.",
"f A U U U U F f D N ^ | _ S b _ ' ' ' ' ' ' ' ' ' ' ' ' ' ' ' ' ' ' ' ' ' ' ' R 4 3 3 3 3 3 3 7 W ' ' ' ' ' ' ' ' ' _ } U 7.7.",
"Z S U U U U F v g Z _ [ _ m b _ ' ' ' ' ' ' ` ` ' ' ' ' ' ' ` ` ' ' ' ' ' ' [ x # .         . & E ' ' ' ' ' ' ' ' ' ' _ U 7.7.",
"f A U U U U U I b v _ ' ' m v _ ' ' ' ' ' ( C _ ' ' ' ' ' _ C ( ' ' ' _ ' ' ' _ W 4         8 ^ ' ' ' ' ' ' ' ' ' ' ' _ U 7.7.",
"f A U U U U U U S b _ ' _ m v _ ' ' ' ' ' _ / _ ' ' ' ' ' _ / ) ' ' ' ' ' ' ' ' [ u > + + 3 z ' ' ' ' ' ' ' ' ' ' _ ( Q U 7.7.",
"Z S U U U U U U v b ` ' _ m b _ ' ' ' ' ' ' ' ' ' ' ' ' ' ' ' ' ' ' ' ' ' ' ' ' ' ' ^ # ; _ ' ' ' ' ' ' ' ' ' ' ] _ v A U 7.7.",
"f A U U U U U U v b _ ' [ ~ E m ! ' ' ' ' ' ' ' ' ' ) / ` ' ' ' ' ' ' ' ' ' ' ' ' ' _ q e ' ' ' ' ' ' ' ' ' ' ' ' _ Z n ( } U ",
"Z b I I B U U I b m _ ' ' [ _ v M _ _ _ ' ' ' ' ' ' ) C _ ' ' ' ' ' ' ' ' ' ' ' ' _ ( G m ( ' ' ' ' ' ' ' ' ' _ _ ( n G [ ( U ",
"_ C Z M Y Y F Z E _ ' ' ' _ ' _ Q v v n ' ' ' ' ' ' ` ` ' ' ' ' ' ' ' ' ' ' ' ] [ Q v ^ ~ v ! ' ' ' ' ' ' ' ~ v Z S ^ X.@.| U ",
"' ( M M F F F M ^ ' ' ' ' ' ' ' ~ m m N ! ! ! ! ^ ' ' ' ' ' ' ' ' ' ' ' ^ ! ! ! Q N M _ ( N V ! ! ~ ! Q ! ! V m M N ' { #.| U ",
"' ' ' m Z Z M ` ' ' ' ' ' ' ' ' [ _ ' ( v y h y b ` ' ' ' ` ' ' ' ' ' ' Q g h y y Q ' ' ' ' N h y y h v y y m ' ` ' #.#.@.| U ",
"' ) / / C ! ( ' _ [ ' ' _ [ [ [ [ { [ _ ! ! ! ! Q m m m m n M m M M m N N Q ! Q ! _ @.@.[ { _ ! ! ! ! ! ! ! ( [ @.{ #.o.| } 7.",
"' ) U ) ` ' ' ' [ _ _ [ [ _ [ #.$.#.[ [ ] ] ] ' _ v Z v v v A Z v y v y Q [ [ [ [ [ #.#.$.#.[ [ ' [ ' ] ] ] [ $.#.#.#.X.U 7.7.",
"' ) B T C ` ' ' _ [ [ { { { #.#.#.#.{ { @.#.@.#.O._ _ _ _ _ _ _ _ _ _ _ [ { @.#.#.#.#.#.#.#.#.@.@.#.#.@.#.@.#.#.#.#.#.X.U 7.7.",
"' _ / C C ` ' ' [ _ [ { $.{ #.#.#.$.$.$.#.$.#.$.@.[ [ [ ] ] ] ] [ [ [ { { { #.#.#.#.#.#.$.#.#.#.$.#.#.#.#.#.#.#.@.{ @.X.U 7.7.",
"' ' ' / Y ' ' ' ' ' $.$.$.#.#.#.#.#.#.#.#.#.#.#.#.#.#.#.#.#.#.#.#.#.#.#.#.#.#.#.#.#.$.$.$.#.#.#.$.@.#.#.#.#.#.#.o.' ' ' 7.7.7.",
"' ' ' / Y ` ' ' ' ' $.#.$.#.#.#.#.#.#.#.#.#.#.#.#.#.#.#.#.#.#.#.#.#.#.#.#.#.#.#.#.#.$.$.$.$.#.$.$.$.#...| X.' | / / C / 7.7.7.",
"' ' ' / Y _ ' ' ' ' #.#.#.#.#.#.#.$.#.#.#.#.$.#.#.$.#.#.#.#.#.#.#.#.#.#.#.#.#.#.#.#.#.@.@.@.o.@.@.#.#.) T ` ) C Y U T C 7.7.7.",
"' ' ' C U U ) ' ' ' $.#.#.#.#.#.#.#.#.#.#.#.#.#.#.#.#.#.#.#.#.#.#.#.#.#.#.#.$.#.$.#.$.} Y U T T ' ' ' ` ` ' ' ` ` ` ` ' ' ' ' ",
"' ' ' ) C C T ) ` ' { @.#.#.#.$.$.$.#.#.#.#.$.$.#.#.#.#.#.#.#.#.#.#.#.#.#.#.#.#.$.@.o.) T } } / ` ' ' ' ' ' ' ' ' ' ' ' ' ' ' ",
"' ' ' ' ` C B C ) ' ' ] #.#.#.#.$.$.#.#.#.#.#.$.#.#.#.#.#.#.#.#.#.#.#.$.#.#.#.#.$.] ' ' ' ' ' ' ' ' ' ' ' ' ' ' ' ' ' ' ' ' ' ",
"' ' ' ' ` ) ) ) ) C C | | | } | | | X.] ' ] ] ] ' ] ] ] ] ] ] ] ] ] ] ] ] ] ] ] ] ' ' ' ' ' ' ' ' ' ' ' ' ' ' ' ' ' ' ' ' ' ' ",
"' ' ' ' ' ' ' ' / U U U U U U U U Y ) ' ' ' ' ' ' ' ' ' ' ' ' ' ' ' ' ' ' ' ' ' ' ' ' ' ' ' ' ' ' ' ' ' ' ' ' ' ' ' ' ' ' ' ' "
};
