/* XPM */
static char *frame_002_png[] = {
/* columns rows colors chars-per-pixel */
"63 40 98 2 ",
"   c #010100",
".  c #080603",
"X  c #0B0805",
"o  c #120E06",
"O  c #1A1408",
"+  c #151210",
"@  c #221A0A",
"#  c #2A1D10",
"$  c #382613",
"%  c #342910",
"&  c #3E3113",
"*  c #453615",
"=  c #4A3A16",
"-  c #4E3D18",
";  c #52421E",
":  c #694A28",
">  c #70562E",
",  c #6F5238",
"<  c #70543A",
"1  c #7E5D3E",
"2  c #464341",
"3  c #504D4A",
"4  c #6F5E47",
"5  c #765A40",
"6  c #7E5F40",
"7  c #766642",
"8  c #7C6046",
"9  c #6F6C69",
"0  c #8F702C",
"q  c #97772E",
"w  c #88673F",
"e  c #8B693F",
"r  c #916E3F",
"t  c #96733E",
"y  c #98743F",
"u  c #9D793E",
"i  c #A3743D",
"p  c #A37D3E",
"a  c #AC7C3E",
"s  c #805F40",
"d  c #846340",
"f  c #8C6640",
"g  c #8E6840",
"h  c #926B40",
"j  c #996E40",
"k  c #977340",
"l  c #9C7040",
"z  c #866A50",
"x  c #8D6F52",
"c  c #8D7156",
"v  c #87765D",
"b  c #A57541",
"n  c #A97740",
"m  c #AB7A40",
"M  c #B07F40",
"N  c #A58233",
"B  c #AF8A36",
"V  c #A7813E",
"C  c #AC853D",
"Z  c #AF883D",
"A  c #B28B36",
"S  c #B3843E",
"D  c #B58B3D",
"F  c #BA8D3D",
"G  c #BD933D",
"H  c #C1963C",
"J  c #C49A3C",
"K  c #CA9F3E",
"L  c #CCA03E",
"P  c #D0A33F",
"I  c #B48341",
"U  c #B98941",
"Y  c #BC976F",
"T  c #C59641",
"R  c #C79841",
"E  c #CD9E42",
"W  c #CFA240",
"Q  c #CEA44A",
"!  c #D3A641",
"~  c #D7A942",
"^  c #D8AA42",
"/  c #D9AD48",
"(  c #CCA653",
")  c #C5A35C",
"_  c #C29C61",
"`  c #CAA771",
"'  c #BBB8B8",
"]  c #C8AB8B",
"[  c #CBBB98",
"{  c #EFD8A5",
"}  c #E8D8B3",
"|  c #EBDBB9",
" . c #EFE0BD",
".. c #ECE0CA",
"X. c #EBE7E2",
"o. c #EDEAE8",
"O. c #F1EEEB",
"+. c None",
/* pixels */
"+.+.+.+.+.+.+.+.+.+.+.+.+.+.+.+.+.+.+.+.# # # # # # # # # # # : n n n n h 6 6 6 6 6 6 6 6 6 +.+.+.+.+.+.+.+.+.+.+.+.+.+.+.+.+.",
"+.+.+.+.+.+.+.+.+.+.+.+.+.+.+.+.+.+.+.+.i i a a a a a p a N a C S S S S a t t t t f 6 6 6 w 1 +.+.+.+.+.+.+.+.+.+.+.+.+.+.+.+.",
"+.+.+.+.+.+.+.+.+.+.+.+.+.+.+.n n m n n n S J J J J J J J J J J J J J J H J J J J u 6 6 8 1 6 6 +.+.+.+.+.+.+.+.+.+.+.+.+.+.+.",
"+.+.+.+.+.+.+.+.+.n n n n n n n I F F F F G J J J J J J J H B F J J J J J J J J J D C C u 1 6 6 +.+.+.+.+.+.+.+.+.+.+.+.+.+.+.",
"+.+.+.+.+.+.+.+.n n m m m m a a S J J J J J J J J J J J J F a S J J J J J J J J J J J J D w w w +.+.+.+.+.+.+.+.+.+.+.+.+.+.+.",
"+.+.+.+.+.n n n n m H H H H H G J J J J J J J J J J J J J H a S J J J J J J J J J J J J J G G G w 8 +.+.+.+.+.+.+.+.+.+.+.+.+.",
"+.+.+.+.+.n n n a D J J J J J J J J J J J J J J J H J J H F a S J J H F H J J J J J J J J J J G e w +.+.+.+.+.+.+.+.+.+.+.+.+.",
"+.+.+.6 d b n n F J J J J J J J J J J J J J J J J J J J J H a F J H H n D J J J J J J J J J J G e 5 +.+.+.+.+.+.+.+.+.+.+.+.+.",
"+.+.6 h b i b g S J J J J J J J J J p y t t t k y y l l y t g i S H H F H J J J J J J U a t y y d s 1 +.+.+.+.+.+.+.+.+.+.+.+.",
"+.+.d l n n j 6 Z J J J J J J J J J y d x c c 5 , , < < z x d l m H J J J J J J J J J m b c 6 < , 5 c +.+.+.+.+.+.+.+.+.+.+.+.",
"6 g b n n n j s Z J J J J J J J J J G ) X.O.X.2 . X X + ' ..Q R H H J J J J J J J J G a Y o.9 . . 3 o.] i +.+.+.+.+.+.+.+.+.+.",
"6 g n n n n j s Z J J J J J J J J J J ( }  .| 7 = = = - [ { / L J J J J H F F F G G J U _ | v $ $ 4 | ` S +.+.+.+.+.+.+.+.+.+.",
"6 g n n n n j s Z J J J J J J J J J J J J E ~ ~ ~ ~ ~ ~ ^ ^ ^ L J J J J D n n n b D J J J J S i n S J J H m n n +.+.+.+.+.+.+.",
"6 g n n n n j s Z J J J J J J J J J J J J H U U U U U U R L L L J J J J H F F F F G J J J J G F F F J J J G F F S n +.+.+.+.+.",
"6 e n n n n j s Z J J J J J J J J J J J J D n m n a a a G J J J J J J J J J J J J J J J J J J J J J H H H J J J D n +.+.+.+.+.",
"6 g n n n n j s Z J J J J J J J J J J J J J J H H G G J G J J J J J J J J J J J J J J J J J J J J G m m m H J J H H M b +.+.+.",
"s g n n n n r 1 Z H G F G Z Z J J J J J J J J J J J J J J J J J J J J J J J J J J J J J J J J J J G S Z S J J J J H a n +.+.+.",
"s g n n n a t w Z H a p b r 7 H J J J J J J J J J J J J J J J J J J J J J J J J J J G J J J J J J J J J J J J J J J m n +.+.+.",
"s g n n n n j 8 e u D F F r e H J J J J J J J J J J J J J J J J J J J J J J J N = * * * * * * ; B J J J J J J J J J G S n +.+.",
"s g n n n n j d 6 f G L G t f G J J J J J H H H J J J J J J H H J J J J J J J q O .         X @ N J J J J J J G J J J F n +.+.",
"s h n n n n b b f w G J J k d G J J J J J D a G J J J J J H a D J J J J J J J G B =         ; A J J J J J J J J J J J G n +.+.",
"6 s n n n n n n f w G J G k f G J J J J J G S G J J J J J H S F J J J J J J J J L > & o o * q J J J J J J J J J J H Z a n +.+.",
"s g n n n n b a g w G J G k w G J J J J J J J J J J J H J J J J J J J J J J J J L J A @ % G J J J J J J J J J J J G f f n +.+.",
"s h n n n n n n f w G J J A V t V J J J J J J J J J F S H J J J J J J J J J J J J J G : > H J J J J J J J J J J L G d h F S n ",
"s j b b a n n b e r G L G L G 0 u F G G J J J J J J D m H J J J G L G J J J J J G G G r t F J J J J J J J J J G G D e u J I b ",
"F a d j n n l s V G J J L G G G V w w r J J J J J J J H H J J J L G L G J J J J L V w D C w C J J J J J J J Z w f e D J ~ U b ",
"J D y t j j j y A L J J G L G L Z t t u V C V C D J J J J J J J G L G J A Z C Z C V y G F y p C C C C C C C V t t u J P ~ U a ",
"J J J t s s y J J J J J L G L G J G J D w 1 w 8 e H J J J J J J L G L J N 7 1 1 5 V J J J J u 1 1 d 6 6 8 6 t J H J ~ ~ ~ U b ",
"J G S S C S D J J J J J J J L P P P L G Z C C C V y t t t t t t t t t t N V C V C G P P P P G C C C C C C C D L P P ~ E U I +.",
"J F n D H J J J J J J J L G L ^ ^ ^ L L J J J L G w d w w w d d w 7 w w V L L L L L ~ ~ ~ ^ P K J K J K J K L ^ ~ ~ ~ R n +.+.",
"J F n m a H J J J J J L P P P ^ ~ ^ P P ~ ~ ! ~ W G G G G G G G G G G G U / ! ~ ~ ~ ~ ~ ~ ~ ^ P P ^ ~ ~ P ~ P ^ ~ ~ ^ R n +.+.",
"J G S M a H J J J J L P ^ ^ ~ ~ ~ ^ ^ ^ ~ ~ ~ ~ ! L K L K K K K L L L P P ^ ~ ~ ~ ~ ~ ~ ^ ^ ^ ~ ^ ^ ^ ^ ^ ^ ^ ^ ~ P ~ R n +.+.",
"J J H S a H J J J K ~ ~ ~ ~ ~ ~ ~ ~ ~ ~ ~ ~ ~ ~ ~ ~ ~ ~ ~ ~ ~ ~ ~ ~ ~ ~ ~ ~ ~ ~ ~ ~ ~ ~ ~ ~ ~ ~ ~ ~ ~ ~ ~ ~ ^ ^ K K J J +.+.+.",
"J J J S n H J J J J ! ~ ~ ~ ~ ~ ~ ~ ~ ~ ~ ~ ~ ~ ~ ~ ~ ~ ~ ~ ~ ~ ~ ~ ~ ~ ~ ~ ~ ~ ~ ~ ~ ^ ^ ^ ^ ~ ~ ^ ^ T T R T M S a S a +.+.+.",
"J J J S m H H J J K ~ ~ ~ ~ ~ ~ ~ ~ ~ ~ ~ ~ ~ ~ ~ ~ ~ ~ ~ ~ ~ ~ ~ ~ ~ ~ ~ ~ ~ ~ ~ ~ ~ ~ ! E ! ! ! ! ! H a H H a m m a M +.+.+.",
"J J H S n m D J J J ~ ~ ~ ~ ~ ~ ~ ~ ~ ~ ~ ~ ~ ~ ~ ~ ~ ~ ~ ~ ~ ~ ~ ~ ~ ~ ~ ^ ~ ~ ~ ^ ! M M M m M H J J H H H H H H H J J J J J ",
"J J J D a m S F H J P ! ~ ~ ~ ~ ~ ~ ~ ~ ~ ^ ^ ^ ~ ~ ~ ~ ~ ~ ~ ~ ~ ~ ~ ~ ~ ~ ~ ~ ^ ! P S M M M S H J J J J J J J J J J J J J J ",
"J J J J H M n n H J J P ~ ~ ~ ~ ! ! ~ ~ ~ ~ ~ ! ~ ~ ~ ~ ~ ~ ~ ~ ~ ~ ~ ~ ~ ~ ~ ~ ~ P J J J J J K J J J J J J J J J J J J J J J ",
"J J J J H F F F a S a I U U U U I T J K K K P K E K K K K K K K K K K K K K K K K K J J J J J J J J J J J J J J J J J J J J J ",
"J J J J J J J J a n a b n n n b b n H J J J J K J J J J J J J J J J J J J J J J J H J J J J J J J J J J J J J J J J J J J J J "
};
