/* XPM */
static char *frame_005_png[] = {
/* columns rows colors chars-per-pixel */
"63 40 115 2 ",
"   c black",
".  c #080603",
"X  c #0B0805",
"o  c #0C0C0C",
"O  c #120E06",
"+  c #1A1408",
"@  c #131211",
"#  c gray11",
"$  c #221B0A",
"%  c #2C2116",
"&  c #302212",
"*  c #382613",
"=  c #362A13",
"-  c #3E3113",
";  c #232424",
":  c gray19",
">  c gray22",
",  c #453615",
"<  c #4A3A16",
"1  c #49331C",
"2  c #4E3D18",
"3  c #52421E",
"4  c #614D1E",
"5  c #5C452F",
"6  c #654C2C",
"7  c #6D4D29",
"8  c #7B5F27",
"9  c #70562E",
"0  c #6F5238",
"q  c #70543A",
"w  c #7E5D3E",
"e  c #7F6327",
"r  c #434241",
"t  c #504D4A",
"y  c #6F5E47",
"u  c #765A40",
"i  c #7E5F40",
"p  c #766642",
"a  c #7C6046",
"s  c gray40",
"d  c #6B6A69",
"f  c #835C32",
"g  c #836628",
"h  c #8F702C",
"j  c #97772E",
"k  c #826434",
"l  c #8A6134",
"z  c #88673F",
"x  c #8B693F",
"c  c #916E3F",
"v  c #9A7334",
"b  c #96733E",
"n  c #99743F",
"m  c #9D793E",
"M  c #A3743E",
"N  c #A37D3E",
"B  c #AD7C3F",
"V  c #805F41",
"C  c #846340",
"Z  c #8C6640",
"A  c #8E6840",
"S  c #926B40",
"D  c #996E40",
"F  c #977340",
"G  c #9C7040",
"H  c #866A50",
"J  c #8D6F52",
"K  c #8D7156",
"L  c #87765D",
"P  c #A57541",
"I  c #A97740",
"U  c #AB7A40",
"Y  c #B07F40",
"T  c #A58233",
"R  c #AF8A36",
"E  c #A7813E",
"W  c #AC853D",
"Q  c #AF883D",
"!  c #B28B36",
"~  c #B3843E",
"^  c #B58B3D",
"/  c #BA8D3E",
"(  c #BD933D",
")  c #C1963D",
"_  c #C49A3C",
"`  c #CA9F3E",
"'  c #CCA03E",
"]  c #D0A33F",
"[  c #B48341",
"{  c #B98941",
"}  c #BC976F",
"|  c #C59641",
" . c #C79841",
".. c #CD9E42",
"X. c #CFA240",
"o. c #CEA44A",
"O. c #D3A641",
"+. c #D7A942",
"@. c #D8AA42",
"#. c #D9AD48",
"$. c #CCA653",
"%. c #C5A35C",
"&. c #C29C61",
"*. c #CAA771",
"=. c #BBB8B8",
"-. c #C8AB8B",
";. c #CBBB98",
":. c #EFD8A5",
">. c #E8D8B3",
",. c #EBDBB9",
"<. c #ECE0CA",
"1. c #EBE7E2",
"2. c #EDEAE8",
"3. c #F1EEEB",
"4. c None",
/* pixels */
"4.4.4.4.4.4.4.4.4.4.4.4.4.4.4.4.4.4.      : s # @ s >           . f I I S i i 5                       4.4.4.4.4.4.4.4.4.4.4.4.",
"4.4.4.4.4.4.4.4.4.4.4.4.4.4.4.4.4.4.1 & . # r @ o r ;         $ 2 v ~ ~ M n n k < = % % % % % % X     4.4.4.4.4.4.4.4.4.4.4.4.",
"4.4.4.4.4.4.4.4.4.4.4.4.4.4.4.I I I I l X                     4 _ _ _ _ _ _ _ _ _ m i i w w w a 4.4.4.4.4.4.4.4.4.4.4.4.4.4.4.",
"4.4.4.4.4.4.4.4.4.I I I I I I I ~ / { ! g e e e e e e e e 8 7 v _ _ _ _ _ _ _ _ _ ^ E Q N a w w 4.4.4.4.4.4.4.4.4.4.4.4.4.4.4.",
"4.4.4.4.4.4.4.4.I I U U U U U U ^ _ _ _ ` _ _ ` ` _ ` _ ` ) U ^ _ _ _ _ _ _ _ _ _ _ _ _ ^ x z z 4.4.4.4.4.4.4.4.4.4.4.4.4.4.4.",
"4.4.4.4.4.I I I I I ( ) _ ( _ ( ) _ _ _ _ _ _ _ _ _ _ _ _ ( I ^ _ _ _ _ _ _ _ _ _ _ _ _ _ ( ( ( x i 4.4.4.4.4.4.4.4.4.4.4.4.4.",
"4.4.4.4.4.I I I B ^ _ _ _ _ _ _ _ _ _ _ _ _ _ _ _ _ _ _ _ / I { _ _ ) / ) _ _ _ _ _ _ _ _ _ _ ( x i 4.4.4.4.4.4.4.4.4.4.4.4.4.",
"4.4.4.i C P I I ( _ _ _ _ _ _ _ _ _ _ _ _ _ _ _ _ _ _ _ _ ) I ^ _ _ ( B ~ _ _ _ _ _ _ _ _ _ _ ( z i 4.4.4.4.4.4.4.4.4.4.4.4.4.",
"4.4.i S G I P Z [ _ _ _ _ _ _ _ _ _ N F b b b G G n n n n c x M ~ ) ) / ) _ _ _ _ _ _ ^ B F b b C i w 4.4.4.4.4.4.4.4.4.4.4.4.",
"4.4.C G I I D i Q _ _ _ _ _ _ _ _ _ F Z K K J u 0 0 q q H J Z n B ( _ _ _ _ _ _ _ _ ) B G K i 0 0 i K 4.4.4.4.4.4.4.4.4.4.4.4.",
"i A P I I I D i Q _ _ _ _ _ _ _ _ _ ) %.1.3.1.r . X X @ =.<.o._ ) _ _ _ _ _ _ _ _ _ _ B } 3.d . . t 2.-.M 4.4.4.4.4.4.4.4.4.4.",
"i A I I I I D C Q _ _ _ _ _ _ _ _ _ _ $.>.,.,.p < < < 3 ;.:.#..._ _ _ _ ) / / / / ) _ [ &.,.L * * y ,.*.~ 4.4.4.4.4.4.4.4.4.4.",
"i A I I I I D a Q _ _ _ _ _ _ _ _ _ _ ( _ ..+.+.+.+.+.+.+.+.+.' _ _ _ _ ~ I I U I ^ _ _ _ _ ~ B P ~ _ _ ) U I I 4.4.4.4.4.4.4.",
"i A I I I I D i Q _ _ _ _ _ _ _ _ _ _ _ _ ) { { { { { { _ ..` ` _ _ _ _ ) / / / / ( _ _ _ _ ( / ^ ( _ _ _ / / ^ ~ I 4.4.4.4.4.",
"i A I I I I D C Q _ _ _ _ _ _ _ _ _ _ _ _ ^ B I B B U B ( _ _ _ _ _ _ _ _ _ _ _ _ _ _ _ _ _ _ _ _ _ ) ) _ _ _ _ ^ I 4.4.4.4.4.",
"i A I I I I D f W _ _ _ _ _ _ _ _ _ _ _ _ ) ) ) ) ( ) ) _ _ _ _ _ _ _ _ _ _ _ _ _ _ _ _ _ _ _ _ _ ( U U Y ) _ _ _ ) U I 4.4.4.",
"V A I I I I D i Q _ / ^ ^ Q Q ' _ _ _ _ _ _ _ _ _ _ _ _ _ _ _ _ _ _ _ _ _ _ _ _ _ ' ( ' _ _ _ _ _ ( ~ ~ ^ ( _ _ _ ) U I 4.4.4.",
"i A I I I I D C Q ) U B N z z ( _ _ _ _ _ _ _ _ _ _ _ _ _ _ _ _ _ _ _ _ _ _ _ _ _ ( _ ( _ _ _ _ _ _ _ _ _ _ _ _ _ ) U I 4.4.4.",
"i A I I I I D i x m ^ / / b z ( _ _ _ _ _ _ _ _ _ _ _ _ _ _ _ _ _ _ _ _ _ _ _ T < , , , , , < 3 R _ _ _ _ _ _ _ _ _ / ^ I 4.4.",
"i A I I I I D f V z ( _ _ b z ( _ _ _ _ _ _ ) ) _ _ _ _ _ _ ) ( _ _ _ _ _ _ _ j + .         . $ T _ _ _ _ _ _ _ _ _ _ ( I 4.4.",
"i A I I I I I P x z ( _ ' c z ( _ _ _ _ _ ^ B ( _ _ _ _ _ ( B ^ _ _ _ _ _ _ _ ( R <         3 ! ) _ _ _ _ _ _ _ _ _ _ / I 4.4.",
"i A I I I I I I Z z ( _ ( b z ( _ _ _ _ _ ( ~ ( _ _ _ _ _ ( ~ / _ _ _ _ _ _ _ _ ' e - X O , h ' _ _ _ _ _ _ _ _ _ _ ^ E I 4.4.",
"V A I I I I I I x z ) _ ( b z ( _ _ _ _ _ _ _ _ _ _ _ _ _ _ _ _ _ _ _ _ _ _ _ _ _ _ ! $ = ( _ _ _ _ _ _ _ _ _ _ _ ( C A I 4.4.",
"i A I I I I I I Z z ( _ _ ! W b W _ _ _ _ _ _ _ _ _ / ~ ) _ _ _ _ _ _ _ _ _ _ _ _ _ ( 6 9 ( _ _ _ _ _ _ _ _ _ _ _ ( Z S / ~ I ",
"Z A M M I I I P x b ( _ _ _ ( z m ( ( ( _ ( _ _ _ _ ^ B ) _ _ _ _ _ _ _ _ _ _ _ ( ( / F b ( _ _ _ _ _ _ _ _ _ ( ( / x m ' Q I ",
"{ [ a F U U D C E ( _ _ _ _ _ ( E p z c ( _ ' _ _ _ ) ) _ _ _ _ _ _ _ _ _ _ _ _ ' E z ! W z E _ _ _ _ _ _ _ ^ C C A ^ _ +.[ I ",
"' ! F F D D D n ^ ' _ _ _ _ _ _ ^ b b m Q W W W ^ _ _ _ _ _ _ _ _ _ _ _ ! E W Q W m b ( ^ n N W Q W W W W W E b b m _ ] +.{ I ",
"( _ ' F i i n _ _ ( _ _ _ _ _ _ _ _ _ ( C w w w x ) _ _ _ _ ) _ _ _ _ ' E p a w w E ' _ _ _ m a w i i C i i b _ _ _ +.+.+.[ I ",
"_ ( ~ Q Q W ^ _ _ _ _ _ _ _ _ ' ' X.' ( W W W W E b b b n c b b m b b b E Q W E W ( O.X.X.X.( W W W W Q W W / X.O.] +...{ [ 4.",
"_ ^ I / ) _ _ _ _ _ _ _ _ _ ' +.@.+.' _ ' _ _ ' / z z z z z z z w w C C E ( ' ' ' ' @.@.+.+.X._ _ ' _ _ _ _ ' @.+.+.+. .I 4.4.",
"_ / I I B _ _ _ _ _ _ ' +.+.+.+.+.+.+.+.+.X.+.+.' ( ( ( ( ( ( ( ( ( ( ( ' O.O.@.O.O.@.@.+.+.+.+.+.+.+.X.+.+.+.+.+.+.+. .I 4.4.",
"_ ) ~ B B ) _ _ _ _ ' ' +.+.+.+.+.+.+.+.+.+.+.+.+.' ` ` ` ` ` ` ' ' ' ' O.O.@.@.@.@.@.@.+.+.+.+.+.+.+.+.+.+.@.+.O.] O. .I 4.4.",
"_ _ _ B I ) _ _ _ _ +.+.+.+.+.+.+.+.+.+.+.+.+.+.+.+.+.+.+.+.+.+.+.+.+.+.+.+.+.+.+.+.+.+.+.+.+.+.+.+.+.+.+.+.+.+.` _ _ _ 4.4.4.",
"_ _ _ ~ B ) _ _ _ _ +.+.+.+.+.+.+.+.+.+.+.+.+.+.+.+.@.+.+.+.+.@.+.+.+.+.+.@.+.+.+.+.+.+.+.+.@.+.+.+.+.| { _  .{ ~ ~ ~ ~ 4.4.4.",
"_ _ _ ~ Y ) _ _ _ ` +.+.+.+.+.+.+.+.+.+.+.+.+.+.+.+.+.+.+.+.+.+.+.+.+.+.+.+.+.+.+.+.+.O.O.O.O.O.O.+.+.{ Y ) / I Y I Y I 4.4.4.",
"_ _ _ ~ I I ^ _ _ _ +.+.+.+.+.+.+.+.+.+.+.+.+.+.+.+.+.+.+.+.+.+.+.+.+.+.+.+.+.+.+.@.+.[ U U U Y _ _ _ _ ) _ _ ) ) ) ) _ _ _ _ ",
"_ _ ) ^ B U B / _ _ ] O.+.+.+.+.+.+.+.+.+.+.+.+.+.+.+.+.+.@.+.+.+.+.@.+.+.+.+.+.+.O.../ Y Y [ ~ ) _ _ _ _ _ _ _ _ _ _ _ _ _ _ ",
"_ _ _ _ ) Y I I / _ _ ] +.+.+.+.+.+.+.+.+.+.+.+.+.+.+.+.+.+.+.+.+.+.+.+.+.+.+.+.+.] _ _ _ _ _ _ _ _ _ _ _ _ _ _ _ _ _ _ _ _ _ ",
"_ _ _ _ _ / / / ~ ~ B [ { { { { [ { _ ` ` ` ` ] ` ` ` ` ` ` ` ` ` ` ` ` ` ` ` ` ` _ _ _ _ _ _ _ _ _ _ _ _ _ _ _ _ _ _ _ _ _ _ ",
"_ _ _ _ _ _ _ _ B I I I I I I M I I ) _ _ _ _ _ _ _ _ _ _ _ _ _ _ _ _ _ _ _ _ _ _ _ _ _ _ _ _ _ _ _ _ _ _ _ _ _ _ _ _ _ _ _ _ "
};
