/* XPM */
static char *frame_013_png[] = {
/* columns rows colors chars-per-pixel */
"63 40 122 2 ",
"   c #010000",
".  c #090603",
"X  c #0B0903",
"o  c #060708",
"O  c #0B0B0B",
"+  c #120E05",
"@  c #1A1508",
"#  c gray7",
"$  c #171718",
"%  c gray11",
"&  c #221B0B",
"*  c #2D240E",
"=  c #32270F",
"-  c #352514",
";  c #382613",
":  c #352A10",
">  c #3C2F12",
",  c #382A1C",
"<  c #3E3113",
"1  c #242423",
"2  c #2C2C2C",
"3  c gray20",
"4  c #373839",
"5  c #3A3A3A",
"6  c #443615",
"7  c #4B3B17",
"8  c #4E3D18",
"9  c #403021",
"0  c #523D29",
"q  c #53431E",
"w  c #614C1E",
"e  c #5C4123",
"r  c #5F452A",
"t  c #644924",
"y  c #654A2B",
"u  c #6D4D29",
"i  c #6C5521",
"p  c #71542C",
"a  c #725539",
"s  c #755A3B",
"d  c #7D6226",
"f  c gray26",
"g  c gray29",
"h  c #505050",
"j  c #5B5B5B",
"k  c #6F5E47",
"l  c #7E5F40",
"z  c #776742",
"x  c #7F6247",
"c  c #646464",
"v  c #6F6C69",
"b  c #806527",
"n  c #8F702C",
"m  c #94742D",
"M  c #99792F",
"N  c #88673F",
"B  c #8B693F",
"V  c #966C37",
"C  c #916E3F",
"Z  c #96733F",
"A  c #99743F",
"S  c #9D783E",
"D  c #A27F32",
"F  c #A7743E",
"G  c #A37D3E",
"H  c #AD7C3F",
"J  c #836240",
"K  c #8C6640",
"L  c #8E6840",
"P  c #926C40",
"I  c #996E40",
"U  c #977340",
"Y  c #9C7140",
"T  c #87765D",
"R  c #907357",
"E  c #917458",
"W  c #A67541",
"Q  c #A97740",
"!  c #AC7A40",
"~  c #B07F41",
"^  c #A58233",
"/  c #AF8A36",
"(  c #A7813E",
")  c #AC853D",
"_  c #AF883D",
"`  c #B28C36",
"'  c #B3843E",
"]  c #B48B3D",
"[  c #BA8D3D",
"{  c #BD933C",
"}  c #C1963D",
"|  c #C49A3C",
" . c #CA9F3E",
".. c #CCA03E",
"X. c #D0A33F",
"o. c #B38241",
"O. c #B98941",
"+. c #BF9942",
"@. c #BC976F",
"#. c #C59641",
"$. c #C79841",
"%. c #CD9E42",
"&. c #CFA240",
"*. c #D3A641",
"=. c #D7A942",
"-. c #D8AA42",
";. c #DAAD49",
":. c #CCA753",
">. c #C3A15B",
",. c #CAA771",
"<. c #ACADB0",
"1. c #C8AB8B",
"2. c #CCBC98",
"3. c #F0D9A6",
"4. c #E9D9B3",
"5. c #EBDCB9",
"6. c #F0E0BE",
"7. c #DDD5C2",
"8. c #DCDCDA",
"9. c #E2E3E5",
"0. c #EDEAE8",
"q. c None",
/* pixels */
"q.q.q.q.q.q.q.q.q.q.q.q.q.q.q.q.q.q.q.q.! ! ! ! ! Q ! ! ! ! ! ! ! ! ! ! I J J J l J J l J J q.q.q.q.q.q.q.q.q.q.q.q.q.q.q.q.q.",
"q.q.q.q.q.q.q.q.q.q.q.q.q.q.q.q.q.q.q.q.u u u u u u u u u u u u u u u u r 0 0 0 0 0 0 0 0 0 , q.q.q.q.q.q.q.q.q.q.q.q.q.q.q.q.",
"q.q.q.q.q.                                                                                                    q.q.q.q.q.q.q.q.",
"q.q.      q.q.q.e u u u u u e .     3 4 o % f #                     @ d >     # f % o 4 3                     q.q.q.q.q.q.q.q.",
"q.q.      q.q.q.~ Q ~ ~ ~ ' V & X   f h # 3 j 1 O                   * | i + . $ j 3 O h g O .                 q.q.q.q.q.q.q.q.",
"q.q.q.q.q.F Q Q Q H } } } } { ` w   o % j 4 O g g o                 * { [ D &   O 4 j % 1 j 2             q.q.q.q.q.q.q.q.q.q.",
"q.q.q.q.q.Q Q Q H ] } | | | | | n 6 + O 5 3 1 5 5 2 #           . = w [ } { w =   1 f O # f %             q.q.q.q.q.q.q.q.q.q.",
"q.q.q.J J W Q Q [ | | | | | | | | { :     3 c % # c 3           . M } F ] | | n o                     q.q.q.q.q.q.q.q.q.q.q.q.",
"q.q.l P I Q Y L ' | | | | | | | | } p 9   # 1 o o 1 #         - u ` | [ } | | ] b b b p y 0 0 0 0 0 0 q.q.q.q.q.q.q.q.q.q.q.q.",
"q.q.J I Q Q I J ) | | | | | | | | | S s 1 % % o         $ % @ t ~ } | | | | | |  .| | H W E J a a l R q.q.q.q.q.q.q.q.q.q.q.q.",
"l L W Q Q Q I l ' | | | | | | | | | } >.8.9.8.4       o <.7.+.{ | | | | | | | | | | } H @.0.v . . g 0.1.F q.q.q.q.q.q.q.q.q.q.",
"l L Q Q Q Q I J ] | | | | | | | | | | :.4.6.5.z 7 7 7 q 2.3.;...| | | | } [ [ [ [ } | ] @.6.T ; ; k 5.,.' q.q.q.q.q.q.q.q.q.q.",
"l B Q Q Q Q I J ) | | | | | | | | | | | | %.=.=.=.=.=.-.-.-.-...| | | | ] F F F F [ | | | | ' F Q o.| | } ! Q Q q.q.q.q.q.q.q.",
"J L Q Q Q Q C l _ | | | | | | | | | | | | } O.O.O.O.O.O.| .. . .| | | | } [ [ [ [ } | | | | { [ [ { | | | { [ [ ' Q q.q.q.q.q.",
"l L Q Q Q Q I J _ | | | | | | | | | | | | ] H H F ! ! H { | | | | | | | | | | | | | | | | | | | | } } } } | | | ' ! q.q.q.q.q.",
"l K Q Q Q Q I J _ | | | | | | | } | | | | | { } } } } } } | | | | | | | | | | | | | | | | | | | | { ! H H } | | | { ! Q q.q.q.",
"J L Q Q Q Q I l ) | { [ ] _ _ ..| | | | | | | | | | | | | | | | | | | | | | | | | | | | | | | | | { ' ' ' } | | | } H Q q.q.q.",
"l L Q Q Q Q I J ] } Q Q G N B { | | | | | | | | | | | | | | | | | | | | | | | | | { | | | | | | | | | | | | | | | } ! Q q.q.q.",
"l K Q Q Q Q I J B S [ [ [ C B { | | | | | | | | | | | | | | | | | | | | | | | ^ 6 6 6 6 6 6 6 8 / | | | | | | | | | [ ] Q q.q.",
"l K Q Q Q Q I J x K { | | C B { | | | | | } } | | | | | | | } } | | | | | |  .m @ .         . * ^ | | | | | | | | |  .[ Q q.q.",
"l L Q Q Q Q Q Q N N { | | Z B { | | | | | [ H { | | | | | { H [ | | | { | | | { / 8         q ` } | | | | | | | | | | [ Q q.q.",
"l K Q Q Q Q Q Q B N { | { Z N { | | | | | [ ' { | | | | | } ' [ | | | | | | | |  .d < X + 6 n  .| | | | | | | | | } ) ) Q q.q.",
"J L Q Q Q Q Q F B N { | { Z B { | | | | | | | | | | | | | | } | | | | | | | | | | | ` & = { | | | | | | | | | | | { N B Q q.q.",
"l L Q Q Q Q Q F B N { | | _ ) A ) | | | | | | | | | [ ' } | | | | | | | | | | | | | { y p | | | | | | | | | | | | } N C [ ' Q ",
"J C W F Q Q Q W B C { | | | { B A { { { | | | | | | [ H { | | | | | | | | | | | | { ] U U { { | | | | | | | | { { ] C U ..] Q ",
"{ H J I Q Q I J ) { | | | | | { ( N J Z } | |  .| | | } } | | | | | | | | | |  ...( K ` _ J ) | | | |  .| | _ N J K ] | *.O.W ",
"| ] Z Z I I I A ] | | | | | | | _ Z Z A ) ) ) ) ] | | | | | | | | | ..{ ` ) ) _ ( ( S { ] U ( _ ) ( ) ' _ o.G Z Z S | ..-.O.W ",
"| | | Z l J A | | | | | | | | | | | | ] N l J s B { | | | | | | | | { ..( z s J z ( { ..{ ..W s J J J s x s Z | | | -.-.-.O.Q ",
"| { ' ' ) ) ] | | | | | | | ....&.&...{ ] ) ) ) ( Z Z Z Z Z Z Z U U U A S ) ) ) ( { *.*.....{ ) ) ) ) ) ) ) ] X...*.-.%.O.o.q.",
"| [ Q ] } | | | | | | | | | ..*.-.-... .| | |  .{ N N N N N N N K s K J ) ..| ..| ..-.-.=.-.&. .|  .| | |  ...-.-.-.-.#.Q q.q.",
"| [ Q Q ' } | | | | | ..*.-.*.-.*.-.*.*.-.-.X.-...{ { { { { ] { { { { {  .*.*.-.*.*.-.*.=.=.-.-.-.X.-.-.X.-.X.-.-.-.-.$.Q q.q.",
"| { ' H H } | | | | ....-.-.-.-.-.-.-.-.-.-.-.-.X..... . ... . .........*.*.-.-.-.-.-.-.-.-.-.-.-.-.-.-.-.-.-.-.-...*.$.Q q.q.",
"| | | ' H } | | | | *.=.=.=.=.=.=.=.-.=.=.=.=.=.=.=.=.=.=.=.=.=.=.=.=.=.=.=.=.=.=.=.=.=.=.=.=.=.=.=.=.=.=.=.=.=.%.| | | q.q.q.",
"| | | ' H } | | |  .=.=.=.=.=.=.=.=.=.=.=.=.=.=.=.-.=.=.=.=.=.=.=.=.=.=.=.=.=.=.=.=.=.=.=.=.=.-.=.=.=.#.O.| | O.' ' ' ' q.q.q.",
"| | | H ! } | | |  .=.=.=.=.=.=.=.=.=.=.=.=.=.=.=.=.=.=.=.=.=.=.=.=.=.=.=.=.-.=.=.=.=.*.*.%.*.*.=.=.=.[ H } [ H Q H Q ! q.q.q.",
"| | | ' F H '  .| | =.=.=.=.=.=.=.=.=.=.=.=.=.=.=.=.=.=.=.=.=.=.=.=.-.=.=.=.=.=.=.-.=.o.~ ~ ! ~ }  .| } } | | } } } } | | | | ",
"| | | ] ~ Q H [ } | X.=.=.=.=.=.=.=.=.=.=.=.-.-.=.=.=.=.=.=.=.=.=.=.-.=.=.=.=.=.=.=.*.' ~ o.' ' } | | | | | | | | | | | | | | ",
"| | | | } H Q Q [ | | ..=.=.=.=.-.-.=.=.=.=.=.-.=.=.=.-.=.=.=.-.=.=.=.=.=.=.=.=.=...} | | | | | | | | | | | | | | | | | | | | ",
"| | | | | [ [ [ ' ' H ' O.O.O.O.O.O.|  . . . . . . . . . . . . . . . . . . . . . .| | | | | | | | | | | | | | | | | | | | | | ",
"| | | | | | | | ' Q Q Q Q W Q F Q Q [ | | | | | | | | | | | | | | | | | | | | | | | | | | | | | | | | | | | | | | | | | | | | "
};
