/* XPM */
static char *frame_006_png[] = {
/* columns rows colors chars-per-pixel */
"63 40 124 2 ",
"   c #010101",
".  c #080602",
"X  c #0B0805",
"o  c #0C0C0C",
"O  c #120D06",
"+  c #120D09",
"@  c #161107",
"#  c #1D150A",
"$  c #161515",
"%  c gray11",
"&  c #221A0A",
"*  c #30260F",
"=  c #382613",
"-  c #342910",
";  c #32251A",
":  c #3D2E1F",
">  c #3E3113",
",  c gray13",
"<  c gray17",
"1  c #3F2F20",
"2  c gray20",
"3  c #453615",
"4  c #4A3A16",
"5  c #44301A",
"6  c #49331C",
"7  c #403020",
"8  c #52421E",
"9  c #614C1E",
"0  c #66501F",
"q  c #654C2C",
"w  c #6D4D29",
"e  c #685220",
"r  c #6B522C",
"t  c #6F5238",
"y  c #70543A",
"u  c #77593D",
"i  c #7E5D3E",
"p  c #444342",
"a  c gray29",
"s  c #6F5E47",
"d  c #765A40",
"f  c #7E5F40",
"g  c #766642",
"h  c #7C6046",
"j  c gray38",
"k  c #6F6C69",
"l  c #835D31",
"z  c #806427",
"x  c #84612E",
"c  c #8F702C",
"v  c #95742F",
"b  c #98772F",
"n  c #98782F",
"m  c #88673F",
"M  c #8B693F",
"N  c #916E3F",
"B  c #9C7734",
"V  c #9B7A30",
"C  c #96733E",
"Z  c #99743F",
"A  c #9D783E",
"S  c #A47B37",
"D  c #A4743E",
"F  c #A37D3E",
"G  c #AD7C3F",
"H  c #846340",
"J  c #8C6640",
"K  c #8E6840",
"L  c #926B40",
"P  c #996E40",
"I  c #977340",
"U  c #9C7040",
"Y  c #866A50",
"T  c #8D6F52",
"R  c #8D7156",
"E  c #87765D",
"W  c #A57541",
"Q  c #A97740",
"!  c #AC7A40",
"~  c #B07F40",
"^  c #A58233",
"/  c #AB8634",
"(  c #AF8A36",
")  c #A7813E",
"_  c #AC853D",
"`  c #AF883D",
"'  c #B28B36",
"]  c #B3843E",
"[  c #B58B3D",
"{  c #BA8D3D",
"}  c #BD933D",
"|  c #C1963C",
" . c #C49A3C",
".. c #CA9F3E",
"X. c #CCA03E",
"o. c #D0A33F",
"O. c #B48341",
"+. c #B98941",
"@. c #BC976F",
"#. c #C59641",
"$. c #C79841",
"%. c #CD9E42",
"&. c #CFA240",
"*. c #CEA44A",
"=. c #D3A641",
"-. c #D7A942",
";. c #D8AA42",
":. c #D9AD48",
">. c #CCA653",
",. c #C5A35C",
"<. c #C29C61",
"1. c #CAA771",
"2. c #BBB8B8",
"3. c #C8AB8B",
"4. c #CBBB98",
"5. c #EFD8A5",
"6. c #E8D8B3",
"7. c #EBDBB9",
"8. c #EFE0BD",
"9. c #ECE0CA",
"0. c #EBE7E2",
"q. c #EDEAE8",
"w. c #F1EEEB",
"e. c None",
/* pixels */
"e.e.e.e.e.e.e.e.e.e.e.e.e.e.e.e.e.    o a 2 % p p % o           . # 6 D N u ; @   < a o $ a ,             e.e.e.e.e.e.e.e.e.e.",
"e.e.e.e.e.e.e.e.e.e.e.e.e.e.e.e.e.e.O     2 j % $ j 2           . x G ] G N C r           .           e.e.e.e.e.e.e.e.e.e.e.e.",
"e.e.e.e.e.e.e.e.e.e.e.e.e.e.e.Q Q Q w 5 . $ 2 o o 2 $         * 0 ' |  .|  . ./ e 7 7 7 : 5 1 > + e.  e.e.e.e.e.e.e.e.e.e.e.e.",
"e.e.e.e.e.e.e.e.e.Q Q Q Q Q Q Q ~ { } B O . . . . . X X . . . 0 .. . . . . . . .X.} _ O.F h H g e.e.e.e.e.e.e.e.e.e.e.e.e.e.e.",
"e.e.e.e.e.e.e.e.Q ! G Q G G G G [  . .} n n b b b b b V n v l S  . . . . . . . .X. . . .' M m m e.e.e.e.e.e.e.e.e.e.e.e.e.e.e.",
"e.e.e.e.e.Q Q Q D G | | } | | } |  . . . ..... . ... . . .| ! +. . . . . . . . . . .X.} } } } } J f e.e.e.e.e.e.e.e.e.e.e.e.e.",
"e.e.e.e.e.Q Q Q _ ]  . . . . . . . . . . . . . . . . . . .} Q [  . . .{ |  . . . . . .X.X.} X.} J h e.e.e.e.e.e.e.e.e.e.e.e.e.",
"e.e.e.f H W Q Q {  . . . . . . . . . . . . . . . . . .|  .| ! ]  . .| G ]  . . . . . .} } X.} } M i e.e.e.e.e.e.e.e.e.e.e.e.e.",
"e.e.f L U Q U J ]  . . . . . . . . .F I C Z C Z U U Z Z Z C m A ] | | { |  . . . . . .] G Z Z C m i i e.e.e.e.e.e.e.e.e.e.e.e.",
"e.e.H U Q Q P H ]  . . . . . . . .| I J T R T d t t t t Y R m C G |  . . . . . . . . .G W R h y t d R e.e.e.e.e.e.e.e.e.e.e.e.",
"f K W Q Q Q L H [  . . . . . . . . .| ,.0.w.0.p . X X $ 2.9.*. .|  . . . . . . . . .| G @.q.k . X a q.3.D e.e.e.e.e.e.e.e.e.e.",
"f K Q Q Q Q P f _  . . . . . . . . .| >.6.8.7.g 4 4 4 8 4.5.:.o. . . . .| [ { { { }  .[ <.7.E = = s 7.1.] e.e.e.e.e.e.e.e.e.e.",
"f K Q Q Q Q P H _  . . . . . . . . . . . .&.-.-.-.-.-.-.-.-.-.o. . . . .] Q ! D Q [  . . . .] D D ]  . .| ! Q ! e.e.e.e.e.e.e.",
"f K Q Q Q Q L H [  . . . . . . . . . . .| | +.+.+.+.+.+. .%... . . . . .| { { { { |  . . . .} { { }  . . .} { { ] Q e.e.e.e.e.",
"i K Q Q Q ! P f _  . . . . . . . . . . . .{ Q G G G Q G |  . . . . . . . . . . . . . . . . . . . . .| | | |  . .] ! e.e.e.e.e.",
"f K Q Q Q Q P H `  . . . . . . . . . . .| | | | | | | | |  . . . . . . . . . . . . . . . . . . . .} ! ! ~ |  . . .} ! Q e.e.e.",
"H J Q Q Q Q P f `  .} { [ ` ` X. . . . . . . . . . . . . . . . . . . . . . . . . . . . . . . . . .} ] ] ] }  . . .| ! Q e.e.e.",
"f J Q Q Q Q P H _ | Q Q F M M }  . . . . . . . . . . . . . . . . . . . . . . . . . .}  . . . . . . . . . . . . . .| ! Q e.e.e.",
"f J Q Q Q Q P H L A [ { { N M }  . . .|  . . . . . . . . . . . . . . . . . . .^ 3 3 3 8 3 3 3 4 (  . . . . . . . . .{ [ Q e.e.",
"H J Q Q Q Q P H h J }  . .C M }  . . . . .| |  . . . . . . .| |  . . . . . . .b @ .         X & /  . . . . . . . . . .} Q e.e.",
"d J Q Q Q Q Q W m m |  . .I g }  . . . . .[ G }  . . . . .| G [  . . . . . . .} ( 4         9 ' }  . . . . . . . . . .{ Q e.e.",
"H J Q Q Q Q Q Q M m }  .} I K }  . . . . .{ ] |  . . . . .} ] {  . . . . . . .X.X.z > X O 3 c .. . . . . . . . . . .] _ Q e.e.",
"H J Q Q Q Q D G m M }  . .I m }  . . . . . . . . . . . . . . . . . . . . .}  . . . .' & - }  . . . . . . . . . . .} m K W e.e.",
"f J Q Q Q Q Q D M M }  . .' ) b _  . . . . . . . . .{ ] |  . . . . . . . . .} X. . .} q r  . . . . . . . . . . . .} m N { ] Q ",
"l L W W Q Q Q W M N } }  .X.} M C } } } }  . . . . .[ G }  . . . . . . . . .X.} } } [ I C }  . . . . . . . . .} } [ M A X.] Q ",
"+.! H U Q Q P H ) }  .X. .} } } ) m m N  .X. . . . . .}  . . . . . . . . . .X.+.X.) J ' _ m _  . . . . . . .' m H J [  .=.+.W ",
"&.[ I I P P C Z ' X. . . . . .X.` C C A _ _ _ _ ]  . . . . . . . . . . .} _ _ O._ A A } } C F _ _ _ _ _ _ _ F Z C A  .o.-.+.Q ",
" . . .I f f Z  . . . . . . . . .} X. .[ m i i i M  . . . . . .|  . . .} A g i l g )  .}  . .A h m i i h f f C  . . .-.-.-.+.Q ",
" .} ] _ _ _ [  . .} X. .} X.X.o.o.o.X.} _ _ _ _ ) C C C Z N Z C N C C C F _ _ _ _  .o.=.X.o.} _ _ _ _ ` ) _ [ =.o.o.;.%.+.O.e.",
" .{ Q {  . . . . . . . .X.} X.;.;.-.X.X.X. . .X.} m m m m m m m m m m m ) .. . . .o.-.-.-.-.X.X. .X. . ... .X.-.-.;.;.$.Q e.e.",
" .{ Q Q G  . . . . .X.o.o.o.o.;.-.-.o.o.=.-.-.-.X.} } } } } { } } } } } ..-.-.-.=.-.-.-.-.-.-.-.-.=.-.=.=.-.-.-.-.-.;.$.Q e.e.",
" .| ] G ! |  . . . .X.o.;.o.-.-.-.;.;.;.-.-.-.;.o.X...X...X.....X.X...X.o.-.-.-.-.-.-.-.-.-.-.;.-.-.-.-.-.-.-.-.=.o.-.$.Q e.e.",
" . . .] ! |  . . . .-.-.-.-.-.-.-.-.-.-.-.-.-.-.-.-.-.-.-.-.-.-.-.-.-.-.-.-.-.-.-.-.-.-.-.-.-.-.-.-.-.-.-.-.;.;.&. . . .e.e.e.",
" . .| ] G |  . . ...-.-.-.-.-.-.-.-.;.-.-.-.-.-.-.-.-.;.-.-.-.-.-.-.-.-.-.-.-.-.-.-.-.-.-.-.-.-.-.-.-.#.+. . .+.O.G ] ] e.e.e.",
" . . .] G | |  . ...-.-.-.-.-.-.-.-.-.-.-.-.-.-.-.-.-.-.-.-.-.-.-.-.-.-.-.-.-.-.-.-.-.=.%.=.=.=.-.-.=.#.~ | | Q G Q ~ G e.e.e.",
" . .| ] D G ] .. . .-.-.-.-.-.-.-.-.-.-.-.-.-.-.-.-.-.-.-.-.-.-.-.;.-.-.-.-.;.-.-.;.-.O.~ ~ Q ~ |  . .| | | | | | | | |  . . .",
" . . .[ G ! G { |  .o.-.-.-.-.-.-.-.-.-.-.-.;.;.-.-.-.-.-.-.;.-.-.-.-.-.-.-.-.-.-.=.&.[ ~ O.] ] |  . . . . . . . . . . . . . .",
" . . . .| ! Q ! {  . .X.-.-.-.-.;.;.-.-.-.-.-.;.-.-.-.-.-.-.-.-.-.-.-.-.-.-.-.-.-.&. . . . . . . . . . . . . . . . . . . . . .",
" . . . . .{ { { ] ] G ] +.+.] +.+.+. .........X................................... . . . .|  . . . . . . . . . . . . . . . . .",
" . . . . . . . .G G Q Q Q Q Q Q Q Q {  . . . . . . . . . . . . . . . . . . . . . . . . . . . . . . . . .|  . . . . .|  . . . ."
};
