/* XPM */
static char *frame_014_png[] = {
/* columns rows colors chars-per-pixel */
"63 40 123 2 ",
"   c #010101",
".  c #080603",
"X  c #0D0A04",
"o  c #070809",
"O  c #0B0B0C",
"+  c #120E06",
"@  c #120D09",
"#  c #191407",
"$  c #171009",
"%  c #151515",
"&  c #1B1B1B",
"*  c #231C0B",
"=  c #2C220E",
"-  c #2E2510",
";  c #382613",
":  c #342910",
">  c #3A2D12",
",  c #3D2D1F",
"<  c #3E3113",
"1  c #252525",
"2  c #2C2C2D",
"3  c #3F2F20",
"4  c gray20",
"5  c #393733",
"6  c #363739",
"7  c gray23",
"8  c #422F18",
"9  c #453615",
"0  c #473816",
"q  c #4B3B17",
"w  c #543B20",
"e  c #533E2A",
"r  c #52421E",
"t  c #5F4A1D",
"y  c #624D1E",
"u  c #554027",
"i  c #43413D",
"p  c #5C4733",
"a  c #654C2C",
"s  c #695320",
"d  c #765C25",
"f  c #7A5F26",
"g  c #70532C",
"h  c #79552E",
"j  c #7E5C38",
"k  c #73633F",
"l  c #444444",
"z  c gray29",
"x  c #524E4B",
"c  c #515151",
"v  c #6F5E47",
"b  c #7F5F40",
"n  c #725D48",
"m  c gray38",
"M  c #706D6A",
"N  c #845D32",
"B  c #8F702C",
"V  c #96762E",
"C  c #99792F",
"Z  c #866232",
"A  c #8A6332",
"S  c #88673F",
"D  c #8B693F",
"F  c #916E3F",
"G  c #9B6D3B",
"H  c #9D7C30",
"J  c #96733F",
"K  c #99753F",
"L  c #9D783E",
"P  c #A6743D",
"I  c #A37D3E",
"U  c #AD7C3F",
"Y  c #836240",
"T  c #8C6640",
"R  c #8E6840",
"E  c #926B40",
"W  c #996E40",
"Q  c #977340",
"!  c #9C7140",
"~  c #87765D",
"^  c #A67540",
"/  c #A97740",
"(  c #AC7A40",
")  c #B07F40",
"_  c #A58233",
"`  c #AA8435",
"'  c #AF8A36",
"]  c #A7823E",
"[  c #AC853D",
"{  c #AF883D",
"}  c #B18B36",
"|  c #B3843F",
" . c #B48C3D",
".. c #BA8D3D",
"X. c #BD933C",
"o. c #C1963D",
"O. c #C49A3C",
"+. c #CA9F3E",
"@. c #CCA03E",
"#. c #D0A33F",
"$. c #B48341",
"%. c #B98941",
"&. c #BE9870",
"*. c #C59641",
"=. c #C79841",
"-. c #CD9E42",
";. c #CEA241",
":. c #D3A641",
">. c #D7A942",
",. c #D8AA43",
"<. c #C9A451",
"1. c #C29C61",
"2. c #CAA771",
"3. c #C9AB8B",
"4. c #C1B18E",
"5. c #E2CC9A",
"6. c #DCCCA6",
"7. c #E0D0AB",
"8. c #E2D2B0",
"9. c #EADBB9",
"0. c #EFECE9",
"q. c #F3EEEA",
"w. c None",
/* pixels */
"w.w.w.w.w.w.w.w.w.w.w.w.w.w.w.w.w.w.w.w.( / / / / / / / / / / / / / / / W b b b b b b b b b w.w.w.w.w.w.w.w.w.w.w.w.w.w.w.w.w.",
"w.w.w.w.w.w.w.w.w.w.w.w.w.w.w.w.w.w.w.w.( U | $.%.| | | $.|  .$.| | $.| ( Q K K Q R b Y b Y Y w.w.w.w.w.w.w.w.w.w.w.w.w.w.w.w.",
"w.w.w.w.w.w.      w.      w.$ w w w w w w u t s y y y y y y y y y y y t t y y y u w 3 3 3 3 , , @ w.        w.w.w.w.w.w.w.w.w.",
"w.w.w.w.w.        . . . . .                                           .         .                             w.w.w.w.w.w.w.w.",
"w.w.      w.w.w.h N N A N A s .     7 l . 1 c %                     * V 0     % c 1   l 7                     w.w.w.w.w.w.w.w.",
"w.w.    $ G ( ( / ) o.o.O.=.` > #   7 z & 4 c 1 %                   = O.d * . % c 4 & z l & O                 w.w.w.w.w.w.w.w.",
"w.w.w.w.w./ / / U  .O.O.O.O.O.X.s     % m 7 . c c                   *  .X.} *     7 m % & m 2             w.w.w.w.w.w.w.w.w.w.",
"w.w.w.Y Y ^ / / ..O.O.O.O.O.O.O.H t # o 2 4 4 4 4 4 &             q d P ..X.d 0   & 4 o O 5 %           w.w.w.w.w.w.w.w.w.w.w.",
"w.w.b E W / ^ R  .O.O.O.O.O.O.O.O.O.>     2 m % % m 4           + H O...o.O.+.V X . . . . . . . .   . w.w.w.w.w.w.w.w.w.w.w.w.",
"w.w.Y ! / / W b [ O.O.O.O.O.O.O.O.O.Z u   o % o . % O         8 A  .O.O.O.O.O.X.C V V Z j n p e e p n w.w.w.w.w.w.w.w.w.w.w.w.",
"b R ^ / / / W b [ O.O.O.O.O.O.O.O.O.o.] i 7 6 O         2 4 - f O.O.O.O.O.O.O.O.+.O.O.U &.q.M . . x 0.3.P w.w.w.w.w.w.w.w.w.w.",
"b R / / / / W b { O.O.O.O.O.O.O.O.O.O.<.6.8.7.k 0 q 0 r 4.5.;.+.O.O.O.O.o.........o.O.| 1.9.~ ; ; v 9.2.| w.w.w.w.w.w.w.w.w.w.",
"b R / / / / W b { O.O.O.O.O.O.O.O.O.O.O.O.;.,.>.>.>.>.>.,.,.,.;.O.O.O.O.../ / P P ..O.O.O.O.| P / | O.O.O.( P / w.w.w.w.w.w.w.",
"b R / / / / W Y { O.O.O.O.O.O.O.O.O.O.O.O.X.%.%.%.%.$.%.=.@.@.+.O.O.O.O.X.........o.O.O.O.O.X.......O.O.o.X.....| / w.w.w.w.w.",
"b R / / / / W b [ O.O.O.O.O.O.O.O.O.O.O.O...U U U U U U X.O.O.O.O.O.O.O.O.O.O.O.O.O.O.O.O.O.O.O.O.O.o.o.o.O.+.O.| U w.w.w.w.w.",
"b R / / / / W Y  .O.O.O.O.O.O.O.O.O.O.O.O.o.X.o.o.X.o.X.O.O.O.O.O.O.O.O.O.O.O.O.O.O.O.O.O.O.O.O.O.X.( / ( o.O.O.o.X.( / w.w.w.",
"b R / / / / W Y [ O.X.X. .{ { O.O.O.O.O.O.O.O.O.O.O.O.O.O.O.O.O.O.O.O.O.O.O.O.O.O.O.O.O.O.O.O.O.O.X.| | | X.O.O.O.o.( / w.w.w.",
"b R / / / / W b { X./ ^ ( T S O.O.O.O.O.O.O.O.O.O.O.O.O.O.O.O.O.O.O.O.O.O.O.O.X.O.O.O.O.O.O.O.O.O.O.O.O.O.O.O.O.O.o.( / w.w.w.",
"b R / / / / W b E L  .X. .E S X.O.O.O.O.O.O.O.O.O.O.O.O.O.O.O.O.O.O.O.O.O.O.O._ 0 9 9 9 9 9 0 q ' O.O.O.O.O.O.O.O.O... ./ w.w.",
"b R / / / / ! Y b T X.@.X.Q S O.+.X.O.O.O.O.o.o.O.O.O.O.O.O.o.X.O.O.O.O.O.O.@.V # .         . * _ O.O.O.O.O.O.O.O.O.O.X./ w.w.",
"b R / / / / ^ ^ T S X.@.X.J S X.O.O.O.O.O...U X.O.O.O.O.O.X.U ..O.O.O.O.O.O.O.X.' q         t ' O.O.O.O.O.O.O.O.O.O.O.../ w.w.",
"b R / / / / / / T Y X.X.O.J S X.O.O.O.O.O.X.| X.O.O.O.O.O.X.| ..O.X.O.O.O.O.O.O.@.f < X + 9 B +.O.O.O.O.O.O.O.O.O.O.| [ / w.w.",
"b R / / / / P U S S X.@.O.F D X.O.O.O.O.O.O.O.O.O.O.O.O.O.O.O.O.O.O.O.O.O.O.O.O.O.O.} * : X.O.O.O.O.O.O.O.O.O.O.O.X.S R ^ w.w.",
"b R / / / / / I D S X.O.O. ._ L ] O.O.O.O.O.O.O.O.O...| X.O.O.O.O.O.O.O.O.O.O.O.O.O.X.a g O.O.O.O.O.O.O.O.O.O.O.O.X.S F ..| / ",
"Y E ^ / / / / ^ D F X.@.X.@.} D L X.X.X.O.O.O.o.O.O...U X.O.O.O.O.O.O.O.O.O.O.O.+.X.X.E J X.o.O.O.O.X.O.O.O.X.X.X...D L +.| / ",
"X.] Y W / / W Y ' X.@.X.@.X.O.X.] Y Y Q O.O.O.O.O.O.O.X.O.O.O.O.O.O.O.O.O.O.O.+.O.L T  .[ S [ O.O.O.@.X.@.O.} S Y D ..O.>.$.^ ",
"+. .J J W W G Q } @.O.O.X.O.O.O.{ K Q Q [ [ [ [  .O.O.O.O.O.O.O.O.O.O.O...$.] [ [ L K X.X.J I ] [ $.$.$.[ [ ] Q J L O.#.>.%.U ",
"O.O.O.J b Y Q O.X.O.O.O.@.O.O.O.O.O.=.%.Y N S k D o.O.O.o.O.O.O.O.O.O.O.I j b b k ] O.O.O.O.I k k N b b b k Q O.O.O.>.>.>.$.^ ",
"+.X.| [ [ [ ..O.@.O.O.O.X.@.@.@.;.#.@.X.{ [ [ [ ] J J J J J J J J J J J I [ [ [ | O.:.@.@.@.X.[ [ [ [ [ [ ] X.;.#.#.>.-.%.$.w.",
"O.../ ..O.O.O.O.X.@.O.O.@.X.@.,.,.,.@.@.O.O.+.O.X.S S S S S S S S S S k ] O.+.+.+.@.>.>.>.>.;.@.+.O.+.O.@.O.;.>.>.>.>.=./ w.w.",
"O.../ / ( O.O.O.@.X.@.#.#.#.#.,.,.,.#.,.>.:.>.>.@.X.X.X.X.X...X.X.X.X.X.+.:.>.:.>.>.>.>.>.>.>.>.>.#.>.>.;.>.>.>.>.>.>.=./ w.w.",
"O.X.| ( ( X.O.O.X.O.@.#.,.#.,.,.,.#.,.,.>.>.>.>.>.@.@.@.O.+.@.+.@.+.+.@.:.>.>.>.>.>.>.>.>.>.>.>.>.,.>.>.>.>.>.>.>.#.>.=./ w.w.",
"O.O.O.| ( o.O.O.O.O.>.>.>.>.>.>.>.>.>.>.>.>.>.>.>.>.>.>.>.>.>.>.>.>.>.>.>.>.>.>.>.>.,.:.,.,.,.>.,.>.>.>.>.>.,.,.@.+.O.O.w.w.w.",
"O.O.o.[ ( o.O.O.O.O.>.>.>.>.>.>.>.>.>.>.,.>.>.>.>.>.,.>.,.>.>.>.>.>.>.>.>.>.>.>.>.>.,.,.,.,.,.,.,.,.>.*.%.+.o.%.) | | U w.w.w.",
"O.O.O.| ( o.o.O.O.O.>.>.>.>.>.>.>.>.>.>.>.>.>.>.>.>.>.>.>.>.>.>.>.>.>.>.>.>.>.>.,.>.>.:.:.-.-.:.:.>.:.o.U o.o.P U U U U w.w.w.",
"O.O.o.| P U  .+.O.+.>.>.>.>.>.>.>.>.>.>.>.>.>.>.>.>.>.>.>.>.>.>.>.>.>.>.>.>.,.>.>.>.:.$.) ) ) U o.O.O.o.o.O.o.o.o.o.o.O.O.O.O.",
"O.O.O...U P U ..o.O.#.>.>.>.>.>.>.>.>.>.>.>.>.>.>.>.>.>.,.>.>.>.>.>.>.>.>.>.>.>.,.#.#...U U | | o.O.O.O.O.O.O.O.o.O.O.O.O.O.O.",
"O.O.O.O.o.U / ( o.O.o.+.>.>.>.>.>.>.>.>.>.>.>.>.>.>.>.>.>.>.>.>.>.>.>.,.>.>.>.>.,.#.o.O.+.O.O.O.O.O.O.O.O.O.O.O.O.O.O.O.O.O.O.",
"O.O.O.O.O.......| U | | %.%.%.%.%.%.O.+.+.+.+.+.+.+.+.+.+.+.+.+.+.+.+.+.+.+.+.+.+.+.O.O.O.O.O.O.O.O.O.O.O.O.O.O.O.O.O.O.O.O.O.",
"O.O.O.O.O.O.O.O.| / / / ^ ^ / ^ ^ / o.O.O.O.O.O.O.O.O.O.O.O.O.O.O.O.O.O.O.O.O.O.O.o.O.O.O.O.O.O.O.O.O.O.o.O.O.O.O.O.O.O.O.O.O."
};
